G04*
G04 #@! TF.GenerationSoftware,Altium Limited,Altium Designer,21.6.4 (81)*
G04*
G04 Layer_Color=8388736*
%FSLAX25Y25*%
%MOIN*%
G70*
G04*
G04 #@! TF.SameCoordinates,61F8F35F-0515-4192-AEF4-FA75AFA33D01*
G04*
G04*
G04 #@! TF.FilePolarity,Negative*
G04*
G01*
G75*
%ADD13R,0.09855X0.03162*%
%ADD14C,0.06312*%
%ADD15R,0.06706X0.06706*%
%ADD16C,0.06706*%
%ADD17R,0.06706X0.06706*%
%ADD18C,0.08674*%
%ADD19C,0.13005*%
%ADD20C,0.02769*%
D13*
X546433Y138445D02*
D03*
Y142382D02*
D03*
Y146319D02*
D03*
Y150256D02*
D03*
Y154193D02*
D03*
Y158130D02*
D03*
Y162067D02*
D03*
Y166004D02*
D03*
Y169941D02*
D03*
Y173878D02*
D03*
Y177815D02*
D03*
Y181752D02*
D03*
Y185689D02*
D03*
Y189626D02*
D03*
Y193563D02*
D03*
Y197500D02*
D03*
Y201437D02*
D03*
Y205374D02*
D03*
Y209311D02*
D03*
Y213248D02*
D03*
Y217185D02*
D03*
Y221122D02*
D03*
Y225059D02*
D03*
Y228996D02*
D03*
Y232933D02*
D03*
Y236870D02*
D03*
Y240807D02*
D03*
Y244744D02*
D03*
Y248681D02*
D03*
Y252618D02*
D03*
Y256555D02*
D03*
Y260492D02*
D03*
X561000Y138445D02*
D03*
Y142382D02*
D03*
Y146319D02*
D03*
Y150256D02*
D03*
Y154193D02*
D03*
Y158130D02*
D03*
Y162067D02*
D03*
Y166004D02*
D03*
Y169941D02*
D03*
Y173878D02*
D03*
Y177815D02*
D03*
Y181752D02*
D03*
Y185689D02*
D03*
Y189626D02*
D03*
Y193563D02*
D03*
Y197500D02*
D03*
Y201437D02*
D03*
Y205374D02*
D03*
Y209311D02*
D03*
Y213248D02*
D03*
Y217185D02*
D03*
Y221122D02*
D03*
Y225059D02*
D03*
Y228996D02*
D03*
Y232933D02*
D03*
Y236870D02*
D03*
Y240807D02*
D03*
Y244744D02*
D03*
Y248681D02*
D03*
Y252618D02*
D03*
Y256555D02*
D03*
Y260492D02*
D03*
D14*
X553717Y267185D02*
D03*
Y131752D02*
D03*
D15*
X473000Y93000D02*
D03*
D16*
X463000D02*
D03*
X473000Y103000D02*
D03*
X463000D02*
D03*
X473000Y113000D02*
D03*
X463000D02*
D03*
X473000Y123000D02*
D03*
X463000D02*
D03*
X473000Y133000D02*
D03*
X463000D02*
D03*
X473000Y143000D02*
D03*
X463000D02*
D03*
X473000Y153000D02*
D03*
X463000D02*
D03*
X473000Y163000D02*
D03*
X463000D02*
D03*
X473000Y173000D02*
D03*
X463000D02*
D03*
X473000Y183000D02*
D03*
X463000D02*
D03*
X473000Y193000D02*
D03*
X463000D02*
D03*
X473000Y203000D02*
D03*
X463000D02*
D03*
X473000Y213000D02*
D03*
X463000D02*
D03*
X473000Y223000D02*
D03*
X463000D02*
D03*
X473000Y233000D02*
D03*
X463000D02*
D03*
X473000Y243000D02*
D03*
X463000D02*
D03*
X473000Y253000D02*
D03*
X463000D02*
D03*
X473000Y263000D02*
D03*
X463000D02*
D03*
X473000Y273000D02*
D03*
X463000D02*
D03*
X473000Y283000D02*
D03*
X463000D02*
D03*
X418500Y96000D02*
D03*
X408500D02*
D03*
X418500Y108000D02*
D03*
X408500D02*
D03*
X418500Y72121D02*
D03*
X408500D02*
D03*
X418500Y84012D02*
D03*
X408500D02*
D03*
X520000Y334000D02*
D03*
X530000D02*
D03*
X470000D02*
D03*
X480000D02*
D03*
X418000Y286500D02*
D03*
X408000D02*
D03*
X418000Y298316D02*
D03*
X408000D02*
D03*
X418000Y310386D02*
D03*
X408000D02*
D03*
X418000Y322500D02*
D03*
X408000D02*
D03*
D17*
X428500Y96000D02*
D03*
X428500Y108000D02*
D03*
Y72121D02*
D03*
X428500Y84012D02*
D03*
X510000Y334000D02*
D03*
X460000D02*
D03*
X428000Y286500D02*
D03*
X428000Y298316D02*
D03*
X428000Y310386D02*
D03*
Y322500D02*
D03*
D18*
X793405Y274350D02*
D03*
X568405D02*
D03*
Y119350D02*
D03*
X793405D02*
D03*
X811211Y279350D02*
D03*
Y114350D02*
D03*
X551211Y101850D02*
D03*
X586230Y100394D02*
D03*
X814577D02*
D03*
Y293307D02*
D03*
X586230D02*
D03*
D19*
X216939Y260118D02*
D03*
Y133858D02*
D03*
X177569Y260118D02*
D03*
Y133858D02*
D03*
X83081Y365610D02*
D03*
X51821D02*
D03*
X83081Y28091D02*
D03*
X51821D02*
D03*
D20*
X528400Y193900D02*
D03*
X485000Y237500D02*
D03*
X485152Y211152D02*
D03*
X489000Y189500D02*
D03*
X520000Y165500D02*
D03*
Y210000D02*
D03*
X521427Y275000D02*
D03*
X507000Y83000D02*
D03*
X473500Y306000D02*
D03*
X492000Y268500D02*
D03*
X480000Y284500D02*
D03*
X518000Y220500D02*
D03*
X504500D02*
D03*
X504000Y191000D02*
D03*
X516457Y128957D02*
D03*
X491500Y86500D02*
D03*
X491000Y149500D02*
D03*
X572000Y260000D02*
D03*
Y256000D02*
D03*
Y252000D02*
D03*
Y248000D02*
D03*
Y240000D02*
D03*
Y244000D02*
D03*
Y236000D02*
D03*
Y232000D02*
D03*
Y224000D02*
D03*
Y228000D02*
D03*
Y220000D02*
D03*
Y216000D02*
D03*
Y212000D02*
D03*
Y208000D02*
D03*
Y204000D02*
D03*
Y200000D02*
D03*
Y196000D02*
D03*
Y192000D02*
D03*
Y188000D02*
D03*
Y184000D02*
D03*
X527051Y84666D02*
D03*
X519274Y83583D02*
D03*
X513000Y110500D02*
D03*
X520500Y98500D02*
D03*
X513000Y83500D02*
D03*
X489500Y163000D02*
D03*
X492000Y156500D02*
D03*
X501051Y90551D02*
D03*
X497000Y218000D02*
D03*
X490000Y132500D02*
D03*
X485000Y120000D02*
D03*
X504500Y279000D02*
D03*
X517000Y253500D02*
D03*
X523000Y259000D02*
D03*
Y238000D02*
D03*
X511500Y237500D02*
D03*
X525500Y97500D02*
D03*
X506500Y129000D02*
D03*
M02*
