M48
;Layer_Color=9474304
;FILE_FORMAT=2:4
INCH,TZ
;TYPE=PLATED
T1F00S00C0.0118
T2F00S00C0.0354
T3F00S00C0.0787
;TYPE=NON_PLATED
T4F00S00C0.0551
T5F00S00C0.0787
T6F00S00C0.1220
%
T01
X49150Y8650
X50105Y9055
X50700Y8300
X51300Y8350
X51927Y8358
X52705Y8467
X52550Y9750
X52050Y9850
X51300Y11050
X51646Y12896
X50650Y12900
X49000Y13250
X48500Y12000
X49100Y14950
X49200Y15650
X48950Y16300
X48900Y18950
X50400Y19100
X52840Y19390
X52000Y21000
X51800Y22050
X50450
X49700Y21800
X48515Y21115
X48500Y23750
X51150
X52300Y23800
Y25900
X51700Y25350
X52143Y27500
X50450Y27900
X49200Y26850
X48000Y28450
X47350Y30600
X57200Y26000
Y25600
Y25200
Y24800
Y24400
Y24000
Y23600
Y23200
Y22800
Y22400
Y22000
Y21600
Y21200
Y20800
Y20400
Y20000
Y19600
Y19200
Y18800
Y18400
X52000Y16550
T02
X40850Y7212
X41850
X42850
X42850Y8401
X41850
X40850
X40850Y9600
X41850
X42850
X42850Y10800
X41850
X40850
X46300Y10300
Y9300
Y11300
Y12300
Y13300
Y14300
Y15300
X47300
Y14300
Y13300
Y12300
Y11300
Y10300
Y9300
Y16300
Y17300
Y18300
Y19300
Y20300
Y21300
Y22300
Y23300
Y24300
Y25300
Y26300
Y27300
Y28300
X46300
Y27300
Y26300
Y25300
Y24300
Y23300
Y22300
Y21300
Y20300
Y19300
Y18300
Y17300
Y16300
X42800Y28650
X41800
X40800
X40800Y29832
X41800
X42800
X42800Y31039
X41800
X40800
Y32250
X41800
X42800
X46000Y33400
X47000
X48000
X51000
X52000
X53000
T03
X55121Y10185
X56841Y11935
X58623Y10039
X56841Y27435
X58623Y29331
T04
X55372Y13175
Y26718
T05
X79341Y11935
X81121Y11435
X81458Y10039
X81121Y27935
X81458Y29331
X79341Y27435
T06
X5182Y2809
X8308
X17757Y13386
X21694
Y26012
X17757
X8308Y36561
X5182
M30
