G04*
G04 #@! TF.GenerationSoftware,Altium Limited,Altium Designer,21.6.4 (81)*
G04*
G04 Layer_Physical_Order=1*
G04 Layer_Color=255*
%FSLAX25Y25*%
%MOIN*%
G70*
G04*
G04 #@! TF.SameCoordinates,61F8F35F-0515-4192-AEF4-FA75AFA33D01*
G04*
G04*
G04 #@! TF.FilePolarity,Positive*
G04*
G01*
G75*
%ADD12C,0.01000*%
%ADD21R,0.09055X0.02362*%
%ADD22C,0.05512*%
%ADD23R,0.05906X0.05906*%
%ADD24C,0.05906*%
%ADD25R,0.05906X0.05906*%
%ADD26C,0.07874*%
%ADD27C,0.12205*%
%ADD28C,0.01968*%
G36*
X548557Y349365D02*
X548578Y349260D01*
X548580Y349153D01*
X549008Y347140D01*
X549050Y347042D01*
X549073Y346937D01*
X549910Y345058D01*
X549972Y344970D01*
X550017Y344873D01*
X551226Y343209D01*
X551305Y343136D01*
X551369Y343050D01*
X552898Y341673D01*
X552990Y341618D01*
X553070Y341548D01*
X554852Y340519D01*
X554954Y340485D01*
X555047Y340432D01*
X557004Y339796D01*
X557110Y339784D01*
X557213Y339752D01*
X559259Y339537D01*
X559313Y339542D01*
X559366Y339532D01*
X580000D01*
Y54169D01*
X559366D01*
X559313Y54159D01*
X559259Y54164D01*
X557213Y53948D01*
X557110Y53917D01*
X557004Y53904D01*
X555047Y53268D01*
X554954Y53216D01*
X554852Y53182D01*
X553070Y52153D01*
X552990Y52082D01*
X552898Y52027D01*
X551369Y50651D01*
X551305Y50565D01*
X551226Y50492D01*
X550017Y48828D01*
X549972Y48730D01*
X549910Y48643D01*
X549073Y46763D01*
X549050Y46659D01*
X549008Y46561D01*
X548676Y45000D01*
X375000D01*
Y350000D01*
X548557D01*
Y349365D01*
D02*
G37*
%LPC*%
G36*
X513953Y337953D02*
X510500D01*
Y334500D01*
X513953D01*
Y337953D01*
D02*
G37*
G36*
X509500D02*
X506047D01*
Y334500D01*
X509500D01*
Y337953D01*
D02*
G37*
G36*
X463953D02*
X460500D01*
Y334500D01*
X463953D01*
Y337953D01*
D02*
G37*
G36*
X459500D02*
X456047D01*
Y334500D01*
X459500D01*
Y337953D01*
D02*
G37*
G36*
X530520D02*
X529480D01*
X528474Y337683D01*
X527573Y337163D01*
X526837Y336427D01*
X526317Y335526D01*
X526047Y334520D01*
Y333480D01*
X526317Y332474D01*
X526837Y331573D01*
X527573Y330837D01*
X528474Y330317D01*
X529480Y330047D01*
X530520D01*
X531526Y330317D01*
X532427Y330837D01*
X533163Y331573D01*
X533683Y332474D01*
X533953Y333480D01*
Y334520D01*
X533683Y335526D01*
X533163Y336427D01*
X532427Y337163D01*
X531526Y337683D01*
X530520Y337953D01*
D02*
G37*
G36*
X520520D02*
X519480D01*
X518474Y337683D01*
X517573Y337163D01*
X516837Y336427D01*
X516317Y335526D01*
X516047Y334520D01*
Y333480D01*
X516317Y332474D01*
X516837Y331573D01*
X517573Y330837D01*
X518474Y330317D01*
X519480Y330047D01*
X520520D01*
X521526Y330317D01*
X522427Y330837D01*
X523163Y331573D01*
X523683Y332474D01*
X523953Y333480D01*
Y334520D01*
X523683Y335526D01*
X523163Y336427D01*
X522427Y337163D01*
X521526Y337683D01*
X520520Y337953D01*
D02*
G37*
G36*
X513953Y333500D02*
X510500D01*
Y330047D01*
X513953D01*
Y333500D01*
D02*
G37*
G36*
X509500D02*
X506047D01*
Y330047D01*
X509500D01*
Y333500D01*
D02*
G37*
G36*
X480520Y337953D02*
X479480D01*
X478474Y337683D01*
X477573Y337163D01*
X476837Y336427D01*
X476317Y335526D01*
X476047Y334520D01*
Y333480D01*
X476317Y332474D01*
X476837Y331573D01*
X477573Y330837D01*
X478474Y330317D01*
X479480Y330047D01*
X480520D01*
X481526Y330317D01*
X482427Y330837D01*
X483163Y331573D01*
X483683Y332474D01*
X483953Y333480D01*
Y334520D01*
X483683Y335526D01*
X483163Y336427D01*
X482427Y337163D01*
X481526Y337683D01*
X480520Y337953D01*
D02*
G37*
G36*
X463953Y333500D02*
X460500D01*
Y330047D01*
X463953D01*
Y333500D01*
D02*
G37*
G36*
X459500D02*
X456047D01*
Y330047D01*
X459500D01*
Y333500D01*
D02*
G37*
G36*
X418520Y326453D02*
X417480D01*
X416474Y326183D01*
X415573Y325663D01*
X414837Y324927D01*
X414317Y324026D01*
X414047Y323020D01*
Y321980D01*
X414317Y320974D01*
X414837Y320073D01*
X415573Y319337D01*
X416474Y318817D01*
X417480Y318547D01*
X418520D01*
X419526Y318817D01*
X420427Y319337D01*
X421163Y320073D01*
X421683Y320974D01*
X421953Y321980D01*
Y323020D01*
X421683Y324026D01*
X421163Y324927D01*
X420427Y325663D01*
X419526Y326183D01*
X418520Y326453D01*
D02*
G37*
G36*
X408520D02*
X407480D01*
X406474Y326183D01*
X405573Y325663D01*
X404837Y324927D01*
X404317Y324026D01*
X404047Y323020D01*
Y321980D01*
X404317Y320974D01*
X404837Y320073D01*
X405573Y319337D01*
X406474Y318817D01*
X407480Y318547D01*
X408520D01*
X409526Y318817D01*
X410427Y319337D01*
X411163Y320073D01*
X411683Y320974D01*
X411953Y321980D01*
Y323020D01*
X411683Y324026D01*
X411163Y324927D01*
X410427Y325663D01*
X409526Y326183D01*
X408520Y326453D01*
D02*
G37*
G36*
X431953Y314339D02*
X424047D01*
Y306433D01*
X431953D01*
Y314339D01*
D02*
G37*
G36*
X418520D02*
X417480D01*
X416474Y314070D01*
X415573Y313549D01*
X414837Y312813D01*
X414317Y311912D01*
X414047Y310907D01*
Y309866D01*
X414317Y308860D01*
X414837Y307959D01*
X415573Y307223D01*
X416474Y306703D01*
X417480Y306433D01*
X418520D01*
X419526Y306703D01*
X420427Y307223D01*
X421163Y307959D01*
X421683Y308860D01*
X421953Y309866D01*
Y310907D01*
X421683Y311912D01*
X421163Y312813D01*
X420427Y313549D01*
X419526Y314070D01*
X418520Y314339D01*
D02*
G37*
G36*
X408520D02*
X407480D01*
X406474Y314070D01*
X405573Y313549D01*
X404837Y312813D01*
X404317Y311912D01*
X404047Y310907D01*
Y309866D01*
X404317Y308860D01*
X404837Y307959D01*
X405573Y307223D01*
X406474Y306703D01*
X407480Y306433D01*
X408520D01*
X409526Y306703D01*
X410427Y307223D01*
X411163Y307959D01*
X411683Y308860D01*
X411953Y309866D01*
Y310907D01*
X411683Y311912D01*
X411163Y312813D01*
X410427Y313549D01*
X409526Y314070D01*
X408520Y314339D01*
D02*
G37*
G36*
X470520Y337953D02*
X469480D01*
X468474Y337683D01*
X467573Y337163D01*
X466837Y336427D01*
X466317Y335526D01*
X466047Y334520D01*
Y333480D01*
X466317Y332474D01*
X466837Y331573D01*
X467573Y330837D01*
X468474Y330317D01*
X469480Y330047D01*
X470520D01*
X471111Y330205D01*
X471971Y329496D01*
Y307277D01*
X471818Y307124D01*
X471516Y306395D01*
Y305605D01*
X471818Y304876D01*
X472376Y304318D01*
X473105Y304016D01*
X473895D01*
X474624Y304318D01*
X475182Y304876D01*
X475484Y305605D01*
Y306395D01*
X475182Y307124D01*
X475029Y307277D01*
Y330500D01*
X474913Y331085D01*
X474581Y331581D01*
X473685Y332478D01*
X473953Y333480D01*
Y334520D01*
X473683Y335526D01*
X473163Y336427D01*
X472427Y337163D01*
X471526Y337683D01*
X470520Y337953D01*
D02*
G37*
G36*
X431953Y326453D02*
X424047D01*
Y318547D01*
X429790D01*
X450808Y297529D01*
X450736Y297073D01*
X450449Y296529D01*
X431953D01*
Y302269D01*
X424047D01*
Y294363D01*
X429790D01*
X430234Y293919D01*
X430730Y293587D01*
X431316Y293471D01*
X432106D01*
X432204Y292471D01*
X431915Y292413D01*
X431419Y292081D01*
X429790Y290453D01*
X424047D01*
Y282547D01*
X431953D01*
Y288290D01*
X433134Y289471D01*
X478866D01*
X481036Y287301D01*
X480470Y286453D01*
X480395Y286484D01*
X479605D01*
X478876Y286182D01*
X478318Y285624D01*
X478016Y284895D01*
Y284105D01*
X478318Y283376D01*
X478471Y283223D01*
Y280500D01*
X478587Y279915D01*
X478919Y279419D01*
X490016Y268321D01*
Y268105D01*
X490318Y267376D01*
X490471Y267223D01*
Y192121D01*
X489471Y191453D01*
X489395Y191484D01*
X488605D01*
X487876Y191182D01*
X487318Y190624D01*
X487016Y189895D01*
Y189105D01*
X487318Y188376D01*
X487876Y187818D01*
X488605Y187516D01*
X489395D01*
X489471Y187547D01*
X490471Y186879D01*
Y165369D01*
X489895Y164984D01*
X489105D01*
X488376Y164682D01*
X488223Y164529D01*
X476681D01*
X476163Y165427D01*
X475427Y166163D01*
X474526Y166683D01*
X473520Y166953D01*
X472480D01*
X471474Y166683D01*
X470702Y166237D01*
X469836Y166648D01*
X469758Y167595D01*
X471478Y169316D01*
X472480Y169047D01*
X473520D01*
X474526Y169317D01*
X475427Y169837D01*
X476163Y170573D01*
X476683Y171474D01*
X476953Y172480D01*
Y173520D01*
X476683Y174526D01*
X476163Y175427D01*
X475427Y176163D01*
X474526Y176683D01*
X473520Y176953D01*
X472480D01*
X471474Y176683D01*
X470573Y176163D01*
X469837Y175427D01*
X469317Y174526D01*
X469047Y173520D01*
Y172480D01*
X469315Y171478D01*
X467060Y169223D01*
X466729Y168727D01*
X466612Y168142D01*
Y166392D01*
X465612Y165978D01*
X465427Y166163D01*
X464526Y166683D01*
X463520Y166953D01*
X462480D01*
X461474Y166683D01*
X460573Y166163D01*
X459837Y165427D01*
X459317Y164526D01*
X459047Y163520D01*
Y162480D01*
X459317Y161474D01*
X459837Y160573D01*
X460573Y159837D01*
X461474Y159317D01*
X462480Y159047D01*
X463520D01*
X464526Y159317D01*
X465427Y159837D01*
X465612Y160022D01*
X466612Y159608D01*
Y156392D01*
X465612Y155978D01*
X465427Y156163D01*
X464526Y156683D01*
X463520Y156953D01*
X462480D01*
X461474Y156683D01*
X460573Y156163D01*
X459837Y155427D01*
X459317Y154526D01*
X459047Y153520D01*
Y152480D01*
X459317Y151474D01*
X459837Y150573D01*
X460573Y149837D01*
X461474Y149317D01*
X462480Y149047D01*
X463520D01*
X464526Y149317D01*
X465427Y149837D01*
X465612Y150022D01*
X466612Y149608D01*
Y146392D01*
X465612Y145978D01*
X465427Y146163D01*
X464526Y146683D01*
X463520Y146953D01*
X462480D01*
X461474Y146683D01*
X460573Y146163D01*
X459837Y145427D01*
X459317Y144526D01*
X459047Y143520D01*
Y142480D01*
X459317Y141474D01*
X459837Y140573D01*
X460573Y139837D01*
X461474Y139317D01*
X462480Y139047D01*
X463520D01*
X464526Y139317D01*
X465427Y139837D01*
X465612Y140022D01*
X466612Y139608D01*
Y136392D01*
X465612Y135978D01*
X465427Y136163D01*
X464526Y136683D01*
X463520Y136953D01*
X462480D01*
X461474Y136683D01*
X460573Y136163D01*
X459837Y135427D01*
X459317Y134526D01*
X459047Y133520D01*
Y132480D01*
X459317Y131474D01*
X459837Y130573D01*
X460573Y129837D01*
X461474Y129317D01*
X462480Y129047D01*
X463520D01*
X464526Y129317D01*
X465427Y129837D01*
X465612Y130022D01*
X466612Y129608D01*
Y126392D01*
X465612Y125978D01*
X465427Y126163D01*
X464526Y126683D01*
X463520Y126953D01*
X462480D01*
X461474Y126683D01*
X460573Y126163D01*
X459837Y125427D01*
X459317Y124526D01*
X459047Y123520D01*
Y122480D01*
X459317Y121474D01*
X459837Y120573D01*
X460573Y119837D01*
X461474Y119317D01*
X462480Y119047D01*
X463520D01*
X464526Y119317D01*
X465427Y119837D01*
X465735Y120144D01*
X465971Y120175D01*
X466920Y119987D01*
X467060Y119777D01*
X469419Y117419D01*
X469915Y117087D01*
X470107Y117049D01*
X470298Y116685D01*
X470419Y116039D01*
X470415Y116006D01*
X469837Y115427D01*
X469317Y114526D01*
X469047Y113520D01*
Y112480D01*
X469317Y111474D01*
X469837Y110573D01*
X470573Y109837D01*
X471474Y109317D01*
X472480Y109047D01*
X473520D01*
X474526Y109317D01*
X475427Y109837D01*
X475971Y110381D01*
X476771Y110163D01*
X476971Y110028D01*
Y105972D01*
X476771Y105837D01*
X475971Y105619D01*
X475427Y106163D01*
X474526Y106683D01*
X473520Y106953D01*
X472480D01*
X471474Y106683D01*
X470573Y106163D01*
X469837Y105427D01*
X469317Y104526D01*
X469047Y103520D01*
Y102480D01*
X469317Y101474D01*
X469837Y100573D01*
X470573Y99837D01*
X471474Y99317D01*
X472480Y99047D01*
X473520D01*
X474526Y99317D01*
X475427Y99837D01*
X475971Y100381D01*
X476771Y100163D01*
X476874Y100093D01*
X476931Y99094D01*
X474790Y96953D01*
X469047D01*
Y89047D01*
X476953D01*
Y94790D01*
X479581Y97419D01*
X479913Y97915D01*
X480029Y98500D01*
Y114914D01*
X479913Y115499D01*
X479581Y115996D01*
X476291Y119286D01*
X476120Y120530D01*
X476163Y120573D01*
X476681Y121471D01*
X481366D01*
X483016Y119821D01*
Y119605D01*
X483318Y118876D01*
X483876Y118318D01*
X484605Y118016D01*
X485395D01*
X486124Y118318D01*
X486682Y118876D01*
X486984Y119605D01*
Y120395D01*
X486682Y121124D01*
X486124Y121682D01*
X485395Y121984D01*
X485179D01*
X483081Y124081D01*
X482585Y124413D01*
X482000Y124529D01*
X476681D01*
X476163Y125427D01*
X475427Y126163D01*
X474526Y126683D01*
X473520Y126953D01*
X472480D01*
X471474Y126683D01*
X470671Y126220D01*
X470273Y126333D01*
X469671Y126675D01*
Y129325D01*
X470273Y129667D01*
X470671Y129780D01*
X471474Y129317D01*
X472480Y129047D01*
X473520D01*
X474526Y129317D01*
X475427Y129837D01*
X476163Y130573D01*
X476683Y131474D01*
X476953Y132480D01*
Y133520D01*
X476683Y134526D01*
X476163Y135427D01*
X475427Y136163D01*
X474526Y136683D01*
X473520Y136953D01*
X472480D01*
X471474Y136683D01*
X470671Y136220D01*
X470273Y136333D01*
X469671Y136675D01*
Y139325D01*
X470273Y139667D01*
X470671Y139780D01*
X471474Y139317D01*
X472480Y139047D01*
X473520D01*
X474526Y139317D01*
X475427Y139837D01*
X476163Y140573D01*
X476681Y141471D01*
X478866D01*
X488016Y132321D01*
Y132105D01*
X488318Y131376D01*
X488876Y130818D01*
X489605Y130516D01*
X490395D01*
X491124Y130818D01*
X491682Y131376D01*
X491984Y132105D01*
Y132895D01*
X491682Y133624D01*
X491124Y134182D01*
X490395Y134484D01*
X490179D01*
X480581Y144081D01*
X480085Y144413D01*
X479500Y144529D01*
X476681D01*
X476163Y145427D01*
X475427Y146163D01*
X474526Y146683D01*
X473520Y146953D01*
X472480D01*
X471474Y146683D01*
X470671Y146220D01*
X470273Y146333D01*
X469671Y146675D01*
Y149325D01*
X470273Y149667D01*
X470671Y149780D01*
X471474Y149317D01*
X472480Y149047D01*
X473520D01*
X474526Y149317D01*
X475427Y149837D01*
X476163Y150573D01*
X476681Y151471D01*
X486867D01*
X489016Y149321D01*
Y149105D01*
X489318Y148376D01*
X489876Y147818D01*
X490605Y147516D01*
X491395D01*
X492124Y147818D01*
X492682Y148376D01*
X492984Y149105D01*
Y149895D01*
X492682Y150624D01*
X492124Y151182D01*
X491395Y151484D01*
X491179D01*
X488581Y154081D01*
X488085Y154413D01*
X487500Y154529D01*
X476681D01*
X476163Y155427D01*
X475427Y156163D01*
X474526Y156683D01*
X473520Y156953D01*
X472480D01*
X471474Y156683D01*
X470671Y156220D01*
X470273Y156333D01*
X469671Y156675D01*
Y159325D01*
X470273Y159667D01*
X470671Y159780D01*
X471474Y159317D01*
X472480Y159047D01*
X473520D01*
X474526Y159317D01*
X475427Y159837D01*
X476163Y160573D01*
X476681Y161471D01*
X488223D01*
X488376Y161318D01*
X489105Y161016D01*
X489895D01*
X490471Y160631D01*
Y157777D01*
X490318Y157624D01*
X490016Y156895D01*
Y156105D01*
X490318Y155376D01*
X490876Y154818D01*
X491605Y154516D01*
X492395D01*
X493124Y154818D01*
X493682Y155376D01*
X493984Y156105D01*
Y156895D01*
X493682Y157624D01*
X493529Y157777D01*
Y267223D01*
X493682Y267376D01*
X493984Y268105D01*
Y268895D01*
X493682Y269624D01*
X493124Y270182D01*
X492395Y270484D01*
X492179D01*
X481529Y281134D01*
Y283223D01*
X481682Y283376D01*
X481984Y284105D01*
Y284895D01*
X481953Y284970D01*
X482801Y285536D01*
X509971Y258366D01*
Y238777D01*
X509818Y238624D01*
X509516Y237895D01*
Y237105D01*
X509818Y236376D01*
X510376Y235818D01*
X511105Y235516D01*
X511895D01*
X512624Y235818D01*
X513182Y236376D01*
X513484Y237105D01*
Y237895D01*
X513182Y238624D01*
X513029Y238777D01*
Y259000D01*
X512913Y259585D01*
X512581Y260081D01*
X480581Y292081D01*
X480085Y292413D01*
X479796Y292471D01*
X479894Y293471D01*
X481867D01*
X515471Y259866D01*
Y254777D01*
X515318Y254624D01*
X515016Y253895D01*
Y253105D01*
X515318Y252376D01*
X515876Y251818D01*
X516605Y251516D01*
X517395D01*
X518124Y251818D01*
X518682Y252376D01*
X518984Y253105D01*
Y253895D01*
X518682Y254624D01*
X518529Y254777D01*
Y260500D01*
X518413Y261085D01*
X518081Y261581D01*
X503464Y276199D01*
X504030Y277047D01*
X504105Y277016D01*
X504895D01*
X505624Y277318D01*
X506182Y277876D01*
X506484Y278605D01*
Y279395D01*
X506182Y280124D01*
X505624Y280682D01*
X504895Y280984D01*
X504679D01*
X486081Y299581D01*
X485585Y299913D01*
X485000Y300029D01*
X452633D01*
X431953Y320710D01*
Y326453D01*
D02*
G37*
G36*
X418520Y302269D02*
X417480D01*
X416474Y301999D01*
X415573Y301479D01*
X414837Y300743D01*
X414317Y299841D01*
X414047Y298836D01*
Y297795D01*
X414317Y296790D01*
X414837Y295889D01*
X415573Y295153D01*
X416474Y294632D01*
X417480Y294363D01*
X418520D01*
X419526Y294632D01*
X420427Y295153D01*
X421163Y295889D01*
X421683Y296790D01*
X421953Y297795D01*
Y298836D01*
X421683Y299841D01*
X421163Y300743D01*
X420427Y301479D01*
X419526Y301999D01*
X418520Y302269D01*
D02*
G37*
G36*
X408520D02*
X407480D01*
X406474Y301999D01*
X405573Y301479D01*
X404837Y300743D01*
X404317Y299841D01*
X404047Y298836D01*
Y297795D01*
X404317Y296790D01*
X404837Y295889D01*
X405573Y295153D01*
X406474Y294632D01*
X407480Y294363D01*
X408520D01*
X409526Y294632D01*
X410427Y295153D01*
X411163Y295889D01*
X411683Y296790D01*
X411953Y297795D01*
Y298836D01*
X411683Y299841D01*
X411163Y300743D01*
X410427Y301479D01*
X409526Y301999D01*
X408520Y302269D01*
D02*
G37*
G36*
X418520Y290453D02*
X417480D01*
X416474Y290183D01*
X415573Y289663D01*
X414837Y288927D01*
X414317Y288026D01*
X414047Y287020D01*
Y285980D01*
X414317Y284974D01*
X414837Y284073D01*
X415573Y283337D01*
X416474Y282817D01*
X417480Y282547D01*
X418520D01*
X419526Y282817D01*
X420427Y283337D01*
X421163Y284073D01*
X421683Y284974D01*
X421953Y285980D01*
Y287020D01*
X421683Y288026D01*
X421163Y288927D01*
X420427Y289663D01*
X419526Y290183D01*
X418520Y290453D01*
D02*
G37*
G36*
X408520D02*
X407480D01*
X406474Y290183D01*
X405573Y289663D01*
X404837Y288927D01*
X404317Y288026D01*
X404047Y287020D01*
Y285980D01*
X404317Y284974D01*
X404837Y284073D01*
X405573Y283337D01*
X406474Y282817D01*
X407480Y282547D01*
X408520D01*
X409526Y282817D01*
X410427Y283337D01*
X411163Y284073D01*
X411683Y284974D01*
X411953Y285980D01*
Y287020D01*
X411683Y288026D01*
X411163Y288927D01*
X410427Y289663D01*
X409526Y290183D01*
X408520Y290453D01*
D02*
G37*
G36*
X473520Y286953D02*
X472480D01*
X471474Y286683D01*
X470573Y286163D01*
X469837Y285427D01*
X469317Y284526D01*
X469047Y283520D01*
Y282480D01*
X469317Y281474D01*
X469837Y280573D01*
X470573Y279837D01*
X471474Y279317D01*
X472480Y279047D01*
X473520D01*
X474526Y279317D01*
X475427Y279837D01*
X476163Y280573D01*
X476683Y281474D01*
X476953Y282480D01*
Y283520D01*
X476683Y284526D01*
X476163Y285427D01*
X475427Y286163D01*
X474526Y286683D01*
X473520Y286953D01*
D02*
G37*
G36*
X463520D02*
X462480D01*
X461474Y286683D01*
X460573Y286163D01*
X459837Y285427D01*
X459317Y284526D01*
X459047Y283520D01*
Y282480D01*
X459317Y281474D01*
X459837Y280573D01*
X460573Y279837D01*
X461474Y279317D01*
X462480Y279047D01*
X463520D01*
X464526Y279317D01*
X465427Y279837D01*
X466163Y280573D01*
X466683Y281474D01*
X466953Y282480D01*
Y283520D01*
X466683Y284526D01*
X466163Y285427D01*
X465427Y286163D01*
X464526Y286683D01*
X463520Y286953D01*
D02*
G37*
G36*
X521822Y276984D02*
X521032D01*
X520303Y276682D01*
X519745Y276124D01*
X519443Y275395D01*
Y274605D01*
X519745Y273876D01*
X520303Y273318D01*
X521032Y273016D01*
X521822D01*
X522551Y273318D01*
X523109Y273876D01*
X523411Y274605D01*
Y275395D01*
X523109Y276124D01*
X522551Y276682D01*
X521822Y276984D01*
D02*
G37*
G36*
X569055Y279287D02*
X567756D01*
X566500Y278951D01*
X565374Y278301D01*
X564455Y277382D01*
X563805Y276256D01*
X563468Y275000D01*
Y273700D01*
X563805Y272445D01*
X564455Y271319D01*
X565374Y270400D01*
X566500Y269750D01*
X567756Y269413D01*
X569055D01*
X570311Y269750D01*
X571437Y270400D01*
X572356Y271319D01*
X573006Y272445D01*
X573343Y273700D01*
Y275000D01*
X573006Y276256D01*
X572356Y277382D01*
X571437Y278301D01*
X570311Y278951D01*
X569055Y279287D01*
D02*
G37*
G36*
X473520Y276953D02*
X472480D01*
X471474Y276683D01*
X470573Y276163D01*
X469837Y275427D01*
X469317Y274526D01*
X469047Y273520D01*
Y272480D01*
X469317Y271474D01*
X469837Y270573D01*
X470573Y269837D01*
X471474Y269317D01*
X472480Y269047D01*
X473520D01*
X474526Y269317D01*
X475427Y269837D01*
X476163Y270573D01*
X476683Y271474D01*
X476953Y272480D01*
Y273520D01*
X476683Y274526D01*
X476163Y275427D01*
X475427Y276163D01*
X474526Y276683D01*
X473520Y276953D01*
D02*
G37*
G36*
X463520D02*
X462480D01*
X461474Y276683D01*
X460573Y276163D01*
X459837Y275427D01*
X459317Y274526D01*
X459047Y273520D01*
Y272480D01*
X459317Y271474D01*
X459837Y270573D01*
X460573Y269837D01*
X461474Y269317D01*
X462480Y269047D01*
X463520D01*
X464526Y269317D01*
X465427Y269837D01*
X466163Y270573D01*
X466683Y271474D01*
X466953Y272480D01*
Y273520D01*
X466683Y274526D01*
X466163Y275427D01*
X465427Y276163D01*
X464526Y276683D01*
X463520Y276953D01*
D02*
G37*
G36*
X554211Y270941D02*
X553222D01*
X552267Y270685D01*
X551410Y270191D01*
X550711Y269491D01*
X550217Y268635D01*
X549961Y267680D01*
Y266691D01*
X550217Y265735D01*
X550711Y264879D01*
X551410Y264180D01*
X552267Y263685D01*
X553222Y263429D01*
X554211D01*
X555166Y263685D01*
X556023Y264180D01*
X556722Y264879D01*
X557217Y265735D01*
X557472Y266691D01*
Y267680D01*
X557217Y268635D01*
X556722Y269491D01*
X556023Y270191D01*
X555166Y270685D01*
X554211Y270941D01*
D02*
G37*
G36*
X551961Y262673D02*
X547433D01*
Y261492D01*
X551961D01*
Y262673D01*
D02*
G37*
G36*
X545433D02*
X540906D01*
Y261492D01*
X545433D01*
Y262673D01*
D02*
G37*
G36*
X473520Y266953D02*
X472480D01*
X471474Y266683D01*
X470573Y266163D01*
X469837Y265427D01*
X469317Y264526D01*
X469047Y263520D01*
Y262480D01*
X469317Y261474D01*
X469837Y260573D01*
X470573Y259837D01*
X471474Y259317D01*
X472480Y259047D01*
X473520D01*
X474526Y259317D01*
X475427Y259837D01*
X476163Y260573D01*
X476683Y261474D01*
X476953Y262480D01*
Y263520D01*
X476683Y264526D01*
X476163Y265427D01*
X475427Y266163D01*
X474526Y266683D01*
X473520Y266953D01*
D02*
G37*
G36*
X463520D02*
X462480D01*
X461474Y266683D01*
X460573Y266163D01*
X459837Y265427D01*
X459317Y264526D01*
X459047Y263520D01*
Y262480D01*
X459317Y261474D01*
X459837Y260573D01*
X460573Y259837D01*
X461474Y259317D01*
X462480Y259047D01*
X463520D01*
X464526Y259317D01*
X465427Y259837D01*
X466163Y260573D01*
X466683Y261474D01*
X466953Y262480D01*
Y263520D01*
X466683Y264526D01*
X466163Y265427D01*
X465427Y266163D01*
X464526Y266683D01*
X463520Y266953D01*
D02*
G37*
G36*
X551961Y259492D02*
X546433D01*
X540906D01*
Y258311D01*
Y257555D01*
X546433D01*
X551961D01*
Y258311D01*
Y259492D01*
D02*
G37*
G36*
Y255555D02*
X546433D01*
X540906D01*
Y254374D01*
Y253618D01*
X546433D01*
X551961D01*
Y254374D01*
Y255555D01*
D02*
G37*
G36*
X432585Y252988D02*
X405026D01*
X404970Y252977D01*
X404912Y252982D01*
X402722Y252735D01*
X402613Y252700D01*
X402499Y252684D01*
X400419Y251956D01*
X400320Y251898D01*
X400213Y251857D01*
X398347Y250684D01*
X398264Y250606D01*
X398169Y250542D01*
X396610Y248984D01*
X396547Y248888D01*
X396468Y248805D01*
X395295Y246939D01*
X395254Y246832D01*
X395196Y246733D01*
X394468Y244653D01*
X394452Y244539D01*
X394418Y244430D01*
X394171Y242240D01*
X394176Y242183D01*
X394164Y242126D01*
Y151575D01*
X394176Y151518D01*
X394171Y151461D01*
X394418Y149270D01*
X394452Y149161D01*
X394468Y149048D01*
X395196Y146967D01*
X395254Y146869D01*
X395295Y146762D01*
X396468Y144896D01*
X396547Y144812D01*
X396610Y144717D01*
X398169Y143159D01*
X398264Y143095D01*
X398347Y143016D01*
X400213Y141844D01*
X400320Y141803D01*
X400419Y141745D01*
X402499Y141017D01*
X402613Y141001D01*
X402722Y140966D01*
X404912Y140719D01*
X404970Y140724D01*
X405026Y140713D01*
X432585D01*
X432642Y140724D01*
X432700Y140719D01*
X434890Y140966D01*
X434999Y141001D01*
X435112Y141017D01*
X437193Y141745D01*
X437291Y141803D01*
X437398Y141844D01*
X439265Y143016D01*
X439348Y143095D01*
X439443Y143159D01*
X441002Y144717D01*
X441065Y144812D01*
X441144Y144896D01*
X442317Y146762D01*
X442357Y146869D01*
X442416Y146967D01*
X443144Y149048D01*
X443160Y149161D01*
X443194Y149270D01*
X443441Y151461D01*
X443436Y151518D01*
X443447Y151575D01*
Y242126D01*
X443436Y242183D01*
X443441Y242240D01*
X443194Y244430D01*
X443160Y244539D01*
X443144Y244653D01*
X442416Y246733D01*
X442357Y246832D01*
X442317Y246939D01*
X441144Y248805D01*
X441065Y248888D01*
X441002Y248984D01*
X439443Y250542D01*
X439348Y250606D01*
X439265Y250684D01*
X437398Y251857D01*
X437291Y251898D01*
X437193Y251956D01*
X435112Y252684D01*
X434999Y252700D01*
X434890Y252735D01*
X432700Y252982D01*
X432642Y252977D01*
X432585Y252988D01*
D02*
G37*
G36*
X551961Y251618D02*
X546433D01*
X540906D01*
Y250437D01*
Y249681D01*
X546433D01*
X551961D01*
Y250437D01*
Y251618D01*
D02*
G37*
G36*
X473520Y256953D02*
X472480D01*
X471474Y256683D01*
X470573Y256163D01*
X469837Y255427D01*
X469317Y254526D01*
X469047Y253520D01*
Y252480D01*
X469317Y251474D01*
X469837Y250573D01*
X470573Y249837D01*
X471474Y249317D01*
X472480Y249047D01*
X473520D01*
X474526Y249317D01*
X475427Y249837D01*
X476163Y250573D01*
X476683Y251474D01*
X476953Y252480D01*
Y253520D01*
X476683Y254526D01*
X476163Y255427D01*
X475427Y256163D01*
X474526Y256683D01*
X473520Y256953D01*
D02*
G37*
G36*
X463520D02*
X462480D01*
X461474Y256683D01*
X460573Y256163D01*
X459837Y255427D01*
X459317Y254526D01*
X459047Y253520D01*
Y252480D01*
X459317Y251474D01*
X459837Y250573D01*
X460573Y249837D01*
X461474Y249317D01*
X462480Y249047D01*
X463520D01*
X464526Y249317D01*
X465427Y249837D01*
X466163Y250573D01*
X466683Y251474D01*
X466953Y252480D01*
Y253520D01*
X466683Y254526D01*
X466163Y255427D01*
X465427Y256163D01*
X464526Y256683D01*
X463520Y256953D01*
D02*
G37*
G36*
X551961Y247681D02*
X546433D01*
X540906D01*
Y246500D01*
Y245744D01*
X546433D01*
X551961D01*
Y246500D01*
Y247681D01*
D02*
G37*
G36*
Y243744D02*
X546433D01*
X540906D01*
Y242563D01*
Y241807D01*
X546433D01*
X551961D01*
Y242563D01*
Y243744D01*
D02*
G37*
G36*
X473520Y246953D02*
X472480D01*
X471474Y246683D01*
X470573Y246163D01*
X469837Y245427D01*
X469317Y244526D01*
X469047Y243520D01*
Y242480D01*
X469317Y241474D01*
X469837Y240573D01*
X470573Y239837D01*
X471474Y239317D01*
X472480Y239047D01*
X473520D01*
X474526Y239317D01*
X475427Y239837D01*
X476163Y240573D01*
X476683Y241474D01*
X476953Y242480D01*
Y243520D01*
X476683Y244526D01*
X476163Y245427D01*
X475427Y246163D01*
X474526Y246683D01*
X473520Y246953D01*
D02*
G37*
G36*
X463520D02*
X462480D01*
X461474Y246683D01*
X460573Y246163D01*
X459837Y245427D01*
X459317Y244526D01*
X459047Y243520D01*
Y242480D01*
X459317Y241474D01*
X459837Y240573D01*
X460573Y239837D01*
X461474Y239317D01*
X462480Y239047D01*
X463520D01*
X464526Y239317D01*
X465427Y239837D01*
X466163Y240573D01*
X466683Y241474D01*
X466953Y242480D01*
Y243520D01*
X466683Y244526D01*
X466163Y245427D01*
X465427Y246163D01*
X464526Y246683D01*
X463520Y246953D01*
D02*
G37*
G36*
X551961Y239807D02*
X546433D01*
X540906D01*
Y238626D01*
Y237870D01*
X546433D01*
X551961D01*
Y238626D01*
Y239807D01*
D02*
G37*
G36*
X523395Y260984D02*
X522605D01*
X521876Y260682D01*
X521318Y260124D01*
X521016Y259395D01*
Y258605D01*
X521318Y257876D01*
X521471Y257723D01*
Y239277D01*
X521318Y239124D01*
X521016Y238395D01*
Y237605D01*
X521318Y236876D01*
X521876Y236318D01*
X522605Y236016D01*
X523395D01*
X524124Y236318D01*
X524682Y236876D01*
X524984Y237605D01*
Y238395D01*
X524682Y239124D01*
X524529Y239277D01*
Y257723D01*
X524682Y257876D01*
X524984Y258605D01*
Y259395D01*
X524682Y260124D01*
X524124Y260682D01*
X523395Y260984D01*
D02*
G37*
G36*
X485395Y239484D02*
X484605D01*
X483876Y239182D01*
X483318Y238624D01*
X483016Y237895D01*
Y237105D01*
X483318Y236376D01*
X483876Y235818D01*
X484605Y235516D01*
X485395D01*
X486124Y235818D01*
X486682Y236376D01*
X486984Y237105D01*
Y237895D01*
X486682Y238624D01*
X486124Y239182D01*
X485395Y239484D01*
D02*
G37*
G36*
X551961Y235870D02*
X546433D01*
X540906D01*
Y234689D01*
Y233933D01*
X546433D01*
X551961D01*
Y234689D01*
Y235870D01*
D02*
G37*
G36*
Y231933D02*
X546433D01*
X540906D01*
Y230752D01*
Y229996D01*
X546433D01*
X551961D01*
Y230752D01*
Y231933D01*
D02*
G37*
G36*
X473520Y236953D02*
X472480D01*
X471474Y236683D01*
X470573Y236163D01*
X469837Y235427D01*
X469317Y234526D01*
X469047Y233520D01*
Y232480D01*
X469317Y231474D01*
X469837Y230573D01*
X470573Y229837D01*
X471474Y229317D01*
X472480Y229047D01*
X473520D01*
X474526Y229317D01*
X475427Y229837D01*
X476163Y230573D01*
X476683Y231474D01*
X476953Y232480D01*
Y233520D01*
X476683Y234526D01*
X476163Y235427D01*
X475427Y236163D01*
X474526Y236683D01*
X473520Y236953D01*
D02*
G37*
G36*
X463520D02*
X462480D01*
X461474Y236683D01*
X460573Y236163D01*
X459837Y235427D01*
X459317Y234526D01*
X459047Y233520D01*
Y232480D01*
X459317Y231474D01*
X459837Y230573D01*
X460573Y229837D01*
X461474Y229317D01*
X462480Y229047D01*
X463520D01*
X464526Y229317D01*
X465427Y229837D01*
X466163Y230573D01*
X466683Y231474D01*
X466953Y232480D01*
Y233520D01*
X466683Y234526D01*
X466163Y235427D01*
X465427Y236163D01*
X464526Y236683D01*
X463520Y236953D01*
D02*
G37*
G36*
X551961Y227996D02*
X546433D01*
X540906D01*
Y226815D01*
Y226059D01*
X546433D01*
X551961D01*
Y226815D01*
Y227996D01*
D02*
G37*
G36*
Y224059D02*
X546433D01*
X540906D01*
Y222878D01*
Y222122D01*
X546433D01*
X551961D01*
Y222878D01*
Y224059D01*
D02*
G37*
G36*
X518395Y222484D02*
X517605D01*
X516876Y222182D01*
X516723Y222029D01*
X505777D01*
X505624Y222182D01*
X504895Y222484D01*
X504105D01*
X503376Y222182D01*
X502818Y221624D01*
X502516Y220895D01*
Y220105D01*
X502535Y220060D01*
X502471Y219738D01*
Y192277D01*
X502318Y192124D01*
X502016Y191395D01*
Y191179D01*
X499970Y189133D01*
X499638Y188636D01*
X499522Y188051D01*
Y91828D01*
X499369Y91675D01*
X499067Y90946D01*
Y90157D01*
X499369Y89427D01*
X499927Y88869D01*
X500657Y88567D01*
X501446D01*
X502175Y88869D01*
X502733Y89427D01*
X503035Y90157D01*
Y90946D01*
X502733Y91675D01*
X502581Y91828D01*
Y187418D01*
X504179Y189016D01*
X504395D01*
X505124Y189318D01*
X505682Y189876D01*
X505984Y190605D01*
Y191395D01*
X505682Y192124D01*
X505529Y192277D01*
Y218779D01*
X505624Y218818D01*
X505777Y218971D01*
X516723D01*
X516876Y218818D01*
X517605Y218516D01*
X518395D01*
X519124Y218818D01*
X519682Y219376D01*
X519984Y220105D01*
Y220895D01*
X519682Y221624D01*
X519124Y222182D01*
X518395Y222484D01*
D02*
G37*
G36*
X473520Y226953D02*
X472480D01*
X471474Y226683D01*
X470573Y226163D01*
X469837Y225427D01*
X469317Y224526D01*
X469047Y223520D01*
Y222480D01*
X469317Y221474D01*
X469837Y220573D01*
X470573Y219837D01*
X471474Y219317D01*
X472480Y219047D01*
X473520D01*
X474526Y219317D01*
X475427Y219837D01*
X476163Y220573D01*
X476683Y221474D01*
X476953Y222480D01*
Y223520D01*
X476683Y224526D01*
X476163Y225427D01*
X475427Y226163D01*
X474526Y226683D01*
X473520Y226953D01*
D02*
G37*
G36*
X463520D02*
X462480D01*
X461474Y226683D01*
X460573Y226163D01*
X459837Y225427D01*
X459317Y224526D01*
X459047Y223520D01*
Y222480D01*
X459317Y221474D01*
X459837Y220573D01*
X460573Y219837D01*
X461474Y219317D01*
X462480Y219047D01*
X463520D01*
X464526Y219317D01*
X465427Y219837D01*
X466163Y220573D01*
X466683Y221474D01*
X466953Y222480D01*
Y223520D01*
X466683Y224526D01*
X466163Y225427D01*
X465427Y226163D01*
X464526Y226683D01*
X463520Y226953D01*
D02*
G37*
G36*
X497500Y219941D02*
Y218500D01*
X498941D01*
X498682Y219124D01*
X498124Y219682D01*
X497500Y219941D01*
D02*
G37*
G36*
X496500D02*
X495876Y219682D01*
X495318Y219124D01*
X495059Y218500D01*
X496500D01*
Y219941D01*
D02*
G37*
G36*
X551961Y220122D02*
X546433D01*
X540906D01*
Y218941D01*
Y218185D01*
X546433D01*
X551961D01*
Y218941D01*
Y220122D01*
D02*
G37*
G36*
X498941Y217500D02*
X497500D01*
Y216059D01*
X498124Y216318D01*
X498682Y216876D01*
X498941Y217500D01*
D02*
G37*
G36*
X496500D02*
X495059D01*
X495318Y216876D01*
X495876Y216318D01*
X496500Y216059D01*
Y217500D01*
D02*
G37*
G36*
X551961Y216185D02*
X546433D01*
X540906D01*
Y215004D01*
Y214248D01*
X546433D01*
X551961D01*
Y215004D01*
Y216185D01*
D02*
G37*
G36*
Y212248D02*
X546433D01*
X540906D01*
Y211067D01*
Y210311D01*
X546433D01*
X551961D01*
Y211067D01*
Y212248D01*
D02*
G37*
G36*
X485547Y213136D02*
X484758D01*
X484028Y212834D01*
X483470Y212276D01*
X483168Y211547D01*
Y210757D01*
X483470Y210028D01*
X484028Y209470D01*
X484758Y209168D01*
X485547D01*
X486276Y209470D01*
X486834Y210028D01*
X487136Y210757D01*
Y211547D01*
X486834Y212276D01*
X486276Y212834D01*
X485547Y213136D01*
D02*
G37*
G36*
X473520Y216953D02*
X472480D01*
X471474Y216683D01*
X470573Y216163D01*
X469837Y215427D01*
X469317Y214526D01*
X469047Y213520D01*
Y212480D01*
X469317Y211474D01*
X469837Y210573D01*
X470573Y209837D01*
X471474Y209317D01*
X472480Y209047D01*
X473520D01*
X474526Y209317D01*
X475427Y209837D01*
X476163Y210573D01*
X476683Y211474D01*
X476953Y212480D01*
Y213520D01*
X476683Y214526D01*
X476163Y215427D01*
X475427Y216163D01*
X474526Y216683D01*
X473520Y216953D01*
D02*
G37*
G36*
X463520D02*
X462480D01*
X461474Y216683D01*
X460573Y216163D01*
X459837Y215427D01*
X459317Y214526D01*
X459047Y213520D01*
Y212480D01*
X459317Y211474D01*
X459837Y210573D01*
X460573Y209837D01*
X461474Y209317D01*
X462480Y209047D01*
X463520D01*
X464526Y209317D01*
X465427Y209837D01*
X466163Y210573D01*
X466683Y211474D01*
X466953Y212480D01*
Y213520D01*
X466683Y214526D01*
X466163Y215427D01*
X465427Y216163D01*
X464526Y216683D01*
X463520Y216953D01*
D02*
G37*
G36*
X520395Y211984D02*
X519605D01*
X518876Y211682D01*
X518318Y211124D01*
X518016Y210395D01*
Y209605D01*
X518318Y208876D01*
X518876Y208318D01*
X519605Y208016D01*
X520395D01*
X521124Y208318D01*
X521682Y208876D01*
X521984Y209605D01*
Y210395D01*
X521682Y211124D01*
X521124Y211682D01*
X520395Y211984D01*
D02*
G37*
G36*
X551961Y208311D02*
X546433D01*
X540906D01*
Y207130D01*
Y206374D01*
X546433D01*
X551961D01*
Y207130D01*
Y208311D01*
D02*
G37*
G36*
Y204374D02*
X546433D01*
X540906D01*
Y203193D01*
Y202437D01*
X546433D01*
X551961D01*
Y203193D01*
Y204374D01*
D02*
G37*
G36*
X473520Y206953D02*
X472480D01*
X471474Y206683D01*
X470573Y206163D01*
X469837Y205427D01*
X469317Y204526D01*
X469047Y203520D01*
Y202480D01*
X469317Y201474D01*
X469837Y200573D01*
X470573Y199837D01*
X471474Y199317D01*
X472480Y199047D01*
X473520D01*
X474526Y199317D01*
X475427Y199837D01*
X476163Y200573D01*
X476683Y201474D01*
X476953Y202480D01*
Y203520D01*
X476683Y204526D01*
X476163Y205427D01*
X475427Y206163D01*
X474526Y206683D01*
X473520Y206953D01*
D02*
G37*
G36*
X463520D02*
X462480D01*
X461474Y206683D01*
X460573Y206163D01*
X459837Y205427D01*
X459317Y204526D01*
X459047Y203520D01*
Y202480D01*
X459317Y201474D01*
X459837Y200573D01*
X460573Y199837D01*
X461474Y199317D01*
X462480Y199047D01*
X463520D01*
X464526Y199317D01*
X465427Y199837D01*
X466163Y200573D01*
X466683Y201474D01*
X466953Y202480D01*
Y203520D01*
X466683Y204526D01*
X466163Y205427D01*
X465427Y206163D01*
X464526Y206683D01*
X463520Y206953D01*
D02*
G37*
G36*
X551961Y200437D02*
X546433D01*
X540906D01*
Y199256D01*
Y198500D01*
X546433D01*
X551961D01*
Y199256D01*
Y200437D01*
D02*
G37*
G36*
Y196500D02*
X546433D01*
X540906D01*
Y195319D01*
Y194563D01*
X546433D01*
X551961D01*
Y195319D01*
Y196500D01*
D02*
G37*
G36*
X528900Y195841D02*
Y194400D01*
X530341D01*
X530082Y195024D01*
X529524Y195582D01*
X528900Y195841D01*
D02*
G37*
G36*
X527900D02*
X527276Y195582D01*
X526718Y195024D01*
X526459Y194400D01*
X527900D01*
Y195841D01*
D02*
G37*
G36*
X530341Y193400D02*
X528900D01*
Y191959D01*
X529524Y192218D01*
X530082Y192776D01*
X530341Y193400D01*
D02*
G37*
G36*
X527900D02*
X526459D01*
X526718Y192776D01*
X527276Y192218D01*
X527900Y191959D01*
Y193400D01*
D02*
G37*
G36*
X551961Y192563D02*
X546433D01*
X540906D01*
Y191382D01*
Y190626D01*
X546433D01*
X551961D01*
Y191382D01*
Y192563D01*
D02*
G37*
G36*
X473520Y196953D02*
X472480D01*
X471474Y196683D01*
X470573Y196163D01*
X469837Y195427D01*
X469317Y194526D01*
X469047Y193520D01*
Y192480D01*
X469317Y191474D01*
X469837Y190573D01*
X470573Y189837D01*
X471474Y189317D01*
X472480Y189047D01*
X473520D01*
X474526Y189317D01*
X475427Y189837D01*
X476163Y190573D01*
X476683Y191474D01*
X476953Y192480D01*
Y193520D01*
X476683Y194526D01*
X476163Y195427D01*
X475427Y196163D01*
X474526Y196683D01*
X473520Y196953D01*
D02*
G37*
G36*
X463520D02*
X462480D01*
X461474Y196683D01*
X460573Y196163D01*
X459837Y195427D01*
X459317Y194526D01*
X459047Y193520D01*
Y192480D01*
X459317Y191474D01*
X459837Y190573D01*
X460573Y189837D01*
X461474Y189317D01*
X462480Y189047D01*
X463520D01*
X464526Y189317D01*
X465427Y189837D01*
X466163Y190573D01*
X466683Y191474D01*
X466953Y192480D01*
Y193520D01*
X466683Y194526D01*
X466163Y195427D01*
X465427Y196163D01*
X464526Y196683D01*
X463520Y196953D01*
D02*
G37*
G36*
X551961Y188626D02*
X546433D01*
X540906D01*
Y187445D01*
Y186689D01*
X546433D01*
X551961D01*
Y187445D01*
Y188626D01*
D02*
G37*
G36*
Y184689D02*
X546433D01*
X540906D01*
Y183508D01*
Y182752D01*
X546433D01*
X551961D01*
Y183508D01*
Y184689D01*
D02*
G37*
G36*
X473520Y186953D02*
X472480D01*
X471474Y186683D01*
X470573Y186163D01*
X469837Y185427D01*
X469317Y184526D01*
X469047Y183520D01*
Y182480D01*
X469317Y181474D01*
X469837Y180573D01*
X470573Y179837D01*
X471474Y179317D01*
X472480Y179047D01*
X473520D01*
X474526Y179317D01*
X475427Y179837D01*
X476163Y180573D01*
X476683Y181474D01*
X476953Y182480D01*
Y183520D01*
X476683Y184526D01*
X476163Y185427D01*
X475427Y186163D01*
X474526Y186683D01*
X473520Y186953D01*
D02*
G37*
G36*
X463520D02*
X462480D01*
X461474Y186683D01*
X460573Y186163D01*
X459837Y185427D01*
X459317Y184526D01*
X459047Y183520D01*
Y182480D01*
X459317Y181474D01*
X459837Y180573D01*
X460573Y179837D01*
X461474Y179317D01*
X462480Y179047D01*
X463520D01*
X464526Y179317D01*
X465427Y179837D01*
X466163Y180573D01*
X466683Y181474D01*
X466953Y182480D01*
Y183520D01*
X466683Y184526D01*
X466163Y185427D01*
X465427Y186163D01*
X464526Y186683D01*
X463520Y186953D01*
D02*
G37*
G36*
Y176953D02*
X462480D01*
X461474Y176683D01*
X460573Y176163D01*
X459837Y175427D01*
X459317Y174526D01*
X459047Y173520D01*
Y172480D01*
X459317Y171474D01*
X459837Y170573D01*
X460573Y169837D01*
X461474Y169317D01*
X462480Y169047D01*
X463520D01*
X464526Y169317D01*
X465427Y169837D01*
X466163Y170573D01*
X466683Y171474D01*
X466953Y172480D01*
Y173520D01*
X466683Y174526D01*
X466163Y175427D01*
X465427Y176163D01*
X464526Y176683D01*
X463520Y176953D01*
D02*
G37*
G36*
X520395Y167484D02*
X519605D01*
X518876Y167182D01*
X518318Y166624D01*
X518016Y165895D01*
Y165105D01*
X518318Y164376D01*
X518876Y163818D01*
X519605Y163516D01*
X520395D01*
X521124Y163818D01*
X521682Y164376D01*
X521984Y165105D01*
Y165895D01*
X521682Y166624D01*
X521124Y167182D01*
X520395Y167484D01*
D02*
G37*
G36*
X575000Y263520D02*
X566628D01*
X566237Y263442D01*
X565907Y263221D01*
X565686Y262890D01*
X565642Y262673D01*
X555472D01*
Y258311D01*
Y254374D01*
Y250437D01*
Y246500D01*
Y242563D01*
Y238626D01*
Y234689D01*
Y230752D01*
Y226815D01*
Y222878D01*
Y218941D01*
Y215004D01*
Y211067D01*
Y207130D01*
Y203193D01*
Y199256D01*
Y195319D01*
Y191382D01*
Y187445D01*
Y183508D01*
Y179571D01*
Y175634D01*
Y171697D01*
Y167760D01*
Y163823D01*
Y159886D01*
Y155949D01*
Y152012D01*
Y148075D01*
Y144138D01*
Y140201D01*
Y136264D01*
X566528D01*
Y140201D01*
Y144138D01*
Y148075D01*
Y152012D01*
Y155949D01*
Y159886D01*
Y163823D01*
Y167760D01*
Y171697D01*
Y175634D01*
Y178898D01*
X566628Y178980D01*
X575000D01*
X575390Y179058D01*
X575721Y179279D01*
X575942Y179610D01*
X576020Y180000D01*
Y262500D01*
X575942Y262890D01*
X575721Y263221D01*
X575390Y263442D01*
X575000Y263520D01*
D02*
G37*
G36*
X551961Y180752D02*
X546433D01*
X540906D01*
Y179571D01*
Y175634D01*
Y171697D01*
Y167760D01*
Y163823D01*
Y159886D01*
Y155949D01*
Y152012D01*
Y148075D01*
Y144138D01*
Y140201D01*
Y136264D01*
X551961D01*
Y140201D01*
Y144138D01*
Y148075D01*
Y152012D01*
Y155949D01*
Y159886D01*
Y163823D01*
Y167760D01*
Y171697D01*
Y175634D01*
Y179571D01*
Y180752D01*
D02*
G37*
G36*
X554211Y135508D02*
X553222D01*
X552267Y135252D01*
X551410Y134757D01*
X550711Y134058D01*
X550217Y133202D01*
X549961Y132246D01*
Y131257D01*
X550217Y130302D01*
X550711Y129446D01*
X551410Y128746D01*
X552267Y128252D01*
X553222Y127996D01*
X554211D01*
X555166Y128252D01*
X556023Y128746D01*
X556722Y129446D01*
X557217Y130302D01*
X557472Y131257D01*
Y132246D01*
X557217Y133202D01*
X556722Y134058D01*
X556023Y134757D01*
X555166Y135252D01*
X554211Y135508D01*
D02*
G37*
G36*
X516851Y130941D02*
X516062D01*
X515333Y130639D01*
X514775Y130081D01*
X514472Y129351D01*
Y128562D01*
X514775Y127833D01*
X515333Y127275D01*
X516062Y126972D01*
X516851D01*
X517581Y127275D01*
X518139Y127833D01*
X518441Y128562D01*
Y129351D01*
X518139Y130081D01*
X517581Y130639D01*
X516851Y130941D01*
D02*
G37*
G36*
X569055Y124287D02*
X567756D01*
X566500Y123951D01*
X565374Y123301D01*
X564455Y122382D01*
X563805Y121256D01*
X563468Y120000D01*
Y118700D01*
X563805Y117445D01*
X564455Y116319D01*
X565374Y115400D01*
X566500Y114750D01*
X567756Y114413D01*
X569055D01*
X570311Y114750D01*
X571437Y115400D01*
X572356Y116319D01*
X573006Y117445D01*
X573343Y118700D01*
Y120000D01*
X573006Y121256D01*
X572356Y122382D01*
X571437Y123301D01*
X570311Y123951D01*
X569055Y124287D01*
D02*
G37*
G36*
X463520Y116953D02*
X462480D01*
X461474Y116683D01*
X460573Y116163D01*
X459837Y115427D01*
X459317Y114526D01*
X459047Y113520D01*
Y112480D01*
X459317Y111474D01*
X459837Y110573D01*
X460573Y109837D01*
X461474Y109317D01*
X462480Y109047D01*
X463520D01*
X464526Y109317D01*
X465427Y109837D01*
X466163Y110573D01*
X466683Y111474D01*
X466953Y112480D01*
Y113520D01*
X466683Y114526D01*
X466163Y115427D01*
X465427Y116163D01*
X464526Y116683D01*
X463520Y116953D01*
D02*
G37*
G36*
X432453Y111953D02*
X424547D01*
Y104047D01*
X432453D01*
Y111953D01*
D02*
G37*
G36*
X419020D02*
X417980D01*
X416974Y111683D01*
X416073Y111163D01*
X415337Y110427D01*
X414817Y109526D01*
X414547Y108520D01*
Y107480D01*
X414817Y106474D01*
X415337Y105573D01*
X416073Y104837D01*
X416974Y104317D01*
X417980Y104047D01*
X419020D01*
X420026Y104317D01*
X420927Y104837D01*
X421663Y105573D01*
X422183Y106474D01*
X422453Y107480D01*
Y108520D01*
X422183Y109526D01*
X421663Y110427D01*
X420927Y111163D01*
X420026Y111683D01*
X419020Y111953D01*
D02*
G37*
G36*
X409020D02*
X407980D01*
X406974Y111683D01*
X406073Y111163D01*
X405337Y110427D01*
X404817Y109526D01*
X404547Y108520D01*
Y107480D01*
X404817Y106474D01*
X405337Y105573D01*
X406073Y104837D01*
X406974Y104317D01*
X407980Y104047D01*
X409020D01*
X410026Y104317D01*
X410927Y104837D01*
X411663Y105573D01*
X412183Y106474D01*
X412453Y107480D01*
Y108520D01*
X412183Y109526D01*
X411663Y110427D01*
X410927Y111163D01*
X410026Y111683D01*
X409020Y111953D01*
D02*
G37*
G36*
X464000Y106565D02*
Y104000D01*
X466565D01*
X466450Y104429D01*
X465963Y105273D01*
X465274Y105963D01*
X464429Y106450D01*
X464000Y106565D01*
D02*
G37*
G36*
X462000D02*
X461571Y106450D01*
X460726Y105963D01*
X460037Y105273D01*
X459550Y104429D01*
X459435Y104000D01*
X462000D01*
Y106565D01*
D02*
G37*
G36*
X466565Y102000D02*
X464000D01*
Y99435D01*
X464429Y99550D01*
X465274Y100037D01*
X465963Y100726D01*
X466450Y101571D01*
X466565Y102000D01*
D02*
G37*
G36*
X462000D02*
X459435D01*
X459550Y101571D01*
X460037Y100726D01*
X460726Y100037D01*
X461571Y99550D01*
X462000Y99435D01*
Y102000D01*
D02*
G37*
G36*
X551861Y106787D02*
X550561D01*
X549305Y106451D01*
X548179Y105801D01*
X547260Y104882D01*
X546610Y103756D01*
X546274Y102500D01*
Y101200D01*
X546610Y99945D01*
X547260Y98819D01*
X548179Y97900D01*
X549305Y97250D01*
X550561Y96913D01*
X551861D01*
X553116Y97250D01*
X554242Y97900D01*
X555161Y98819D01*
X555811Y99945D01*
X556148Y101200D01*
Y102500D01*
X555811Y103756D01*
X555161Y104882D01*
X554242Y105801D01*
X553116Y106451D01*
X551861Y106787D01*
D02*
G37*
G36*
X464000Y96565D02*
Y94000D01*
X466565D01*
X466450Y94429D01*
X465963Y95274D01*
X465274Y95963D01*
X464429Y96450D01*
X464000Y96565D01*
D02*
G37*
G36*
X462000D02*
X461571Y96450D01*
X460726Y95963D01*
X460037Y95274D01*
X459550Y94429D01*
X459435Y94000D01*
X462000D01*
Y96565D01*
D02*
G37*
G36*
X432453Y99953D02*
X424547D01*
Y92047D01*
X432453D01*
Y99953D01*
D02*
G37*
G36*
X419020D02*
X417980D01*
X416974Y99683D01*
X416073Y99163D01*
X415337Y98427D01*
X414817Y97526D01*
X414547Y96520D01*
Y95480D01*
X414817Y94474D01*
X415337Y93573D01*
X416073Y92837D01*
X416974Y92317D01*
X417980Y92047D01*
X419020D01*
X420026Y92317D01*
X420927Y92837D01*
X421663Y93573D01*
X422183Y94474D01*
X422453Y95480D01*
Y96520D01*
X422183Y97526D01*
X421663Y98427D01*
X420927Y99163D01*
X420026Y99683D01*
X419020Y99953D01*
D02*
G37*
G36*
X409020D02*
X407980D01*
X406974Y99683D01*
X406073Y99163D01*
X405337Y98427D01*
X404817Y97526D01*
X404547Y96520D01*
Y95480D01*
X404817Y94474D01*
X405337Y93573D01*
X406073Y92837D01*
X406974Y92317D01*
X407980Y92047D01*
X409020D01*
X410026Y92317D01*
X410927Y92837D01*
X411663Y93573D01*
X412183Y94474D01*
X412453Y95480D01*
Y96520D01*
X412183Y97526D01*
X411663Y98427D01*
X410927Y99163D01*
X410026Y99683D01*
X409020Y99953D01*
D02*
G37*
G36*
X466565Y92000D02*
X464000D01*
Y89435D01*
X464429Y89550D01*
X465274Y90037D01*
X465963Y90727D01*
X466450Y91571D01*
X466565Y92000D01*
D02*
G37*
G36*
X462000D02*
X459435D01*
X459550Y91571D01*
X460037Y90727D01*
X460726Y90037D01*
X461571Y89550D01*
X462000Y89435D01*
Y92000D01*
D02*
G37*
G36*
X491895Y88484D02*
X491105D01*
X490376Y88182D01*
X489818Y87624D01*
X489516Y86895D01*
Y86105D01*
X489818Y85376D01*
X490376Y84818D01*
X491105Y84516D01*
X491895D01*
X492624Y84818D01*
X493182Y85376D01*
X493484Y86105D01*
Y86895D01*
X493182Y87624D01*
X492624Y88182D01*
X491895Y88484D01*
D02*
G37*
G36*
X525895Y99484D02*
X525105D01*
X524376Y99182D01*
X523818Y98624D01*
X523516Y97895D01*
Y97105D01*
X523818Y96376D01*
X524376Y95818D01*
X525027Y95548D01*
X525522Y95053D01*
Y85943D01*
X525369Y85790D01*
X525067Y85061D01*
Y84272D01*
X525369Y83542D01*
X525927Y82984D01*
X526656Y82682D01*
X527446D01*
X528175Y82984D01*
X528733Y83542D01*
X529035Y84272D01*
Y85061D01*
X528733Y85790D01*
X528581Y85943D01*
Y95687D01*
X528464Y96272D01*
X528133Y96768D01*
X527484Y97417D01*
Y97895D01*
X527182Y98624D01*
X526624Y99182D01*
X525895Y99484D01*
D02*
G37*
G36*
X520895Y100484D02*
X520105D01*
X519376Y100182D01*
X518818Y99624D01*
X518516Y98895D01*
Y98417D01*
X518193Y98093D01*
X517861Y97597D01*
X517745Y97012D01*
Y84860D01*
X517592Y84707D01*
X517290Y83978D01*
Y83189D01*
X517592Y82459D01*
X518150Y81901D01*
X518880Y81599D01*
X519669D01*
X520398Y81901D01*
X520956Y82459D01*
X521258Y83189D01*
Y83978D01*
X520956Y84707D01*
X520803Y84860D01*
Y96379D01*
X520973Y96548D01*
X521624Y96818D01*
X522182Y97376D01*
X522484Y98105D01*
Y98895D01*
X522182Y99624D01*
X521624Y100182D01*
X520895Y100484D01*
D02*
G37*
G36*
X513395Y112484D02*
X512605D01*
X511876Y112182D01*
X511318Y111624D01*
X511016Y110895D01*
Y110105D01*
X511318Y109376D01*
X511471Y109223D01*
Y84777D01*
X511318Y84624D01*
X511016Y83895D01*
Y83105D01*
X511318Y82376D01*
X511876Y81818D01*
X512605Y81516D01*
X513395D01*
X514124Y81818D01*
X514682Y82376D01*
X514984Y83105D01*
Y83895D01*
X514682Y84624D01*
X514529Y84777D01*
Y109223D01*
X514682Y109376D01*
X514984Y110105D01*
Y110895D01*
X514682Y111624D01*
X514124Y112182D01*
X513395Y112484D01*
D02*
G37*
G36*
X506895Y130984D02*
X506105D01*
X505376Y130682D01*
X504818Y130124D01*
X504516Y129395D01*
Y128605D01*
X504818Y127876D01*
X504971Y127723D01*
Y106157D01*
X505087Y105572D01*
X505419Y105076D01*
X505471Y105024D01*
Y84277D01*
X505318Y84124D01*
X505016Y83395D01*
Y82605D01*
X505318Y81876D01*
X505876Y81318D01*
X506605Y81016D01*
X507395D01*
X508124Y81318D01*
X508682Y81876D01*
X508984Y82605D01*
Y83395D01*
X508682Y84124D01*
X508529Y84277D01*
Y105657D01*
X508413Y106243D01*
X508081Y106739D01*
X508029Y106791D01*
Y127723D01*
X508182Y127876D01*
X508484Y128605D01*
Y129395D01*
X508182Y130124D01*
X507624Y130682D01*
X506895Y130984D01*
D02*
G37*
G36*
X432453Y87964D02*
X424547D01*
Y80059D01*
X432453D01*
Y87964D01*
D02*
G37*
G36*
X419021D02*
X417980D01*
X416974Y87695D01*
X416073Y87175D01*
X415337Y86439D01*
X414817Y85537D01*
X414547Y84532D01*
Y83491D01*
X414817Y82486D01*
X415337Y81585D01*
X416073Y80849D01*
X416974Y80328D01*
X417980Y80059D01*
X419021D01*
X420026Y80328D01*
X420927Y80849D01*
X421663Y81585D01*
X422184Y82486D01*
X422453Y83491D01*
Y84532D01*
X422184Y85537D01*
X421663Y86439D01*
X420927Y87175D01*
X420026Y87695D01*
X419021Y87964D01*
D02*
G37*
G36*
X409021D02*
X407980D01*
X406974Y87695D01*
X406073Y87175D01*
X405337Y86439D01*
X404817Y85537D01*
X404547Y84532D01*
Y83491D01*
X404817Y82486D01*
X405337Y81585D01*
X406073Y80849D01*
X406974Y80328D01*
X407980Y80059D01*
X409021D01*
X410026Y80328D01*
X410927Y80849D01*
X411663Y81585D01*
X412184Y82486D01*
X412453Y83491D01*
Y84532D01*
X412184Y85537D01*
X411663Y86439D01*
X410927Y87175D01*
X410026Y87695D01*
X409021Y87964D01*
D02*
G37*
G36*
X432453Y76074D02*
X424547D01*
Y68169D01*
X432453D01*
Y76074D01*
D02*
G37*
G36*
X419020D02*
X417980D01*
X416974Y75805D01*
X416073Y75284D01*
X415337Y74548D01*
X414817Y73647D01*
X414547Y72642D01*
Y71601D01*
X414817Y70596D01*
X415337Y69694D01*
X416073Y68958D01*
X416974Y68438D01*
X417980Y68169D01*
X419020D01*
X420026Y68438D01*
X420927Y68958D01*
X421663Y69694D01*
X422183Y70596D01*
X422453Y71601D01*
Y72642D01*
X422183Y73647D01*
X421663Y74548D01*
X420927Y75284D01*
X420026Y75805D01*
X419020Y76074D01*
D02*
G37*
G36*
X409020D02*
X407980D01*
X406974Y75805D01*
X406073Y75284D01*
X405337Y74548D01*
X404817Y73647D01*
X404547Y72642D01*
Y71601D01*
X404817Y70596D01*
X405337Y69694D01*
X406073Y68958D01*
X406974Y68438D01*
X407980Y68169D01*
X409020D01*
X410026Y68438D01*
X410927Y68958D01*
X411663Y69694D01*
X412183Y70596D01*
X412453Y71601D01*
Y72642D01*
X412183Y73647D01*
X411663Y74548D01*
X410927Y75284D01*
X410026Y75805D01*
X409020Y76074D01*
D02*
G37*
%LPD*%
G36*
X575000Y180000D02*
X566628D01*
Y180752D01*
X561000D01*
Y182752D01*
X566628D01*
Y183408D01*
Y184689D01*
X561000D01*
Y186689D01*
X566628D01*
Y187345D01*
Y188626D01*
X561000D01*
Y190626D01*
X566628D01*
Y191282D01*
Y192563D01*
X561000D01*
Y194563D01*
X566628D01*
Y195219D01*
Y196500D01*
X561000D01*
Y198500D01*
X566628D01*
Y199156D01*
Y200437D01*
X561000D01*
Y202437D01*
X566628D01*
Y203093D01*
Y204374D01*
X561000D01*
Y206374D01*
X566628D01*
Y207030D01*
Y208311D01*
X561000D01*
Y210311D01*
X566628D01*
Y210967D01*
Y212248D01*
X561000D01*
Y214248D01*
X566628D01*
Y214904D01*
Y216185D01*
X561000D01*
Y218185D01*
X566628D01*
Y218841D01*
Y220122D01*
X561000D01*
Y222122D01*
X566628D01*
Y222778D01*
Y224059D01*
X561000D01*
Y226059D01*
X566628D01*
Y226715D01*
Y227996D01*
X561000D01*
Y229996D01*
X566628D01*
Y230652D01*
Y231933D01*
X561000D01*
Y233933D01*
X566628D01*
Y234589D01*
Y235870D01*
X561000D01*
Y237870D01*
X566628D01*
Y238526D01*
Y239807D01*
X561000D01*
Y241807D01*
X566628D01*
Y242463D01*
Y243744D01*
X561000D01*
Y245744D01*
X566628D01*
Y246400D01*
Y247681D01*
X561000D01*
Y249681D01*
X566628D01*
Y250337D01*
Y251618D01*
X561000D01*
Y253618D01*
X566628D01*
Y254274D01*
Y255555D01*
X561000D01*
Y257555D01*
X566628D01*
Y258211D01*
Y259492D01*
X561000D01*
Y261492D01*
X566628D01*
Y262500D01*
X575000D01*
Y180000D01*
D02*
G37*
D12*
X504500Y220238D02*
Y220500D01*
X504000Y219738D02*
X504500Y220238D01*
X504000Y191000D02*
Y219738D01*
X506500Y106157D02*
X507000Y105657D01*
Y83000D02*
Y105657D01*
X506500Y106157D02*
Y129000D01*
X473500Y306000D02*
Y330500D01*
X470000Y334000D02*
X473500Y330500D01*
X480000Y280500D02*
Y284500D01*
Y280500D02*
X492000Y268500D01*
Y156500D02*
Y268500D01*
X479500Y291000D02*
X511500Y259000D01*
X485000Y298500D02*
X504500Y279000D01*
X482500Y295000D02*
X517000Y260500D01*
X431316Y295000D02*
X482500D01*
X452000Y298500D02*
X485000D01*
X432500Y291000D02*
X479500D01*
X504500Y220500D02*
X518000D01*
X466000Y340000D02*
X504000D01*
X501051Y188051D02*
X504000Y191000D01*
X501051Y90551D02*
Y188051D01*
X473000Y93000D02*
X478500Y98500D01*
X474914Y118500D02*
X478500Y114914D01*
Y98500D02*
Y114914D01*
X470500Y118500D02*
X474914D01*
X487500Y153000D02*
X491000Y149500D01*
X468142Y168142D02*
X473000Y173000D01*
X468142Y120858D02*
Y168142D01*
Y120858D02*
X470500Y118500D01*
X527051Y84666D02*
Y95687D01*
X525500Y97238D02*
X527051Y95687D01*
X525500Y97238D02*
Y97500D01*
X519274Y83583D02*
Y97012D01*
X520500Y98238D02*
Y98500D01*
X519274Y97012D02*
X520500Y98238D01*
X513000Y83500D02*
Y110500D01*
X428000Y322500D02*
X452000Y298500D01*
X428000Y298316D02*
X431316Y295000D01*
X428000Y286500D02*
X432500Y291000D01*
X473000Y163000D02*
X489500D01*
X473000Y153000D02*
X487500D01*
X473000Y143000D02*
X479500D01*
X490000Y132500D01*
X482000Y123000D02*
X485000Y120000D01*
X473000Y123000D02*
X482000D01*
X511500Y237500D02*
Y259000D01*
X517000Y253500D02*
Y260500D01*
X523000Y238000D02*
Y259000D01*
D21*
X546433Y138445D02*
D03*
Y142382D02*
D03*
Y146319D02*
D03*
Y150256D02*
D03*
Y154193D02*
D03*
Y158130D02*
D03*
Y162067D02*
D03*
Y166004D02*
D03*
Y169941D02*
D03*
Y173878D02*
D03*
Y177815D02*
D03*
Y181752D02*
D03*
Y185689D02*
D03*
Y189626D02*
D03*
Y193563D02*
D03*
Y197500D02*
D03*
Y201437D02*
D03*
Y205374D02*
D03*
Y209311D02*
D03*
Y213248D02*
D03*
Y217185D02*
D03*
Y221122D02*
D03*
Y225059D02*
D03*
Y228996D02*
D03*
Y232933D02*
D03*
Y236870D02*
D03*
Y240807D02*
D03*
Y244744D02*
D03*
Y248681D02*
D03*
Y252618D02*
D03*
Y256555D02*
D03*
Y260492D02*
D03*
X561000Y138445D02*
D03*
Y142382D02*
D03*
Y146319D02*
D03*
Y150256D02*
D03*
Y154193D02*
D03*
Y158130D02*
D03*
Y162067D02*
D03*
Y166004D02*
D03*
Y169941D02*
D03*
Y173878D02*
D03*
Y177815D02*
D03*
Y181752D02*
D03*
Y185689D02*
D03*
Y189626D02*
D03*
Y193563D02*
D03*
Y197500D02*
D03*
Y201437D02*
D03*
Y205374D02*
D03*
Y209311D02*
D03*
Y213248D02*
D03*
Y217185D02*
D03*
Y221122D02*
D03*
Y225059D02*
D03*
Y228996D02*
D03*
Y232933D02*
D03*
Y236870D02*
D03*
Y240807D02*
D03*
Y244744D02*
D03*
Y248681D02*
D03*
Y252618D02*
D03*
Y256555D02*
D03*
Y260492D02*
D03*
D22*
X553717Y267185D02*
D03*
Y131752D02*
D03*
D23*
X473000Y93000D02*
D03*
D24*
X463000D02*
D03*
X473000Y103000D02*
D03*
X463000D02*
D03*
X473000Y113000D02*
D03*
X463000D02*
D03*
X473000Y123000D02*
D03*
X463000D02*
D03*
X473000Y133000D02*
D03*
X463000D02*
D03*
X473000Y143000D02*
D03*
X463000D02*
D03*
X473000Y153000D02*
D03*
X463000D02*
D03*
X473000Y163000D02*
D03*
X463000D02*
D03*
X473000Y173000D02*
D03*
X463000D02*
D03*
X473000Y183000D02*
D03*
X463000D02*
D03*
X473000Y193000D02*
D03*
X463000D02*
D03*
X473000Y203000D02*
D03*
X463000D02*
D03*
X473000Y213000D02*
D03*
X463000D02*
D03*
X473000Y223000D02*
D03*
X463000D02*
D03*
X473000Y233000D02*
D03*
X463000D02*
D03*
X473000Y243000D02*
D03*
X463000D02*
D03*
X473000Y253000D02*
D03*
X463000D02*
D03*
X473000Y263000D02*
D03*
X463000D02*
D03*
X473000Y273000D02*
D03*
X463000D02*
D03*
X473000Y283000D02*
D03*
X463000D02*
D03*
X418500Y96000D02*
D03*
X408500D02*
D03*
X418500Y108000D02*
D03*
X408500D02*
D03*
X418500Y72121D02*
D03*
X408500D02*
D03*
X418500Y84012D02*
D03*
X408500D02*
D03*
X520000Y334000D02*
D03*
X530000D02*
D03*
X470000D02*
D03*
X480000D02*
D03*
X418000Y286500D02*
D03*
X408000D02*
D03*
X418000Y298316D02*
D03*
X408000D02*
D03*
X418000Y310386D02*
D03*
X408000D02*
D03*
X418000Y322500D02*
D03*
X408000D02*
D03*
D25*
X428500Y96000D02*
D03*
X428500Y108000D02*
D03*
Y72121D02*
D03*
X428500Y84012D02*
D03*
X510000Y334000D02*
D03*
X460000D02*
D03*
X428000Y286500D02*
D03*
X428000Y298316D02*
D03*
X428000Y310386D02*
D03*
Y322500D02*
D03*
D26*
X793405Y274350D02*
D03*
X568405D02*
D03*
Y119350D02*
D03*
X793405D02*
D03*
X811211Y279350D02*
D03*
Y114350D02*
D03*
X551211Y101850D02*
D03*
X586230Y100394D02*
D03*
X814577D02*
D03*
Y293307D02*
D03*
X586230D02*
D03*
D27*
X216939Y260118D02*
D03*
Y133858D02*
D03*
X177569Y260118D02*
D03*
Y133858D02*
D03*
X83081Y365610D02*
D03*
X51821D02*
D03*
X83081Y28091D02*
D03*
X51821D02*
D03*
D28*
X528400Y193900D02*
D03*
X485000Y237500D02*
D03*
X485152Y211152D02*
D03*
X489000Y189500D02*
D03*
X520000Y165500D02*
D03*
Y210000D02*
D03*
X521427Y275000D02*
D03*
X507000Y83000D02*
D03*
X473500Y306000D02*
D03*
X492000Y268500D02*
D03*
X480000Y284500D02*
D03*
X518000Y220500D02*
D03*
X504500D02*
D03*
X504000Y191000D02*
D03*
X516457Y128957D02*
D03*
X491500Y86500D02*
D03*
X491000Y149500D02*
D03*
X572000Y260000D02*
D03*
Y256000D02*
D03*
Y252000D02*
D03*
Y248000D02*
D03*
Y240000D02*
D03*
Y244000D02*
D03*
Y236000D02*
D03*
Y232000D02*
D03*
Y224000D02*
D03*
Y228000D02*
D03*
Y220000D02*
D03*
Y216000D02*
D03*
Y212000D02*
D03*
Y208000D02*
D03*
Y204000D02*
D03*
Y200000D02*
D03*
Y196000D02*
D03*
Y192000D02*
D03*
Y188000D02*
D03*
Y184000D02*
D03*
X527051Y84666D02*
D03*
X519274Y83583D02*
D03*
X513000Y110500D02*
D03*
X520500Y98500D02*
D03*
X513000Y83500D02*
D03*
X489500Y163000D02*
D03*
X492000Y156500D02*
D03*
X501051Y90551D02*
D03*
X497000Y218000D02*
D03*
X490000Y132500D02*
D03*
X485000Y120000D02*
D03*
X504500Y279000D02*
D03*
X517000Y253500D02*
D03*
X523000Y259000D02*
D03*
Y238000D02*
D03*
X511500Y237500D02*
D03*
X525500Y97500D02*
D03*
X506500Y129000D02*
D03*
M02*
