G04*
G04 #@! TF.GenerationSoftware,Altium Limited,Altium Designer,21.6.4 (81)*
G04*
G04 Layer_Physical_Order=2*
G04 Layer_Color=36540*
%FSLAX25Y25*%
%MOIN*%
G70*
G04*
G04 #@! TF.SameCoordinates,61F8F35F-0515-4192-AEF4-FA75AFA33D01*
G04*
G04*
G04 #@! TF.FilePolarity,Positive*
G04*
G01*
G75*
%ADD24C,0.05906*%
%ADD28C,0.01968*%
G36*
X548557Y349365D02*
X548578Y349260D01*
X548580Y349153D01*
X549008Y347140D01*
X549050Y347042D01*
X549073Y346937D01*
X549910Y345058D01*
X549972Y344970D01*
X550017Y344873D01*
X551226Y343209D01*
X551305Y343136D01*
X551369Y343050D01*
X552898Y341673D01*
X552990Y341618D01*
X553070Y341548D01*
X554852Y340519D01*
X554954Y340485D01*
X555047Y340432D01*
X557004Y339796D01*
X557110Y339784D01*
X557213Y339752D01*
X559259Y339537D01*
X559313Y339542D01*
X559366Y339532D01*
X580000D01*
Y54169D01*
X559366D01*
X559313Y54159D01*
X559259Y54164D01*
X557213Y53948D01*
X557110Y53917D01*
X557004Y53904D01*
X555047Y53268D01*
X554954Y53216D01*
X554852Y53182D01*
X553070Y52153D01*
X552990Y52082D01*
X552898Y52027D01*
X551369Y50651D01*
X551305Y50565D01*
X551226Y50492D01*
X550017Y48828D01*
X549972Y48730D01*
X549910Y48643D01*
X549073Y46763D01*
X549050Y46659D01*
X549008Y46561D01*
X548676Y45000D01*
X375000D01*
Y350000D01*
X548557D01*
Y349365D01*
D02*
G37*
%LPC*%
G36*
X530520Y337953D02*
X530500D01*
Y334500D01*
X533953D01*
Y334520D01*
X533683Y335526D01*
X533163Y336427D01*
X532427Y337163D01*
X531526Y337683D01*
X530520Y337953D01*
D02*
G37*
G36*
X529500D02*
X529480D01*
X528474Y337683D01*
X527573Y337163D01*
X526837Y336427D01*
X526317Y335526D01*
X526047Y334520D01*
Y334500D01*
X529500D01*
Y337953D01*
D02*
G37*
G36*
X480520D02*
X480500D01*
Y334500D01*
X483953D01*
Y334520D01*
X483683Y335526D01*
X483163Y336427D01*
X482427Y337163D01*
X481526Y337683D01*
X480520Y337953D01*
D02*
G37*
G36*
X479500D02*
X479480D01*
X478474Y337683D01*
X477573Y337163D01*
X476837Y336427D01*
X476317Y335526D01*
X476047Y334520D01*
Y334500D01*
X479500D01*
Y337953D01*
D02*
G37*
G36*
X533953Y333500D02*
X530500D01*
Y330047D01*
X530520D01*
X531526Y330317D01*
X532427Y330837D01*
X533163Y331573D01*
X533683Y332474D01*
X533953Y333480D01*
Y333500D01*
D02*
G37*
G36*
X529500D02*
X526047D01*
Y333480D01*
X526317Y332474D01*
X526837Y331573D01*
X527573Y330837D01*
X528474Y330317D01*
X529480Y330047D01*
X529500D01*
Y333500D01*
D02*
G37*
G36*
X520520Y337953D02*
X519480D01*
X518474Y337683D01*
X517573Y337163D01*
X516837Y336427D01*
X516317Y335526D01*
X516047Y334520D01*
Y333480D01*
X516317Y332474D01*
X516837Y331573D01*
X517573Y330837D01*
X518474Y330317D01*
X519480Y330047D01*
X520520D01*
X521526Y330317D01*
X522427Y330837D01*
X523163Y331573D01*
X523683Y332474D01*
X523953Y333480D01*
Y334520D01*
X523683Y335526D01*
X523163Y336427D01*
X522427Y337163D01*
X521526Y337683D01*
X520520Y337953D01*
D02*
G37*
G36*
X513953D02*
X506047D01*
Y330047D01*
X513953D01*
Y337953D01*
D02*
G37*
G36*
X483953Y333500D02*
X480500D01*
Y330047D01*
X480520D01*
X481526Y330317D01*
X482427Y330837D01*
X483163Y331573D01*
X483683Y332474D01*
X483953Y333480D01*
Y333500D01*
D02*
G37*
G36*
X479500D02*
X476047D01*
Y333480D01*
X476317Y332474D01*
X476837Y331573D01*
X477573Y330837D01*
X478474Y330317D01*
X479480Y330047D01*
X479500D01*
Y333500D01*
D02*
G37*
G36*
X470520Y337953D02*
X469480D01*
X468474Y337683D01*
X467573Y337163D01*
X466837Y336427D01*
X466317Y335526D01*
X466047Y334520D01*
Y333480D01*
X466317Y332474D01*
X466837Y331573D01*
X467573Y330837D01*
X468474Y330317D01*
X469480Y330047D01*
X470520D01*
X471526Y330317D01*
X472427Y330837D01*
X473163Y331573D01*
X473683Y332474D01*
X473953Y333480D01*
Y334520D01*
X473683Y335526D01*
X473163Y336427D01*
X472427Y337163D01*
X471526Y337683D01*
X470520Y337953D01*
D02*
G37*
G36*
X463953D02*
X456047D01*
Y330047D01*
X463953D01*
Y337953D01*
D02*
G37*
G36*
X408520Y326453D02*
X408500D01*
Y323000D01*
X411953D01*
Y323020D01*
X411683Y324026D01*
X411163Y324927D01*
X410427Y325663D01*
X409526Y326183D01*
X408520Y326453D01*
D02*
G37*
G36*
X407500D02*
X407480D01*
X406474Y326183D01*
X405573Y325663D01*
X404837Y324927D01*
X404317Y324026D01*
X404047Y323020D01*
Y323000D01*
X407500D01*
Y326453D01*
D02*
G37*
G36*
X431953D02*
X424047D01*
Y318547D01*
X431953D01*
Y326453D01*
D02*
G37*
G36*
X418520D02*
X417480D01*
X416474Y326183D01*
X415573Y325663D01*
X414837Y324927D01*
X414317Y324026D01*
X414047Y323020D01*
Y321980D01*
X414317Y320974D01*
X414837Y320073D01*
X415573Y319337D01*
X416474Y318817D01*
X417480Y318547D01*
X418520D01*
X419526Y318817D01*
X420427Y319337D01*
X421163Y320073D01*
X421683Y320974D01*
X421953Y321980D01*
Y323020D01*
X421683Y324026D01*
X421163Y324927D01*
X420427Y325663D01*
X419526Y326183D01*
X418520Y326453D01*
D02*
G37*
G36*
X411953Y322000D02*
X408500D01*
Y318547D01*
X408520D01*
X409526Y318817D01*
X410427Y319337D01*
X411163Y320073D01*
X411683Y320974D01*
X411953Y321980D01*
Y322000D01*
D02*
G37*
G36*
X407500D02*
X404047D01*
Y321980D01*
X404317Y320974D01*
X404837Y320073D01*
X405573Y319337D01*
X406474Y318817D01*
X407480Y318547D01*
X407500D01*
Y322000D01*
D02*
G37*
G36*
X408520Y314339D02*
X408500D01*
Y310886D01*
X411953D01*
Y310907D01*
X411683Y311912D01*
X411163Y312813D01*
X410427Y313549D01*
X409526Y314070D01*
X408520Y314339D01*
D02*
G37*
G36*
X407500D02*
X407480D01*
X406474Y314070D01*
X405573Y313549D01*
X404837Y312813D01*
X404317Y311912D01*
X404047Y310907D01*
Y310886D01*
X407500D01*
Y314339D01*
D02*
G37*
G36*
X431953D02*
X424047D01*
Y306433D01*
X431953D01*
Y314339D01*
D02*
G37*
G36*
X418520D02*
X417480D01*
X416474Y314070D01*
X415573Y313549D01*
X414837Y312813D01*
X414317Y311912D01*
X414047Y310907D01*
Y309866D01*
X414317Y308860D01*
X414837Y307959D01*
X415573Y307223D01*
X416474Y306703D01*
X417480Y306433D01*
X418520D01*
X419526Y306703D01*
X420427Y307223D01*
X421163Y307959D01*
X421683Y308860D01*
X421953Y309866D01*
Y310907D01*
X421683Y311912D01*
X421163Y312813D01*
X420427Y313549D01*
X419526Y314070D01*
X418520Y314339D01*
D02*
G37*
G36*
X411953Y309886D02*
X408500D01*
Y306433D01*
X408520D01*
X409526Y306703D01*
X410427Y307223D01*
X411163Y307959D01*
X411683Y308860D01*
X411953Y309866D01*
Y309886D01*
D02*
G37*
G36*
X407500D02*
X404047D01*
Y309866D01*
X404317Y308860D01*
X404837Y307959D01*
X405573Y307223D01*
X406474Y306703D01*
X407480Y306433D01*
X407500D01*
Y309886D01*
D02*
G37*
G36*
X473895Y307984D02*
X473105D01*
X472376Y307682D01*
X471818Y307124D01*
X471516Y306395D01*
Y305605D01*
X471818Y304876D01*
X472376Y304318D01*
X473105Y304016D01*
X473895D01*
X474624Y304318D01*
X475182Y304876D01*
X475484Y305605D01*
Y306395D01*
X475182Y307124D01*
X474624Y307682D01*
X473895Y307984D01*
D02*
G37*
G36*
X408520Y302269D02*
X408500D01*
Y298816D01*
X411953D01*
Y298836D01*
X411683Y299841D01*
X411163Y300743D01*
X410427Y301479D01*
X409526Y301999D01*
X408520Y302269D01*
D02*
G37*
G36*
X407500D02*
X407480D01*
X406474Y301999D01*
X405573Y301479D01*
X404837Y300743D01*
X404317Y299841D01*
X404047Y298836D01*
Y298816D01*
X407500D01*
Y302269D01*
D02*
G37*
G36*
X431953D02*
X424047D01*
Y294363D01*
X431953D01*
Y302269D01*
D02*
G37*
G36*
X418520D02*
X417480D01*
X416474Y301999D01*
X415573Y301479D01*
X414837Y300743D01*
X414317Y299841D01*
X414047Y298836D01*
Y297795D01*
X414317Y296790D01*
X414837Y295889D01*
X415573Y295153D01*
X416474Y294632D01*
X417480Y294363D01*
X418520D01*
X419526Y294632D01*
X420427Y295153D01*
X421163Y295889D01*
X421683Y296790D01*
X421953Y297795D01*
Y298836D01*
X421683Y299841D01*
X421163Y300743D01*
X420427Y301479D01*
X419526Y301999D01*
X418520Y302269D01*
D02*
G37*
G36*
X411953Y297816D02*
X408500D01*
Y294363D01*
X408520D01*
X409526Y294632D01*
X410427Y295153D01*
X411163Y295889D01*
X411683Y296790D01*
X411953Y297795D01*
Y297816D01*
D02*
G37*
G36*
X407500D02*
X404047D01*
Y297795D01*
X404317Y296790D01*
X404837Y295889D01*
X405573Y295153D01*
X406474Y294632D01*
X407480Y294363D01*
X407500D01*
Y297816D01*
D02*
G37*
G36*
X408520Y290453D02*
X408500D01*
Y287000D01*
X411953D01*
Y287020D01*
X411683Y288026D01*
X411163Y288927D01*
X410427Y289663D01*
X409526Y290183D01*
X408520Y290453D01*
D02*
G37*
G36*
X407500D02*
X407480D01*
X406474Y290183D01*
X405573Y289663D01*
X404837Y288927D01*
X404317Y288026D01*
X404047Y287020D01*
Y287000D01*
X407500D01*
Y290453D01*
D02*
G37*
G36*
X473520Y286953D02*
X473500D01*
Y283500D01*
X476953D01*
Y283520D01*
X476683Y284526D01*
X476163Y285427D01*
X475427Y286163D01*
X474526Y286683D01*
X473520Y286953D01*
D02*
G37*
G36*
X472500D02*
X472480D01*
X471474Y286683D01*
X470573Y286163D01*
X469837Y285427D01*
X469317Y284526D01*
X469047Y283520D01*
Y283500D01*
X472500D01*
Y286953D01*
D02*
G37*
G36*
X431953Y290453D02*
X424047D01*
Y282547D01*
X431953D01*
Y290453D01*
D02*
G37*
G36*
X418520D02*
X417480D01*
X416474Y290183D01*
X415573Y289663D01*
X414837Y288927D01*
X414317Y288026D01*
X414047Y287020D01*
Y285980D01*
X414317Y284974D01*
X414837Y284073D01*
X415573Y283337D01*
X416474Y282817D01*
X417480Y282547D01*
X418520D01*
X419526Y282817D01*
X420427Y283337D01*
X421163Y284073D01*
X421683Y284974D01*
X421953Y285980D01*
Y287020D01*
X421683Y288026D01*
X421163Y288927D01*
X420427Y289663D01*
X419526Y290183D01*
X418520Y290453D01*
D02*
G37*
G36*
X411953Y286000D02*
X408500D01*
Y282547D01*
X408520D01*
X409526Y282817D01*
X410427Y283337D01*
X411163Y284073D01*
X411683Y284974D01*
X411953Y285980D01*
Y286000D01*
D02*
G37*
G36*
X407500D02*
X404047D01*
Y285980D01*
X404317Y284974D01*
X404837Y284073D01*
X405573Y283337D01*
X406474Y282817D01*
X407480Y282547D01*
X407500D01*
Y286000D01*
D02*
G37*
G36*
X480395Y286484D02*
X479605D01*
X478876Y286182D01*
X478318Y285624D01*
X478016Y284895D01*
Y284105D01*
X478318Y283376D01*
X478876Y282818D01*
X479605Y282516D01*
X480395D01*
X481124Y282818D01*
X481682Y283376D01*
X481984Y284105D01*
Y284895D01*
X481682Y285624D01*
X481124Y286182D01*
X480395Y286484D01*
D02*
G37*
G36*
X476953Y282500D02*
X473500D01*
Y279047D01*
X473520D01*
X474526Y279317D01*
X475427Y279837D01*
X476163Y280573D01*
X476683Y281474D01*
X476953Y282480D01*
Y282500D01*
D02*
G37*
G36*
X472500D02*
X469047D01*
Y282480D01*
X469317Y281474D01*
X469837Y280573D01*
X470573Y279837D01*
X471474Y279317D01*
X472480Y279047D01*
X472500D01*
Y282500D01*
D02*
G37*
G36*
X463520Y286953D02*
X462480D01*
X461474Y286683D01*
X460573Y286163D01*
X459837Y285427D01*
X459317Y284526D01*
X459047Y283520D01*
Y282480D01*
X459317Y281474D01*
X459837Y280573D01*
X460573Y279837D01*
X461474Y279317D01*
X462480Y279047D01*
X463520D01*
X464526Y279317D01*
X465427Y279837D01*
X466163Y280573D01*
X466683Y281474D01*
X466953Y282480D01*
Y283520D01*
X466683Y284526D01*
X466163Y285427D01*
X465427Y286163D01*
X464526Y286683D01*
X463520Y286953D01*
D02*
G37*
G36*
X504895Y280984D02*
X504105D01*
X503376Y280682D01*
X502818Y280124D01*
X502516Y279395D01*
Y278605D01*
X502818Y277876D01*
X503376Y277318D01*
X504105Y277016D01*
X504895D01*
X505624Y277318D01*
X506182Y277876D01*
X506484Y278605D01*
Y279395D01*
X506182Y280124D01*
X505624Y280682D01*
X504895Y280984D01*
D02*
G37*
G36*
X521927Y276941D02*
Y275500D01*
X523368D01*
X523109Y276124D01*
X522551Y276682D01*
X521927Y276941D01*
D02*
G37*
G36*
X520927D02*
X520303Y276682D01*
X519745Y276124D01*
X519487Y275500D01*
X520927D01*
Y276941D01*
D02*
G37*
G36*
X523368Y274500D02*
X521927D01*
Y273059D01*
X522551Y273318D01*
X523109Y273876D01*
X523368Y274500D01*
D02*
G37*
G36*
X520927D02*
X519487D01*
X519745Y273876D01*
X520303Y273318D01*
X520927Y273059D01*
Y274500D01*
D02*
G37*
G36*
X569055Y279287D02*
X567756D01*
X566500Y278951D01*
X565374Y278301D01*
X564455Y277382D01*
X563805Y276256D01*
X563468Y275000D01*
Y273700D01*
X563805Y272445D01*
X564455Y271319D01*
X565374Y270400D01*
X566500Y269750D01*
X567756Y269413D01*
X569055D01*
X570311Y269750D01*
X571437Y270400D01*
X572356Y271319D01*
X573006Y272445D01*
X573343Y273700D01*
Y275000D01*
X573006Y276256D01*
X572356Y277382D01*
X571437Y278301D01*
X570311Y278951D01*
X569055Y279287D01*
D02*
G37*
G36*
X473520Y276953D02*
X472480D01*
X471474Y276683D01*
X470573Y276163D01*
X469837Y275427D01*
X469317Y274526D01*
X469047Y273520D01*
Y272480D01*
X469317Y271474D01*
X469837Y270573D01*
X470573Y269837D01*
X471474Y269317D01*
X472480Y269047D01*
X473520D01*
X474526Y269317D01*
X475427Y269837D01*
X476163Y270573D01*
X476683Y271474D01*
X476953Y272480D01*
Y273520D01*
X476683Y274526D01*
X476163Y275427D01*
X475427Y276163D01*
X474526Y276683D01*
X473520Y276953D01*
D02*
G37*
G36*
X463520D02*
X462480D01*
X461474Y276683D01*
X460573Y276163D01*
X459837Y275427D01*
X459317Y274526D01*
X459047Y273520D01*
Y272480D01*
X459317Y271474D01*
X459837Y270573D01*
X460573Y269837D01*
X461474Y269317D01*
X462480Y269047D01*
X463520D01*
X464526Y269317D01*
X465427Y269837D01*
X466163Y270573D01*
X466683Y271474D01*
X466953Y272480D01*
Y273520D01*
X466683Y274526D01*
X466163Y275427D01*
X465427Y276163D01*
X464526Y276683D01*
X463520Y276953D01*
D02*
G37*
G36*
X492395Y270484D02*
X491605D01*
X490876Y270182D01*
X490318Y269624D01*
X490016Y268895D01*
Y268105D01*
X490318Y267376D01*
X490876Y266818D01*
X491605Y266516D01*
X492395D01*
X493124Y266818D01*
X493682Y267376D01*
X493984Y268105D01*
Y268895D01*
X493682Y269624D01*
X493124Y270182D01*
X492395Y270484D01*
D02*
G37*
G36*
X554211Y270941D02*
X553222D01*
X552267Y270685D01*
X551410Y270191D01*
X550711Y269491D01*
X550217Y268635D01*
X549961Y267680D01*
Y266691D01*
X550217Y265735D01*
X550711Y264879D01*
X551410Y264180D01*
X552267Y263685D01*
X553222Y263429D01*
X554211D01*
X555166Y263685D01*
X556023Y264180D01*
X556722Y264879D01*
X557217Y265735D01*
X557472Y266691D01*
Y267680D01*
X557217Y268635D01*
X556722Y269491D01*
X556023Y270191D01*
X555166Y270685D01*
X554211Y270941D01*
D02*
G37*
G36*
X473520Y266953D02*
X472480D01*
X471474Y266683D01*
X470573Y266163D01*
X469837Y265427D01*
X469317Y264526D01*
X469047Y263520D01*
Y262480D01*
X469317Y261474D01*
X469837Y260573D01*
X470573Y259837D01*
X471474Y259317D01*
X472480Y259047D01*
X473520D01*
X474526Y259317D01*
X475427Y259837D01*
X476163Y260573D01*
X476683Y261474D01*
X476953Y262480D01*
Y263520D01*
X476683Y264526D01*
X476163Y265427D01*
X475427Y266163D01*
X474526Y266683D01*
X473520Y266953D01*
D02*
G37*
G36*
X463520D02*
X462480D01*
X461474Y266683D01*
X460573Y266163D01*
X459837Y265427D01*
X459317Y264526D01*
X459047Y263520D01*
Y262480D01*
X459317Y261474D01*
X459837Y260573D01*
X460573Y259837D01*
X461474Y259317D01*
X462480Y259047D01*
X463520D01*
X464526Y259317D01*
X465427Y259837D01*
X466163Y260573D01*
X466683Y261474D01*
X466953Y262480D01*
Y263520D01*
X466683Y264526D01*
X466163Y265427D01*
X465427Y266163D01*
X464526Y266683D01*
X463520Y266953D01*
D02*
G37*
G36*
X523395Y260984D02*
X522605D01*
X521876Y260682D01*
X521318Y260124D01*
X521016Y259395D01*
Y258605D01*
X521318Y257876D01*
X521876Y257318D01*
X522605Y257016D01*
X523395D01*
X524124Y257318D01*
X524682Y257876D01*
X524984Y258605D01*
Y259395D01*
X524682Y260124D01*
X524124Y260682D01*
X523395Y260984D01*
D02*
G37*
G36*
X463520Y256953D02*
X463500D01*
Y253500D01*
X466953D01*
Y253520D01*
X466683Y254526D01*
X466163Y255427D01*
X465427Y256163D01*
X464526Y256683D01*
X463520Y256953D01*
D02*
G37*
G36*
X462500D02*
X462480D01*
X461474Y256683D01*
X460573Y256163D01*
X459837Y255427D01*
X459317Y254526D01*
X459047Y253520D01*
Y253500D01*
X462500D01*
Y256953D01*
D02*
G37*
G36*
X432585Y252988D02*
X405026D01*
X404970Y252977D01*
X404912Y252982D01*
X402722Y252735D01*
X402613Y252700D01*
X402499Y252684D01*
X400419Y251956D01*
X400320Y251898D01*
X400213Y251857D01*
X398347Y250684D01*
X398264Y250606D01*
X398169Y250542D01*
X396610Y248984D01*
X396547Y248888D01*
X396468Y248805D01*
X395295Y246939D01*
X395254Y246832D01*
X395196Y246733D01*
X394468Y244653D01*
X394452Y244539D01*
X394418Y244430D01*
X394171Y242240D01*
X394176Y242183D01*
X394164Y242126D01*
Y151575D01*
X394176Y151518D01*
X394171Y151461D01*
X394418Y149270D01*
X394452Y149161D01*
X394468Y149048D01*
X395196Y146967D01*
X395254Y146869D01*
X395295Y146762D01*
X396468Y144896D01*
X396547Y144812D01*
X396610Y144717D01*
X398169Y143159D01*
X398264Y143095D01*
X398347Y143016D01*
X400213Y141844D01*
X400320Y141803D01*
X400419Y141745D01*
X402499Y141017D01*
X402613Y141001D01*
X402722Y140966D01*
X404912Y140719D01*
X404970Y140724D01*
X405026Y140713D01*
X432585D01*
X432642Y140724D01*
X432700Y140719D01*
X434890Y140966D01*
X434999Y141001D01*
X435112Y141017D01*
X437193Y141745D01*
X437291Y141803D01*
X437398Y141844D01*
X439265Y143016D01*
X439348Y143095D01*
X439443Y143159D01*
X441002Y144717D01*
X441065Y144812D01*
X441144Y144896D01*
X442317Y146762D01*
X442357Y146869D01*
X442416Y146967D01*
X443144Y149048D01*
X443160Y149161D01*
X443194Y149270D01*
X443441Y151461D01*
X443436Y151518D01*
X443447Y151575D01*
Y242126D01*
X443436Y242183D01*
X443441Y242240D01*
X443194Y244430D01*
X443160Y244539D01*
X443144Y244653D01*
X442416Y246733D01*
X442357Y246832D01*
X442317Y246939D01*
X441144Y248805D01*
X441065Y248888D01*
X441002Y248984D01*
X439443Y250542D01*
X439348Y250606D01*
X439265Y250684D01*
X437398Y251857D01*
X437291Y251898D01*
X437193Y251956D01*
X435112Y252684D01*
X434999Y252700D01*
X434890Y252735D01*
X432700Y252982D01*
X432642Y252977D01*
X432585Y252988D01*
D02*
G37*
G36*
X517395Y255484D02*
X516605D01*
X515876Y255182D01*
X515318Y254624D01*
X515016Y253895D01*
Y253105D01*
X515318Y252376D01*
X515876Y251818D01*
X516605Y251516D01*
X517395D01*
X518124Y251818D01*
X518682Y252376D01*
X518984Y253105D01*
Y253895D01*
X518682Y254624D01*
X518124Y255182D01*
X517395Y255484D01*
D02*
G37*
G36*
X473520Y256953D02*
X472480D01*
X471474Y256683D01*
X470573Y256163D01*
X469837Y255427D01*
X469317Y254526D01*
X469047Y253520D01*
Y252480D01*
X469317Y251474D01*
X469837Y250573D01*
X470573Y249837D01*
X471474Y249317D01*
X472480Y249047D01*
X473520D01*
X474526Y249317D01*
X475427Y249837D01*
X476163Y250573D01*
X476683Y251474D01*
X476953Y252480D01*
Y253520D01*
X476683Y254526D01*
X476163Y255427D01*
X475427Y256163D01*
X474526Y256683D01*
X473520Y256953D01*
D02*
G37*
G36*
X466953Y252500D02*
X463500D01*
Y249047D01*
X463520D01*
X464526Y249317D01*
X465427Y249837D01*
X466163Y250573D01*
X466683Y251474D01*
X466953Y252480D01*
Y252500D01*
D02*
G37*
G36*
X462500D02*
X459047D01*
Y252480D01*
X459317Y251474D01*
X459837Y250573D01*
X460573Y249837D01*
X461474Y249317D01*
X462480Y249047D01*
X462500D01*
Y252500D01*
D02*
G37*
G36*
X473520Y246953D02*
X472480D01*
X471474Y246683D01*
X470573Y246163D01*
X469837Y245427D01*
X469317Y244526D01*
X469047Y243520D01*
Y242480D01*
X469317Y241474D01*
X469837Y240573D01*
X470573Y239837D01*
X471474Y239317D01*
X472480Y239047D01*
X473520D01*
X474526Y239317D01*
X475427Y239837D01*
X476163Y240573D01*
X476683Y241474D01*
X476953Y242480D01*
Y243520D01*
X476683Y244526D01*
X476163Y245427D01*
X475427Y246163D01*
X474526Y246683D01*
X473520Y246953D01*
D02*
G37*
G36*
X463520D02*
X462480D01*
X461474Y246683D01*
X460573Y246163D01*
X459837Y245427D01*
X459317Y244526D01*
X459047Y243520D01*
Y242480D01*
X459317Y241474D01*
X459837Y240573D01*
X460573Y239837D01*
X461474Y239317D01*
X462480Y239047D01*
X463520D01*
X464526Y239317D01*
X465427Y239837D01*
X466163Y240573D01*
X466683Y241474D01*
X466953Y242480D01*
Y243520D01*
X466683Y244526D01*
X466163Y245427D01*
X465427Y246163D01*
X464526Y246683D01*
X463520Y246953D01*
D02*
G37*
G36*
X485500Y239441D02*
Y238000D01*
X486941D01*
X486682Y238624D01*
X486124Y239182D01*
X485500Y239441D01*
D02*
G37*
G36*
X484500D02*
X483876Y239182D01*
X483318Y238624D01*
X483059Y238000D01*
X484500D01*
Y239441D01*
D02*
G37*
G36*
X523395Y239984D02*
X522605D01*
X521876Y239682D01*
X521318Y239124D01*
X521016Y238395D01*
Y237605D01*
X521318Y236876D01*
X521876Y236318D01*
X522605Y236016D01*
X523395D01*
X524124Y236318D01*
X524682Y236876D01*
X524984Y237605D01*
Y238395D01*
X524682Y239124D01*
X524124Y239682D01*
X523395Y239984D01*
D02*
G37*
G36*
X486941Y237000D02*
X485500D01*
Y235559D01*
X486124Y235818D01*
X486682Y236376D01*
X486941Y237000D01*
D02*
G37*
G36*
X484500D02*
X483059D01*
X483318Y236376D01*
X483876Y235818D01*
X484500Y235559D01*
Y237000D01*
D02*
G37*
G36*
X511895Y239484D02*
X511105D01*
X510376Y239182D01*
X509818Y238624D01*
X509516Y237895D01*
Y237105D01*
X509818Y236376D01*
X510376Y235818D01*
X511105Y235516D01*
X511895D01*
X512624Y235818D01*
X513182Y236376D01*
X513484Y237105D01*
Y237895D01*
X513182Y238624D01*
X512624Y239182D01*
X511895Y239484D01*
D02*
G37*
G36*
X463520Y236953D02*
X463500D01*
Y233500D01*
X466953D01*
Y233520D01*
X466683Y234526D01*
X466163Y235427D01*
X465427Y236163D01*
X464526Y236683D01*
X463520Y236953D01*
D02*
G37*
G36*
X462500D02*
X462480D01*
X461474Y236683D01*
X460573Y236163D01*
X459837Y235427D01*
X459317Y234526D01*
X459047Y233520D01*
Y233500D01*
X462500D01*
Y236953D01*
D02*
G37*
G36*
X473520D02*
X472480D01*
X471474Y236683D01*
X470573Y236163D01*
X469837Y235427D01*
X469317Y234526D01*
X469047Y233520D01*
Y232480D01*
X469317Y231474D01*
X469837Y230573D01*
X470573Y229837D01*
X471474Y229317D01*
X472480Y229047D01*
X473520D01*
X474526Y229317D01*
X475427Y229837D01*
X476163Y230573D01*
X476683Y231474D01*
X476953Y232480D01*
Y233520D01*
X476683Y234526D01*
X476163Y235427D01*
X475427Y236163D01*
X474526Y236683D01*
X473520Y236953D01*
D02*
G37*
G36*
X466953Y232500D02*
X463500D01*
Y229047D01*
X463520D01*
X464526Y229317D01*
X465427Y229837D01*
X466163Y230573D01*
X466683Y231474D01*
X466953Y232480D01*
Y232500D01*
D02*
G37*
G36*
X462500D02*
X459047D01*
Y232480D01*
X459317Y231474D01*
X459837Y230573D01*
X460573Y229837D01*
X461474Y229317D01*
X462480Y229047D01*
X462500D01*
Y232500D01*
D02*
G37*
G36*
X473520Y226953D02*
X472480D01*
X471474Y226683D01*
X470573Y226163D01*
X469837Y225427D01*
X469317Y224526D01*
X469047Y223520D01*
Y222480D01*
X469317Y221474D01*
X469837Y220573D01*
X470573Y219837D01*
X471474Y219317D01*
X472480Y219047D01*
X473520D01*
X474526Y219317D01*
X475427Y219837D01*
X476163Y220573D01*
X476683Y221474D01*
X476953Y222480D01*
Y223520D01*
X476683Y224526D01*
X476163Y225427D01*
X475427Y226163D01*
X474526Y226683D01*
X473520Y226953D01*
D02*
G37*
G36*
X463520D02*
X462480D01*
X461474Y226683D01*
X460573Y226163D01*
X459837Y225427D01*
X459317Y224526D01*
X459047Y223520D01*
Y222480D01*
X459317Y221474D01*
X459837Y220573D01*
X460573Y219837D01*
X461474Y219317D01*
X462480Y219047D01*
X463520D01*
X464526Y219317D01*
X465427Y219837D01*
X466163Y220573D01*
X466683Y221474D01*
X466953Y222480D01*
Y223520D01*
X466683Y224526D01*
X466163Y225427D01*
X465427Y226163D01*
X464526Y226683D01*
X463520Y226953D01*
D02*
G37*
G36*
X518395Y222484D02*
X517605D01*
X516876Y222182D01*
X516318Y221624D01*
X516016Y220895D01*
Y220105D01*
X516318Y219376D01*
X516876Y218818D01*
X517605Y218516D01*
X518395D01*
X519124Y218818D01*
X519682Y219376D01*
X519984Y220105D01*
Y220895D01*
X519682Y221624D01*
X519124Y222182D01*
X518395Y222484D01*
D02*
G37*
G36*
X504895D02*
X504105D01*
X503376Y222182D01*
X502818Y221624D01*
X502516Y220895D01*
Y220105D01*
X502818Y219376D01*
X503376Y218818D01*
X504105Y218516D01*
X504895D01*
X505624Y218818D01*
X506182Y219376D01*
X506484Y220105D01*
Y220895D01*
X506182Y221624D01*
X505624Y222182D01*
X504895Y222484D01*
D02*
G37*
G36*
X497395Y219984D02*
X496605D01*
X495876Y219682D01*
X495318Y219124D01*
X495016Y218395D01*
Y217605D01*
X495318Y216876D01*
X495876Y216318D01*
X496605Y216016D01*
X497395D01*
X498124Y216318D01*
X498682Y216876D01*
X498984Y217605D01*
Y218395D01*
X498682Y219124D01*
X498124Y219682D01*
X497395Y219984D01*
D02*
G37*
G36*
X473520Y216953D02*
X473500D01*
Y213500D01*
X476953D01*
Y213520D01*
X476683Y214526D01*
X476163Y215427D01*
X475427Y216163D01*
X474526Y216683D01*
X473520Y216953D01*
D02*
G37*
G36*
X472500D02*
X472480D01*
X471474Y216683D01*
X470573Y216163D01*
X469837Y215427D01*
X469317Y214526D01*
X469047Y213520D01*
Y213500D01*
X472500D01*
Y216953D01*
D02*
G37*
G36*
X485652Y213093D02*
Y211652D01*
X487093D01*
X486834Y212276D01*
X486276Y212834D01*
X485652Y213093D01*
D02*
G37*
G36*
X484652D02*
X484028Y212834D01*
X483470Y212276D01*
X483212Y211652D01*
X484652D01*
Y213093D01*
D02*
G37*
G36*
X520500Y211941D02*
Y210500D01*
X521941D01*
X521682Y211124D01*
X521124Y211682D01*
X520500Y211941D01*
D02*
G37*
G36*
X519500D02*
X518876Y211682D01*
X518318Y211124D01*
X518059Y210500D01*
X519500D01*
Y211941D01*
D02*
G37*
G36*
X487093Y210652D02*
X485652D01*
Y209211D01*
X486276Y209470D01*
X486834Y210028D01*
X487093Y210652D01*
D02*
G37*
G36*
X484652D02*
X483212D01*
X483470Y210028D01*
X484028Y209470D01*
X484652Y209211D01*
Y210652D01*
D02*
G37*
G36*
X476953Y212500D02*
X473500D01*
Y209047D01*
X473520D01*
X474526Y209317D01*
X475427Y209837D01*
X476163Y210573D01*
X476683Y211474D01*
X476953Y212480D01*
Y212500D01*
D02*
G37*
G36*
X472500D02*
X469047D01*
Y212480D01*
X469317Y211474D01*
X469837Y210573D01*
X470573Y209837D01*
X471474Y209317D01*
X472480Y209047D01*
X472500D01*
Y212500D01*
D02*
G37*
G36*
X463520Y216953D02*
X462480D01*
X461474Y216683D01*
X460573Y216163D01*
X459837Y215427D01*
X459317Y214526D01*
X459047Y213520D01*
Y212480D01*
X459317Y211474D01*
X459837Y210573D01*
X460573Y209837D01*
X461474Y209317D01*
X462480Y209047D01*
X463520D01*
X464526Y209317D01*
X465427Y209837D01*
X466163Y210573D01*
X466683Y211474D01*
X466953Y212480D01*
Y213520D01*
X466683Y214526D01*
X466163Y215427D01*
X465427Y216163D01*
X464526Y216683D01*
X463520Y216953D01*
D02*
G37*
G36*
X521941Y209500D02*
X520500D01*
Y208059D01*
X521124Y208318D01*
X521682Y208876D01*
X521941Y209500D01*
D02*
G37*
G36*
X519500D02*
X518059D01*
X518318Y208876D01*
X518876Y208318D01*
X519500Y208059D01*
Y209500D01*
D02*
G37*
G36*
X473520Y206953D02*
X472480D01*
X471474Y206683D01*
X470573Y206163D01*
X469837Y205427D01*
X469317Y204526D01*
X469047Y203520D01*
Y202480D01*
X469317Y201474D01*
X469837Y200573D01*
X470573Y199837D01*
X471474Y199317D01*
X472480Y199047D01*
X473520D01*
X474526Y199317D01*
X475427Y199837D01*
X476163Y200573D01*
X476683Y201474D01*
X476953Y202480D01*
Y203520D01*
X476683Y204526D01*
X476163Y205427D01*
X475427Y206163D01*
X474526Y206683D01*
X473520Y206953D01*
D02*
G37*
G36*
X463520D02*
X462480D01*
X461474Y206683D01*
X460573Y206163D01*
X459837Y205427D01*
X459317Y204526D01*
X459047Y203520D01*
Y202480D01*
X459317Y201474D01*
X459837Y200573D01*
X460573Y199837D01*
X461474Y199317D01*
X462480Y199047D01*
X463520D01*
X464526Y199317D01*
X465427Y199837D01*
X466163Y200573D01*
X466683Y201474D01*
X466953Y202480D01*
Y203520D01*
X466683Y204526D01*
X466163Y205427D01*
X465427Y206163D01*
X464526Y206683D01*
X463520Y206953D01*
D02*
G37*
G36*
X528795Y195884D02*
X528005D01*
X527276Y195582D01*
X526718Y195024D01*
X526416Y194295D01*
Y193505D01*
X526718Y192776D01*
X527276Y192218D01*
X528005Y191916D01*
X528795D01*
X529524Y192218D01*
X530082Y192776D01*
X530384Y193505D01*
Y194295D01*
X530082Y195024D01*
X529524Y195582D01*
X528795Y195884D01*
D02*
G37*
G36*
X489500Y191441D02*
Y190000D01*
X490941D01*
X490682Y190624D01*
X490124Y191182D01*
X489500Y191441D01*
D02*
G37*
G36*
X488500D02*
X487876Y191182D01*
X487318Y190624D01*
X487059Y190000D01*
X488500D01*
Y191441D01*
D02*
G37*
G36*
X473520Y196953D02*
X472480D01*
X471474Y196683D01*
X470573Y196163D01*
X469837Y195427D01*
X469317Y194526D01*
X469047Y193520D01*
Y192480D01*
X469317Y191474D01*
X469837Y190573D01*
X470573Y189837D01*
X471474Y189317D01*
X472480Y189047D01*
X473520D01*
X474526Y189317D01*
X475427Y189837D01*
X476163Y190573D01*
X476683Y191474D01*
X476953Y192480D01*
Y193520D01*
X476683Y194526D01*
X476163Y195427D01*
X475427Y196163D01*
X474526Y196683D01*
X473520Y196953D01*
D02*
G37*
G36*
X463520D02*
X462480D01*
X461474Y196683D01*
X460573Y196163D01*
X459837Y195427D01*
X459317Y194526D01*
X459047Y193520D01*
Y192480D01*
X459317Y191474D01*
X459837Y190573D01*
X460573Y189837D01*
X461474Y189317D01*
X462480Y189047D01*
X463520D01*
X464526Y189317D01*
X465427Y189837D01*
X466163Y190573D01*
X466683Y191474D01*
X466953Y192480D01*
Y193520D01*
X466683Y194526D01*
X466163Y195427D01*
X465427Y196163D01*
X464526Y196683D01*
X463520Y196953D01*
D02*
G37*
G36*
X504395Y192984D02*
X503605D01*
X502876Y192682D01*
X502318Y192124D01*
X502016Y191395D01*
Y190605D01*
X502318Y189876D01*
X502876Y189318D01*
X503605Y189016D01*
X504395D01*
X505124Y189318D01*
X505682Y189876D01*
X505984Y190605D01*
Y191395D01*
X505682Y192124D01*
X505124Y192682D01*
X504395Y192984D01*
D02*
G37*
G36*
X490941Y189000D02*
X489500D01*
Y187559D01*
X490124Y187818D01*
X490682Y188376D01*
X490941Y189000D01*
D02*
G37*
G36*
X488500D02*
X487059D01*
X487318Y188376D01*
X487876Y187818D01*
X488500Y187559D01*
Y189000D01*
D02*
G37*
G36*
X463520Y186953D02*
X463500D01*
Y183500D01*
X466953D01*
Y183520D01*
X466683Y184526D01*
X466163Y185427D01*
X465427Y186163D01*
X464526Y186683D01*
X463520Y186953D01*
D02*
G37*
G36*
X462500D02*
X462480D01*
X461474Y186683D01*
X460573Y186163D01*
X459837Y185427D01*
X459317Y184526D01*
X459047Y183520D01*
Y183500D01*
X462500D01*
Y186953D01*
D02*
G37*
G36*
X473520D02*
X472480D01*
X471474Y186683D01*
X470573Y186163D01*
X469837Y185427D01*
X469317Y184526D01*
X469047Y183520D01*
Y182480D01*
X469317Y181474D01*
X469837Y180573D01*
X470573Y179837D01*
X471474Y179317D01*
X472480Y179047D01*
X473520D01*
X474526Y179317D01*
X475427Y179837D01*
X476163Y180573D01*
X476683Y181474D01*
X476953Y182480D01*
Y183520D01*
X476683Y184526D01*
X476163Y185427D01*
X475427Y186163D01*
X474526Y186683D01*
X473520Y186953D01*
D02*
G37*
G36*
X466953Y182500D02*
X463500D01*
Y179047D01*
X463520D01*
X464526Y179317D01*
X465427Y179837D01*
X466163Y180573D01*
X466683Y181474D01*
X466953Y182480D01*
Y182500D01*
D02*
G37*
G36*
X462500D02*
X459047D01*
Y182480D01*
X459317Y181474D01*
X459837Y180573D01*
X460573Y179837D01*
X461474Y179317D01*
X462480Y179047D01*
X462500D01*
Y182500D01*
D02*
G37*
G36*
X473520Y176953D02*
X472480D01*
X471474Y176683D01*
X470573Y176163D01*
X469837Y175427D01*
X469317Y174526D01*
X469047Y173520D01*
Y172480D01*
X469317Y171474D01*
X469837Y170573D01*
X470573Y169837D01*
X471474Y169317D01*
X472480Y169047D01*
X473520D01*
X474526Y169317D01*
X475427Y169837D01*
X476163Y170573D01*
X476683Y171474D01*
X476953Y172480D01*
Y173520D01*
X476683Y174526D01*
X476163Y175427D01*
X475427Y176163D01*
X474526Y176683D01*
X473520Y176953D01*
D02*
G37*
G36*
X463520D02*
X462480D01*
X461474Y176683D01*
X460573Y176163D01*
X459837Y175427D01*
X459317Y174526D01*
X459047Y173520D01*
Y172480D01*
X459317Y171474D01*
X459837Y170573D01*
X460573Y169837D01*
X461474Y169317D01*
X462480Y169047D01*
X463520D01*
X464526Y169317D01*
X465427Y169837D01*
X466163Y170573D01*
X466683Y171474D01*
X466953Y172480D01*
Y173520D01*
X466683Y174526D01*
X466163Y175427D01*
X465427Y176163D01*
X464526Y176683D01*
X463520Y176953D01*
D02*
G37*
G36*
X520500Y167441D02*
Y166000D01*
X521941D01*
X521682Y166624D01*
X521124Y167182D01*
X520500Y167441D01*
D02*
G37*
G36*
X519500D02*
X518876Y167182D01*
X518318Y166624D01*
X518059Y166000D01*
X519500D01*
Y167441D01*
D02*
G37*
G36*
X521941Y165000D02*
X520500D01*
Y163559D01*
X521124Y163818D01*
X521682Y164376D01*
X521941Y165000D01*
D02*
G37*
G36*
X519500D02*
X518059D01*
X518318Y164376D01*
X518876Y163818D01*
X519500Y163559D01*
Y165000D01*
D02*
G37*
G36*
X489895Y164984D02*
X489105D01*
X488376Y164682D01*
X487818Y164124D01*
X487516Y163395D01*
Y162605D01*
X487818Y161876D01*
X488376Y161318D01*
X489105Y161016D01*
X489895D01*
X490624Y161318D01*
X491182Y161876D01*
X491484Y162605D01*
Y163395D01*
X491182Y164124D01*
X490624Y164682D01*
X489895Y164984D01*
D02*
G37*
G36*
X473520Y166953D02*
X472480D01*
X471474Y166683D01*
X470573Y166163D01*
X469837Y165427D01*
X469317Y164526D01*
X469047Y163520D01*
Y162480D01*
X469317Y161474D01*
X469837Y160573D01*
X470573Y159837D01*
X471474Y159317D01*
X472480Y159047D01*
X473520D01*
X474526Y159317D01*
X475427Y159837D01*
X476163Y160573D01*
X476683Y161474D01*
X476953Y162480D01*
Y163520D01*
X476683Y164526D01*
X476163Y165427D01*
X475427Y166163D01*
X474526Y166683D01*
X473520Y166953D01*
D02*
G37*
G36*
X463520D02*
X462480D01*
X461474Y166683D01*
X460573Y166163D01*
X459837Y165427D01*
X459317Y164526D01*
X459047Y163520D01*
Y162480D01*
X459317Y161474D01*
X459837Y160573D01*
X460573Y159837D01*
X461474Y159317D01*
X462480Y159047D01*
X463520D01*
X464526Y159317D01*
X465427Y159837D01*
X466163Y160573D01*
X466683Y161474D01*
X466953Y162480D01*
Y163520D01*
X466683Y164526D01*
X466163Y165427D01*
X465427Y166163D01*
X464526Y166683D01*
X463520Y166953D01*
D02*
G37*
G36*
X492395Y158484D02*
X491605D01*
X490876Y158182D01*
X490318Y157624D01*
X490016Y156895D01*
Y156105D01*
X490318Y155376D01*
X490876Y154818D01*
X491605Y154516D01*
X492395D01*
X493124Y154818D01*
X493682Y155376D01*
X493984Y156105D01*
Y156895D01*
X493682Y157624D01*
X493124Y158182D01*
X492395Y158484D01*
D02*
G37*
G36*
X463520Y156953D02*
X463500D01*
Y153500D01*
X466953D01*
Y153520D01*
X466683Y154526D01*
X466163Y155427D01*
X465427Y156163D01*
X464526Y156683D01*
X463520Y156953D01*
D02*
G37*
G36*
X462500D02*
X462480D01*
X461474Y156683D01*
X460573Y156163D01*
X459837Y155427D01*
X459317Y154526D01*
X459047Y153520D01*
Y153500D01*
X462500D01*
Y156953D01*
D02*
G37*
G36*
X473520D02*
X472480D01*
X471474Y156683D01*
X470573Y156163D01*
X469837Y155427D01*
X469317Y154526D01*
X469047Y153520D01*
Y152480D01*
X469317Y151474D01*
X469837Y150573D01*
X470573Y149837D01*
X471474Y149317D01*
X472480Y149047D01*
X473520D01*
X474526Y149317D01*
X475427Y149837D01*
X476163Y150573D01*
X476683Y151474D01*
X476953Y152480D01*
Y153520D01*
X476683Y154526D01*
X476163Y155427D01*
X475427Y156163D01*
X474526Y156683D01*
X473520Y156953D01*
D02*
G37*
G36*
X466953Y152500D02*
X463500D01*
Y149047D01*
X463520D01*
X464526Y149317D01*
X465427Y149837D01*
X466163Y150573D01*
X466683Y151474D01*
X466953Y152480D01*
Y152500D01*
D02*
G37*
G36*
X462500D02*
X459047D01*
Y152480D01*
X459317Y151474D01*
X459837Y150573D01*
X460573Y149837D01*
X461474Y149317D01*
X462480Y149047D01*
X462500D01*
Y152500D01*
D02*
G37*
G36*
X491395Y151484D02*
X490605D01*
X489876Y151182D01*
X489318Y150624D01*
X489016Y149895D01*
Y149105D01*
X489318Y148376D01*
X489876Y147818D01*
X490605Y147516D01*
X491395D01*
X492124Y147818D01*
X492682Y148376D01*
X492984Y149105D01*
Y149895D01*
X492682Y150624D01*
X492124Y151182D01*
X491395Y151484D01*
D02*
G37*
G36*
X473520Y146953D02*
X472480D01*
X471474Y146683D01*
X470573Y146163D01*
X469837Y145427D01*
X469317Y144526D01*
X469047Y143520D01*
Y142480D01*
X469317Y141474D01*
X469837Y140573D01*
X470573Y139837D01*
X471474Y139317D01*
X472480Y139047D01*
X473520D01*
X474526Y139317D01*
X475427Y139837D01*
X476163Y140573D01*
X476683Y141474D01*
X476953Y142480D01*
Y143520D01*
X476683Y144526D01*
X476163Y145427D01*
X475427Y146163D01*
X474526Y146683D01*
X473520Y146953D01*
D02*
G37*
G36*
X463520D02*
X462480D01*
X461474Y146683D01*
X460573Y146163D01*
X459837Y145427D01*
X459317Y144526D01*
X459047Y143520D01*
Y142480D01*
X459317Y141474D01*
X459837Y140573D01*
X460573Y139837D01*
X461474Y139317D01*
X462480Y139047D01*
X463520D01*
X464526Y139317D01*
X465427Y139837D01*
X466163Y140573D01*
X466683Y141474D01*
X466953Y142480D01*
Y143520D01*
X466683Y144526D01*
X466163Y145427D01*
X465427Y146163D01*
X464526Y146683D01*
X463520Y146953D01*
D02*
G37*
G36*
X473520Y136953D02*
X473500D01*
Y133500D01*
X476953D01*
Y133520D01*
X476683Y134526D01*
X476163Y135427D01*
X475427Y136163D01*
X474526Y136683D01*
X473520Y136953D01*
D02*
G37*
G36*
X472500D02*
X472480D01*
X471474Y136683D01*
X470573Y136163D01*
X469837Y135427D01*
X469317Y134526D01*
X469047Y133520D01*
Y133500D01*
X472500D01*
Y136953D01*
D02*
G37*
G36*
X490395Y134484D02*
X489605D01*
X488876Y134182D01*
X488318Y133624D01*
X488016Y132895D01*
Y132105D01*
X488318Y131376D01*
X488876Y130818D01*
X489605Y130516D01*
X490395D01*
X491124Y130818D01*
X491682Y131376D01*
X491984Y132105D01*
Y132895D01*
X491682Y133624D01*
X491124Y134182D01*
X490395Y134484D01*
D02*
G37*
G36*
X516957Y130897D02*
Y129457D01*
X518397D01*
X518139Y130081D01*
X517581Y130639D01*
X516957Y130897D01*
D02*
G37*
G36*
X515957D02*
X515333Y130639D01*
X514775Y130081D01*
X514516Y129457D01*
X515957D01*
Y130897D01*
D02*
G37*
G36*
X476953Y132500D02*
X473500D01*
Y129047D01*
X473520D01*
X474526Y129317D01*
X475427Y129837D01*
X476163Y130573D01*
X476683Y131474D01*
X476953Y132480D01*
Y132500D01*
D02*
G37*
G36*
X472500D02*
X469047D01*
Y132480D01*
X469317Y131474D01*
X469837Y130573D01*
X470573Y129837D01*
X471474Y129317D01*
X472480Y129047D01*
X472500D01*
Y132500D01*
D02*
G37*
G36*
X463520Y136953D02*
X462480D01*
X461474Y136683D01*
X460573Y136163D01*
X459837Y135427D01*
X459317Y134526D01*
X459047Y133520D01*
Y132480D01*
X459317Y131474D01*
X459837Y130573D01*
X460573Y129837D01*
X461474Y129317D01*
X462480Y129047D01*
X463520D01*
X464526Y129317D01*
X465427Y129837D01*
X466163Y130573D01*
X466683Y131474D01*
X466953Y132480D01*
Y133520D01*
X466683Y134526D01*
X466163Y135427D01*
X465427Y136163D01*
X464526Y136683D01*
X463520Y136953D01*
D02*
G37*
G36*
X554211Y135508D02*
X553222D01*
X552267Y135252D01*
X551410Y134757D01*
X550711Y134058D01*
X550217Y133202D01*
X549961Y132246D01*
Y131257D01*
X550217Y130302D01*
X550711Y129446D01*
X551410Y128746D01*
X552267Y128252D01*
X553222Y127996D01*
X554211D01*
X555166Y128252D01*
X556023Y128746D01*
X556722Y129446D01*
X557217Y130302D01*
X557472Y131257D01*
Y132246D01*
X557217Y133202D01*
X556722Y134058D01*
X556023Y134757D01*
X555166Y135252D01*
X554211Y135508D01*
D02*
G37*
G36*
X518397Y128457D02*
X516957D01*
Y127016D01*
X517581Y127275D01*
X518139Y127833D01*
X518397Y128457D01*
D02*
G37*
G36*
X515957D02*
X514516D01*
X514775Y127833D01*
X515333Y127275D01*
X515957Y127016D01*
Y128457D01*
D02*
G37*
G36*
X506895Y130984D02*
X506105D01*
X505376Y130682D01*
X504818Y130124D01*
X504516Y129395D01*
Y128605D01*
X504818Y127876D01*
X505376Y127318D01*
X506105Y127016D01*
X506895D01*
X507624Y127318D01*
X508182Y127876D01*
X508484Y128605D01*
Y129395D01*
X508182Y130124D01*
X507624Y130682D01*
X506895Y130984D01*
D02*
G37*
G36*
X473520Y126953D02*
X472480D01*
X471474Y126683D01*
X470573Y126163D01*
X469837Y125427D01*
X469317Y124526D01*
X469047Y123520D01*
Y122480D01*
X469317Y121474D01*
X469837Y120573D01*
X470573Y119837D01*
X471474Y119317D01*
X472480Y119047D01*
X473520D01*
X474526Y119317D01*
X475427Y119837D01*
X476163Y120573D01*
X476683Y121474D01*
X476953Y122480D01*
Y123520D01*
X476683Y124526D01*
X476163Y125427D01*
X475427Y126163D01*
X474526Y126683D01*
X473520Y126953D01*
D02*
G37*
G36*
X463520D02*
X462480D01*
X461474Y126683D01*
X460573Y126163D01*
X459837Y125427D01*
X459317Y124526D01*
X459047Y123520D01*
Y122480D01*
X459317Y121474D01*
X459837Y120573D01*
X460573Y119837D01*
X461474Y119317D01*
X462480Y119047D01*
X463520D01*
X464526Y119317D01*
X465427Y119837D01*
X466163Y120573D01*
X466683Y121474D01*
X466953Y122480D01*
Y123520D01*
X466683Y124526D01*
X466163Y125427D01*
X465427Y126163D01*
X464526Y126683D01*
X463520Y126953D01*
D02*
G37*
G36*
X485395Y121984D02*
X484605D01*
X483876Y121682D01*
X483318Y121124D01*
X483016Y120395D01*
Y119605D01*
X483318Y118876D01*
X483876Y118318D01*
X484605Y118016D01*
X485395D01*
X486124Y118318D01*
X486682Y118876D01*
X486984Y119605D01*
Y120395D01*
X486682Y121124D01*
X486124Y121682D01*
X485395Y121984D01*
D02*
G37*
G36*
X569055Y124287D02*
X567756D01*
X566500Y123951D01*
X565374Y123301D01*
X564455Y122382D01*
X563805Y121256D01*
X563468Y120000D01*
Y118700D01*
X563805Y117445D01*
X564455Y116319D01*
X565374Y115400D01*
X566500Y114750D01*
X567756Y114413D01*
X569055D01*
X570311Y114750D01*
X571437Y115400D01*
X572356Y116319D01*
X573006Y117445D01*
X573343Y118700D01*
Y120000D01*
X573006Y121256D01*
X572356Y122382D01*
X571437Y123301D01*
X570311Y123951D01*
X569055Y124287D01*
D02*
G37*
G36*
X463520Y116953D02*
X463500D01*
Y113500D01*
X466953D01*
Y113520D01*
X466683Y114526D01*
X466163Y115427D01*
X465427Y116163D01*
X464526Y116683D01*
X463520Y116953D01*
D02*
G37*
G36*
X462500D02*
X462480D01*
X461474Y116683D01*
X460573Y116163D01*
X459837Y115427D01*
X459317Y114526D01*
X459047Y113520D01*
Y113500D01*
X462500D01*
Y116953D01*
D02*
G37*
G36*
X473520D02*
X472480D01*
X471474Y116683D01*
X470573Y116163D01*
X469837Y115427D01*
X469317Y114526D01*
X469047Y113520D01*
Y112480D01*
X469317Y111474D01*
X469837Y110573D01*
X470573Y109837D01*
X471474Y109317D01*
X472480Y109047D01*
X473520D01*
X474526Y109317D01*
X475427Y109837D01*
X476163Y110573D01*
X476683Y111474D01*
X476953Y112480D01*
Y113520D01*
X476683Y114526D01*
X476163Y115427D01*
X475427Y116163D01*
X474526Y116683D01*
X473520Y116953D01*
D02*
G37*
G36*
X466953Y112500D02*
X463500D01*
Y109047D01*
X463520D01*
X464526Y109317D01*
X465427Y109837D01*
X466163Y110573D01*
X466683Y111474D01*
X466953Y112480D01*
Y112500D01*
D02*
G37*
G36*
X462500D02*
X459047D01*
Y112480D01*
X459317Y111474D01*
X459837Y110573D01*
X460573Y109837D01*
X461474Y109317D01*
X462480Y109047D01*
X462500D01*
Y112500D01*
D02*
G37*
G36*
X513395Y112484D02*
X512605D01*
X511876Y112182D01*
X511318Y111624D01*
X511016Y110895D01*
Y110105D01*
X511318Y109376D01*
X511876Y108818D01*
X512605Y108516D01*
X513395D01*
X514124Y108818D01*
X514682Y109376D01*
X514984Y110105D01*
Y110895D01*
X514682Y111624D01*
X514124Y112182D01*
X513395Y112484D01*
D02*
G37*
G36*
X409020Y111953D02*
X409000D01*
Y108500D01*
X412453D01*
Y108520D01*
X412183Y109526D01*
X411663Y110427D01*
X410927Y111163D01*
X410026Y111683D01*
X409020Y111953D01*
D02*
G37*
G36*
X408000D02*
X407980D01*
X406974Y111683D01*
X406073Y111163D01*
X405337Y110427D01*
X404817Y109526D01*
X404547Y108520D01*
Y108500D01*
X408000D01*
Y111953D01*
D02*
G37*
G36*
X432453D02*
X424547D01*
Y104047D01*
X432453D01*
Y111953D01*
D02*
G37*
G36*
X419020D02*
X417980D01*
X416974Y111683D01*
X416073Y111163D01*
X415337Y110427D01*
X414817Y109526D01*
X414547Y108520D01*
Y107480D01*
X414817Y106474D01*
X415337Y105573D01*
X416073Y104837D01*
X416974Y104317D01*
X417980Y104047D01*
X419020D01*
X420026Y104317D01*
X420927Y104837D01*
X421663Y105573D01*
X422183Y106474D01*
X422453Y107480D01*
Y108520D01*
X422183Y109526D01*
X421663Y110427D01*
X420927Y111163D01*
X420026Y111683D01*
X419020Y111953D01*
D02*
G37*
G36*
X412453Y107500D02*
X409000D01*
Y104047D01*
X409020D01*
X410026Y104317D01*
X410927Y104837D01*
X411663Y105573D01*
X412183Y106474D01*
X412453Y107480D01*
Y107500D01*
D02*
G37*
G36*
X408000D02*
X404547D01*
Y107480D01*
X404817Y106474D01*
X405337Y105573D01*
X406073Y104837D01*
X406974Y104317D01*
X407980Y104047D01*
X408000D01*
Y107500D01*
D02*
G37*
G36*
X473520Y106953D02*
X472480D01*
X471474Y106683D01*
X470573Y106163D01*
X469837Y105427D01*
X469317Y104526D01*
X469047Y103520D01*
Y102480D01*
X469317Y101474D01*
X469837Y100573D01*
X470573Y99837D01*
X471474Y99317D01*
X472480Y99047D01*
X473520D01*
X474526Y99317D01*
X475427Y99837D01*
X476163Y100573D01*
X476683Y101474D01*
X476953Y102480D01*
Y103520D01*
X476683Y104526D01*
X476163Y105427D01*
X475427Y106163D01*
X474526Y106683D01*
X473520Y106953D01*
D02*
G37*
G36*
X463520D02*
X462480D01*
X461474Y106683D01*
X460573Y106163D01*
X459837Y105427D01*
X459317Y104526D01*
X459047Y103520D01*
Y102480D01*
X459317Y101474D01*
X459837Y100573D01*
X460573Y99837D01*
X461474Y99317D01*
X462480Y99047D01*
X463520D01*
X464526Y99317D01*
X465427Y99837D01*
X466163Y100573D01*
X466683Y101474D01*
X466953Y102480D01*
Y103520D01*
X466683Y104526D01*
X466163Y105427D01*
X465427Y106163D01*
X464526Y106683D01*
X463520Y106953D01*
D02*
G37*
G36*
X551861Y106787D02*
X550561D01*
X549305Y106451D01*
X548179Y105801D01*
X547260Y104882D01*
X546610Y103756D01*
X546274Y102500D01*
Y101200D01*
X546610Y99945D01*
X547260Y98819D01*
X548179Y97900D01*
X549305Y97250D01*
X550561Y96913D01*
X551861D01*
X553116Y97250D01*
X554242Y97900D01*
X555161Y98819D01*
X555811Y99945D01*
X556148Y101200D01*
Y102500D01*
X555811Y103756D01*
X555161Y104882D01*
X554242Y105801D01*
X553116Y106451D01*
X551861Y106787D01*
D02*
G37*
G36*
X520895Y100484D02*
X520105D01*
X519376Y100182D01*
X518818Y99624D01*
X518516Y98895D01*
Y98105D01*
X518818Y97376D01*
X519376Y96818D01*
X520105Y96516D01*
X520895D01*
X521624Y96818D01*
X522182Y97376D01*
X522484Y98105D01*
Y98895D01*
X522182Y99624D01*
X521624Y100182D01*
X520895Y100484D01*
D02*
G37*
G36*
X409020Y99953D02*
X409000D01*
Y96500D01*
X412453D01*
Y96520D01*
X412183Y97526D01*
X411663Y98427D01*
X410927Y99163D01*
X410026Y99683D01*
X409020Y99953D01*
D02*
G37*
G36*
X408000D02*
X407980D01*
X406974Y99683D01*
X406073Y99163D01*
X405337Y98427D01*
X404817Y97526D01*
X404547Y96520D01*
Y96500D01*
X408000D01*
Y99953D01*
D02*
G37*
G36*
X525895Y99484D02*
X525105D01*
X524376Y99182D01*
X523818Y98624D01*
X523516Y97895D01*
Y97105D01*
X523818Y96376D01*
X524376Y95818D01*
X525105Y95516D01*
X525895D01*
X526624Y95818D01*
X527182Y96376D01*
X527484Y97105D01*
Y97895D01*
X527182Y98624D01*
X526624Y99182D01*
X525895Y99484D01*
D02*
G37*
G36*
X432453Y99953D02*
X424547D01*
Y92047D01*
X432453D01*
Y99953D01*
D02*
G37*
G36*
X419020D02*
X417980D01*
X416974Y99683D01*
X416073Y99163D01*
X415337Y98427D01*
X414817Y97526D01*
X414547Y96520D01*
Y95480D01*
X414817Y94474D01*
X415337Y93573D01*
X416073Y92837D01*
X416974Y92317D01*
X417980Y92047D01*
X419020D01*
X420026Y92317D01*
X420927Y92837D01*
X421663Y93573D01*
X422183Y94474D01*
X422453Y95480D01*
Y96520D01*
X422183Y97526D01*
X421663Y98427D01*
X420927Y99163D01*
X420026Y99683D01*
X419020Y99953D01*
D02*
G37*
G36*
X412453Y95500D02*
X409000D01*
Y92047D01*
X409020D01*
X410026Y92317D01*
X410927Y92837D01*
X411663Y93573D01*
X412183Y94474D01*
X412453Y95480D01*
Y95500D01*
D02*
G37*
G36*
X408000D02*
X404547D01*
Y95480D01*
X404817Y94474D01*
X405337Y93573D01*
X406073Y92837D01*
X406974Y92317D01*
X407980Y92047D01*
X408000D01*
Y95500D01*
D02*
G37*
G36*
X476953Y96953D02*
X469047D01*
Y89047D01*
X476953D01*
Y96953D01*
D02*
G37*
G36*
X463520D02*
X462480D01*
X461474Y96683D01*
X460573Y96163D01*
X459837Y95427D01*
X459317Y94526D01*
X459047Y93520D01*
Y92480D01*
X459317Y91474D01*
X459837Y90573D01*
X460573Y89837D01*
X461474Y89317D01*
X462480Y89047D01*
X463520D01*
X464526Y89317D01*
X465427Y89837D01*
X466163Y90573D01*
X466683Y91474D01*
X466953Y92480D01*
Y93520D01*
X466683Y94526D01*
X466163Y95427D01*
X465427Y96163D01*
X464526Y96683D01*
X463520Y96953D01*
D02*
G37*
G36*
X501446Y92535D02*
X500657D01*
X499927Y92233D01*
X499369Y91675D01*
X499067Y90946D01*
Y90157D01*
X499369Y89427D01*
X499927Y88869D01*
X500657Y88567D01*
X501446D01*
X502175Y88869D01*
X502733Y89427D01*
X503035Y90157D01*
Y90946D01*
X502733Y91675D01*
X502175Y92233D01*
X501446Y92535D01*
D02*
G37*
G36*
X492000Y88441D02*
Y87000D01*
X493441D01*
X493182Y87624D01*
X492624Y88182D01*
X492000Y88441D01*
D02*
G37*
G36*
X491000D02*
X490376Y88182D01*
X489818Y87624D01*
X489559Y87000D01*
X491000D01*
Y88441D01*
D02*
G37*
G36*
X493441Y86000D02*
X492000D01*
Y84559D01*
X492624Y84818D01*
X493182Y85376D01*
X493441Y86000D01*
D02*
G37*
G36*
X491000D02*
X489559D01*
X489818Y85376D01*
X490376Y84818D01*
X491000Y84559D01*
Y86000D01*
D02*
G37*
G36*
X409021Y87964D02*
X409000D01*
Y84512D01*
X412453D01*
Y84532D01*
X412184Y85537D01*
X411663Y86439D01*
X410927Y87175D01*
X410026Y87695D01*
X409021Y87964D01*
D02*
G37*
G36*
X408000D02*
X407980D01*
X406974Y87695D01*
X406073Y87175D01*
X405337Y86439D01*
X404817Y85537D01*
X404547Y84532D01*
Y84512D01*
X408000D01*
Y87964D01*
D02*
G37*
G36*
X527446Y86651D02*
X526656D01*
X525927Y86348D01*
X525369Y85790D01*
X525067Y85061D01*
Y84272D01*
X525369Y83542D01*
X525927Y82984D01*
X526656Y82682D01*
X527446D01*
X528175Y82984D01*
X528733Y83542D01*
X529035Y84272D01*
Y85061D01*
X528733Y85790D01*
X528175Y86348D01*
X527446Y86651D01*
D02*
G37*
G36*
X519669Y85568D02*
X518880D01*
X518150Y85265D01*
X517592Y84707D01*
X517290Y83978D01*
Y83189D01*
X517592Y82459D01*
X518150Y81901D01*
X518880Y81599D01*
X519669D01*
X520398Y81901D01*
X520956Y82459D01*
X521258Y83189D01*
Y83978D01*
X520956Y84707D01*
X520398Y85265D01*
X519669Y85568D01*
D02*
G37*
G36*
X513395Y85484D02*
X512605D01*
X511876Y85182D01*
X511318Y84624D01*
X511016Y83895D01*
Y83105D01*
X511318Y82376D01*
X511876Y81818D01*
X512605Y81516D01*
X513395D01*
X514124Y81818D01*
X514682Y82376D01*
X514984Y83105D01*
Y83895D01*
X514682Y84624D01*
X514124Y85182D01*
X513395Y85484D01*
D02*
G37*
G36*
X507395Y84984D02*
X506605D01*
X505876Y84682D01*
X505318Y84124D01*
X505016Y83395D01*
Y82605D01*
X505318Y81876D01*
X505876Y81318D01*
X506605Y81016D01*
X507395D01*
X508124Y81318D01*
X508682Y81876D01*
X508984Y82605D01*
Y83395D01*
X508682Y84124D01*
X508124Y84682D01*
X507395Y84984D01*
D02*
G37*
G36*
X432453Y87964D02*
X424547D01*
Y80059D01*
X432453D01*
Y87964D01*
D02*
G37*
G36*
X419021D02*
X417980D01*
X416974Y87695D01*
X416073Y87175D01*
X415337Y86439D01*
X414817Y85537D01*
X414547Y84532D01*
Y83491D01*
X414817Y82486D01*
X415337Y81585D01*
X416073Y80849D01*
X416974Y80328D01*
X417980Y80059D01*
X419021D01*
X420026Y80328D01*
X420927Y80849D01*
X421663Y81585D01*
X422184Y82486D01*
X422453Y83491D01*
Y84532D01*
X422184Y85537D01*
X421663Y86439D01*
X420927Y87175D01*
X420026Y87695D01*
X419021Y87964D01*
D02*
G37*
G36*
X412453Y83512D02*
X409000D01*
Y80059D01*
X409021D01*
X410026Y80328D01*
X410927Y80849D01*
X411663Y81585D01*
X412184Y82486D01*
X412453Y83491D01*
Y83512D01*
D02*
G37*
G36*
X408000D02*
X404547D01*
Y83491D01*
X404817Y82486D01*
X405337Y81585D01*
X406073Y80849D01*
X406974Y80328D01*
X407980Y80059D01*
X408000D01*
Y83512D01*
D02*
G37*
G36*
X409020Y76074D02*
X409000D01*
Y72621D01*
X412453D01*
Y72642D01*
X412183Y73647D01*
X411663Y74548D01*
X410927Y75284D01*
X410026Y75805D01*
X409020Y76074D01*
D02*
G37*
G36*
X408000D02*
X407980D01*
X406974Y75805D01*
X406073Y75284D01*
X405337Y74548D01*
X404817Y73647D01*
X404547Y72642D01*
Y72621D01*
X408000D01*
Y76074D01*
D02*
G37*
G36*
X432453D02*
X424547D01*
Y68169D01*
X432453D01*
Y76074D01*
D02*
G37*
G36*
X419020D02*
X417980D01*
X416974Y75805D01*
X416073Y75284D01*
X415337Y74548D01*
X414817Y73647D01*
X414547Y72642D01*
Y71601D01*
X414817Y70596D01*
X415337Y69694D01*
X416073Y68958D01*
X416974Y68438D01*
X417980Y68169D01*
X419020D01*
X420026Y68438D01*
X420927Y68958D01*
X421663Y69694D01*
X422183Y70596D01*
X422453Y71601D01*
Y72642D01*
X422183Y73647D01*
X421663Y74548D01*
X420927Y75284D01*
X420026Y75805D01*
X419020Y76074D01*
D02*
G37*
G36*
X412453Y71621D02*
X409000D01*
Y68169D01*
X409020D01*
X410026Y68438D01*
X410927Y68958D01*
X411663Y69694D01*
X412183Y70596D01*
X412453Y71601D01*
Y71621D01*
D02*
G37*
G36*
X408000D02*
X404547D01*
Y71601D01*
X404817Y70596D01*
X405337Y69694D01*
X406073Y68958D01*
X406974Y68438D01*
X407980Y68169D01*
X408000D01*
Y71621D01*
D02*
G37*
%LPD*%
D24*
X463000Y113000D02*
D03*
X473000Y133000D02*
D03*
X463000Y153000D02*
D03*
Y183000D02*
D03*
X473000Y213000D02*
D03*
X463000Y233000D02*
D03*
Y253000D02*
D03*
X473000Y283000D02*
D03*
X408500Y96000D02*
D03*
X408500Y108000D02*
D03*
Y72121D02*
D03*
X408500Y84012D02*
D03*
X530000Y334000D02*
D03*
X480000D02*
D03*
X408000Y286500D02*
D03*
X408000Y298316D02*
D03*
X408000Y310386D02*
D03*
Y322500D02*
D03*
D28*
X485000Y237500D02*
D03*
X485152Y211152D02*
D03*
X489000Y189500D02*
D03*
X520000Y165500D02*
D03*
Y210000D02*
D03*
X521427Y275000D02*
D03*
X516457Y128957D02*
D03*
X491500Y86500D02*
D03*
X572000Y260000D02*
D03*
Y256000D02*
D03*
Y252000D02*
D03*
Y248000D02*
D03*
Y240000D02*
D03*
Y244000D02*
D03*
Y236000D02*
D03*
Y232000D02*
D03*
Y224000D02*
D03*
Y228000D02*
D03*
Y220000D02*
D03*
Y216000D02*
D03*
Y212000D02*
D03*
Y208000D02*
D03*
Y204000D02*
D03*
Y200000D02*
D03*
Y196000D02*
D03*
Y192000D02*
D03*
Y188000D02*
D03*
Y184000D02*
D03*
M02*
