G04*
G04 #@! TF.GenerationSoftware,Altium Limited,Altium Designer,21.6.4 (81)*
G04*
G04 Layer_Color=16711935*
%FSLAX25Y25*%
%MOIN*%
G70*
G04*
G04 #@! TF.SameCoordinates,61F8F35F-0515-4192-AEF4-FA75AFA33D01*
G04*
G04*
G04 #@! TF.FilePolarity,Positive*
G04*
G01*
G75*
%ADD42C,0.04724*%
D42*
X665975Y393701D02*
X711675Y359856D01*
X713475Y358799D01*
X715457Y358145D01*
X717533Y357923D01*
X797244D01*
X799434Y358170D01*
X801515Y358898D01*
X803381Y360070D01*
X804939Y361629D01*
X806112Y363495D01*
X806840Y365576D01*
X807087Y367766D01*
Y372047D01*
X806840Y374237D02*
X807087Y372047D01*
X806112Y376318D02*
X806840Y374237D01*
X804939Y378184D02*
X806112Y376318D01*
X803381Y379742D02*
X804939Y378184D01*
X801515Y380915D02*
X803381Y379742D01*
X799434Y381643D02*
X801515Y380915D01*
X797244Y381890D02*
X799434Y381643D01*
X737034Y381890D02*
X797244D01*
X734838Y381642D02*
X737034Y381890D01*
X732752Y380909D02*
X734838Y381642D01*
X730882Y379730D02*
X732752Y380909D01*
X729323Y378164D02*
X730882Y379730D01*
X728699Y377537D02*
X729323Y378164D01*
X727951Y377065D02*
X728699Y377537D01*
X727117Y376772D02*
X727951Y377065D01*
X726238Y376673D02*
X727117Y376772D01*
X721771Y376673D02*
X726238D01*
X720941Y376762D02*
X721771Y376673D01*
X720148Y377023D02*
X720941Y376762D01*
X719428Y377446D02*
X720148Y377023D01*
X707068Y386600D02*
X719428Y377446D01*
X706464Y387154D02*
X707068Y386600D01*
X705987Y387821D02*
X706464Y387154D01*
X705659Y388573D02*
X705987Y387821D01*
X705494Y389376D02*
X705659Y388573D01*
X705494Y389376D02*
X705498Y390196D01*
X705673Y390997D01*
X706009Y391745D01*
X706494Y392407D01*
X707105Y392954D01*
X707816Y393363D01*
X708596Y393615D01*
X709411Y393701D01*
X853396D01*
Y374016D02*
Y393701D01*
X851349Y373801D02*
X853396Y374016D01*
X849392Y373165D02*
X851349Y373801D01*
X847610Y372136D02*
X849392Y373165D01*
X846081Y370759D02*
X847610Y372136D01*
X844872Y369094D02*
X846081Y370759D01*
X844035Y367215D02*
X844872Y369094D01*
X843607Y365202D02*
X844035Y367215D01*
X843607Y363144D02*
Y365202D01*
Y363144D02*
X844035Y361132D01*
X844872Y359252D01*
X846081Y357587D01*
X847610Y356210D01*
X849392Y355182D01*
X851349Y354546D01*
X853396Y354331D01*
X872146D01*
Y255906D02*
Y354331D01*
X853396Y255906D02*
X872146D01*
X851349Y255690D02*
X853396Y255906D01*
X849392Y255055D02*
X851349Y255690D01*
X847610Y254026D02*
X849392Y255055D01*
X846081Y252649D02*
X847610Y254026D01*
X844872Y250984D02*
X846081Y252649D01*
X844035Y249104D02*
X844872Y250984D01*
X843607Y247092D02*
X844035Y249104D01*
X843607Y245034D02*
Y247092D01*
Y245034D02*
X844035Y243021D01*
X844872Y241142D01*
X846081Y239477D01*
X847610Y238100D01*
X849392Y237071D01*
X851349Y236436D01*
X853396Y236220D01*
Y157480D02*
Y236220D01*
X851349Y157265D02*
X853396Y157480D01*
X849392Y156629D02*
X851349Y157265D01*
X847610Y155601D02*
X849392Y156629D01*
X846081Y154224D02*
X847610Y155601D01*
X844872Y152559D02*
X846081Y154224D01*
X844035Y150679D02*
X844872Y152559D01*
X843607Y148667D02*
X844035Y150679D01*
X843607Y146609D02*
Y148667D01*
Y146609D02*
X844035Y144596D01*
X844872Y142717D01*
X846081Y141052D01*
X847610Y139675D01*
X849392Y138646D01*
X851349Y138010D01*
X853396Y137795D01*
X872146D01*
Y39370D02*
Y137795D01*
X853396Y39370D02*
X872146D01*
X851349Y39155D02*
X853396Y39370D01*
X849392Y38519D02*
X851349Y39155D01*
X847610Y37490D02*
X849392Y38519D01*
X846081Y36114D02*
X847610Y37490D01*
X844872Y34449D02*
X846081Y36114D01*
X844035Y32569D02*
X844872Y34449D01*
X843607Y30556D02*
X844035Y32569D01*
X843607Y28499D02*
Y30556D01*
Y28499D02*
X844035Y26486D01*
X844872Y24606D01*
X846081Y22942D01*
X847610Y21565D01*
X849392Y20536D01*
X851349Y19900D01*
X853396Y19685D01*
Y-0D02*
Y19685D01*
X709411Y-0D02*
X853396D01*
X708596Y85D02*
X709411Y-0D01*
X707816Y338D02*
X708596Y85D01*
X707105Y747D02*
X707816Y338D01*
X706494Y1294D02*
X707105Y747D01*
X706009Y1956D02*
X706494Y1294D01*
X705673Y2703D02*
X706009Y1956D01*
X705498Y3505D02*
X705673Y2703D01*
X705494Y4325D02*
X705498Y3505D01*
X705494Y4325D02*
X705659Y5128D01*
X705987Y5880D01*
X706464Y6547D01*
X707068Y7101D01*
X719428Y16254D01*
X720148Y16677D01*
X720941Y16939D01*
X721771Y17028D01*
X726238D01*
X727117Y16928D01*
X727951Y16635D01*
X728699Y16164D01*
X729323Y15537D01*
X730882Y13970D01*
X732752Y12791D01*
X734838Y12059D01*
X737034Y11811D01*
X797244D01*
X799434Y12058D01*
X801515Y12786D01*
X803381Y13958D01*
X804939Y15517D01*
X806112Y17383D01*
X806840Y19463D01*
X807087Y21654D01*
Y25935D01*
X806840Y28125D02*
X807087Y25935D01*
X806112Y30206D02*
X806840Y28125D01*
X804939Y32072D02*
X806112Y30206D01*
X803381Y33630D02*
X804939Y32072D01*
X801515Y34803D02*
X803381Y33630D01*
X799434Y35531D02*
X801515Y34803D01*
X797244Y35778D02*
X799434Y35531D01*
X717533Y35778D02*
X797244D01*
X715457Y35556D02*
X717533Y35778D01*
X713475Y34902D02*
X715457Y35556D01*
X711675Y33845D02*
X713475Y34902D01*
X665975Y-0D02*
X711675Y33845D01*
X608578Y-0D02*
X665975D01*
X608331Y2190D02*
X608578Y-0D01*
X607604Y4270D02*
X608331Y2190D01*
X606431Y6137D02*
X607604Y4270D01*
X604872Y7695D02*
X606431Y6137D01*
X603006Y8868D02*
X604872Y7695D01*
X600926Y9596D02*
X603006Y8868D01*
X598736Y9843D02*
X600926Y9596D01*
X559366Y9843D02*
X598736D01*
X557175Y9596D02*
X559366Y9843D01*
X555095Y8868D02*
X557175Y9596D01*
X553229Y7695D02*
X555095Y8868D01*
X551670Y6137D02*
X553229Y7695D01*
X550498Y4270D02*
X551670Y6137D01*
X549770Y2190D02*
X550498Y4270D01*
X549523Y-0D02*
X549770Y2190D01*
X394451Y-0D02*
X549523D01*
X393635Y85D02*
X394451Y-0D01*
X392855Y338D02*
X393635Y85D01*
X392144Y747D02*
X392855Y338D01*
X391533Y1294D02*
X392144Y747D01*
X391049Y1956D02*
X391533Y1294D01*
X390712Y2703D02*
X391049Y1956D01*
X390538Y3505D02*
X390712Y2703D01*
X390533Y4325D02*
X390538Y3505D01*
X390533Y4325D02*
X390698Y5128D01*
X391026Y5880D01*
X391503Y6547D01*
X392108Y7101D01*
X404468Y16254D01*
X405188Y16677D01*
X405981Y16939D01*
X406811Y17028D01*
X411278D01*
X412156Y16928D01*
X412990Y16635D01*
X413738Y16164D01*
X414362Y15537D01*
X415921Y13970D01*
X417791Y12791D01*
X419877Y12059D01*
X422073Y11811D01*
X482283D01*
X484474Y12058D01*
X486554Y12786D01*
X488420Y13958D01*
X489979Y15517D01*
X491151Y17383D01*
X491879Y19463D01*
X492126Y21654D01*
Y25935D01*
X491879Y28125D02*
X492126Y25935D01*
X491151Y30206D02*
X491879Y28125D01*
X489979Y32072D02*
X491151Y30206D01*
X488420Y33630D02*
X489979Y32072D01*
X486554Y34803D02*
X488420Y33630D01*
X484474Y35531D02*
X486554Y34803D01*
X482283Y35778D02*
X484474Y35531D01*
X402572Y35778D02*
X482283D01*
X400497Y35556D02*
X402572Y35778D01*
X398515Y34902D02*
X400497Y35556D01*
X396715Y33845D02*
X398515Y34902D01*
X351015Y-0D02*
X396715Y33845D01*
X289774Y-0D02*
X351015D01*
X289527Y2190D02*
X289774Y-0D01*
X288799Y4270D02*
X289527Y2190D01*
X287626Y6137D02*
X288799Y4270D01*
X286068Y7695D02*
X287626Y6137D01*
X284202Y8868D02*
X286068Y7695D01*
X282121Y9596D02*
X284202Y8868D01*
X279931Y9843D02*
X282121Y9596D01*
X256309Y9843D02*
X279931D01*
X254119Y9596D02*
X256309Y9843D01*
X252039Y8868D02*
X254119Y9596D01*
X250172Y7695D02*
X252039Y8868D01*
X248614Y6137D02*
X250172Y7695D01*
X247441Y4270D02*
X248614Y6137D01*
X246713Y2190D02*
X247441Y4270D01*
X246466Y-0D02*
X246713Y2190D01*
X32529Y-0D02*
X246466D01*
X32529D02*
Y29528D01*
X32283Y31718D02*
X32529Y29528D01*
X31555Y33798D02*
X32283Y31718D01*
X30382Y35664D02*
X31555Y33798D01*
X28824Y37223D02*
X30382Y35664D01*
X26957Y38395D02*
X28824Y37223D01*
X24877Y39123D02*
X26957Y38395D01*
X22687Y39370D02*
X24877Y39123D01*
X-0Y39370D02*
X22687D01*
X-0D02*
Y137795D01*
X18750D01*
X20796Y138010D01*
X22753Y138646D01*
X24535Y139675D01*
X26064Y141052D01*
X27274Y142717D01*
X28111Y144596D01*
X28539Y146609D01*
Y148667D01*
X28111Y150679D02*
X28539Y148667D01*
X27274Y152559D02*
X28111Y150679D01*
X26064Y154224D02*
X27274Y152559D01*
X24535Y155601D02*
X26064Y154224D01*
X22753Y156629D02*
X24535Y155601D01*
X20796Y157265D02*
X22753Y156629D01*
X18750Y157480D02*
X20796Y157265D01*
X18750Y157480D02*
Y236220D01*
X20796Y236436D01*
X22753Y237071D01*
X24535Y238100D01*
X26064Y239477D01*
X27274Y241142D01*
X28111Y243021D01*
X28539Y245034D01*
Y247092D01*
X28111Y249104D02*
X28539Y247092D01*
X27274Y250984D02*
X28111Y249104D01*
X26064Y252649D02*
X27274Y250984D01*
X24535Y254026D02*
X26064Y252649D01*
X22753Y255054D02*
X24535Y254026D01*
X20796Y255690D02*
X22753Y255054D01*
X18750Y255906D02*
X20796Y255690D01*
X-0Y255906D02*
X18750D01*
X-0D02*
Y354331D01*
X22687D01*
X24877Y354577D01*
X26957Y355305D01*
X28824Y356478D01*
X30382Y358036D01*
X31555Y359903D01*
X32283Y361983D01*
X32529Y364173D01*
Y393701D01*
X246466D01*
X246713Y391511D01*
X247441Y389430D01*
X248614Y387564D01*
X250172Y386006D01*
X252039Y384833D01*
X254119Y384105D01*
X256309Y383858D01*
X279931D01*
X282121Y384105D01*
X284202Y384833D01*
X286068Y386006D01*
X287626Y387564D01*
X288799Y389430D01*
X289527Y391511D01*
X289774Y393701D01*
X351015D01*
X396715Y359856D01*
X398515Y358799D01*
X400497Y358145D01*
X402572Y357923D01*
X482283D01*
X484474Y358170D01*
X486554Y358898D01*
X488420Y360070D01*
X489979Y361629D01*
X491151Y363495D01*
X491879Y365576D01*
X492126Y367766D01*
Y372047D01*
X491879Y374237D02*
X492126Y372047D01*
X491151Y376318D02*
X491879Y374237D01*
X489979Y378184D02*
X491151Y376318D01*
X488420Y379742D02*
X489979Y378184D01*
X486554Y380915D02*
X488420Y379742D01*
X484474Y381643D02*
X486554Y380915D01*
X482283Y381890D02*
X484474Y381643D01*
X422073Y381890D02*
X482283D01*
X419877Y381642D02*
X422073Y381890D01*
X417791Y380909D02*
X419877Y381642D01*
X415921Y379730D02*
X417791Y380909D01*
X414362Y378164D02*
X415921Y379730D01*
X413738Y377537D02*
X414362Y378164D01*
X412990Y377065D02*
X413738Y377537D01*
X412156Y376772D02*
X412990Y377065D01*
X411278Y376673D02*
X412156Y376772D01*
X406811Y376673D02*
X411278D01*
X405981Y376762D02*
X406811Y376673D01*
X405188Y377023D02*
X405981Y376762D01*
X404468Y377446D02*
X405188Y377023D01*
X392108Y386600D02*
X404468Y377446D01*
X391503Y387154D02*
X392108Y386600D01*
X391026Y387821D02*
X391503Y387154D01*
X390698Y388573D02*
X391026Y387821D01*
X390533Y389376D02*
X390698Y388573D01*
X390533Y389376D02*
X390538Y390196D01*
X390712Y390997D01*
X391049Y391745D01*
X391533Y392407D01*
X392144Y392954D01*
X392855Y393363D01*
X393635Y393615D01*
X394451Y393701D01*
X549523D01*
X549770Y391511D01*
X550498Y389430D01*
X551670Y387564D01*
X553229Y386006D01*
X555095Y384833D01*
X557175Y384105D01*
X559366Y383858D01*
X598736D01*
X600926Y384105D01*
X603006Y384833D01*
X604872Y386006D01*
X606431Y387564D01*
X607604Y389430D01*
X608331Y391511D01*
X608578Y393701D01*
X665975D01*
M02*
