G04*
G04 #@! TF.GenerationSoftware,Altium Limited,Altium Designer,21.6.4 (81)*
G04*
G04 Layer_Color=32896*
%FSLAX25Y25*%
%MOIN*%
G70*
G04*
G04 #@! TF.SameCoordinates,DB6D09D7-76B6-4019-902A-DA84951F4E30*
G04*
G04*
G04 #@! TF.FilePolarity,Positive*
G04*
G01*
G75*
%ADD11C,0.00787*%
%ADD12C,0.01000*%
%ADD37C,0.00600*%
%ADD38C,0.00500*%
D11*
X498602Y275279D02*
X497815D01*
X498602D01*
X497323Y127480D02*
X496535D01*
X497323D01*
D12*
X483334Y96333D02*
X482501Y97166D01*
Y98832D01*
X483334Y99665D01*
X486666D01*
X487499Y98832D01*
Y97166D01*
X486666Y96333D01*
X483334Y94667D02*
X482501Y93834D01*
Y92168D01*
X483334Y91335D01*
X484167D01*
X485000Y92168D01*
Y93001D01*
Y92168D01*
X485833Y91335D01*
X486666D01*
X487499Y92168D01*
Y93834D01*
X486666Y94667D01*
X490001Y262665D02*
X494166D01*
X494999Y261832D01*
Y260166D01*
X494166Y259333D01*
X490001D01*
X494999Y254335D02*
Y257667D01*
X491667Y254335D01*
X490834D01*
X490001Y255168D01*
Y256834D01*
X490834Y257667D01*
X488501Y115165D02*
X492666D01*
X493499Y114332D01*
Y112666D01*
X492666Y111833D01*
X488501D01*
X489334Y110167D02*
X488501Y109334D01*
Y107668D01*
X489334Y106835D01*
X490167D01*
X491000Y107668D01*
Y108501D01*
Y107668D01*
X491833Y106835D01*
X492666D01*
X493499Y107668D01*
Y109334D01*
X492666Y110167D01*
X511832Y215999D02*
Y211834D01*
X510999Y211001D01*
X509333D01*
X508500Y211834D01*
Y215999D01*
X506834Y211001D02*
X505168D01*
X506001D01*
Y215999D01*
X506834Y215166D01*
X489000Y219166D02*
X489833Y219999D01*
X491499D01*
X492332Y219166D01*
Y215834D01*
X491499Y215001D01*
X489833D01*
X489000Y215834D01*
X487334Y215001D02*
X485668D01*
X486501D01*
Y219999D01*
X487334Y219166D01*
X497333Y231666D02*
X498166Y232499D01*
X499832D01*
X500665Y231666D01*
Y228334D01*
X499832Y227501D01*
X498166D01*
X497333Y228334D01*
X492335Y227501D02*
X495667D01*
X492335Y230833D01*
Y231666D01*
X493168Y232499D01*
X494834D01*
X495667Y231666D01*
D37*
X507300Y206800D02*
X507652Y205951D01*
X508500Y205600D01*
X509348Y205951D01*
X509700Y206800D01*
X517400Y206100D02*
Y206800D01*
X509700D02*
X517400D01*
X507300D02*
X509700D01*
X499600D02*
X507300D01*
X499600Y168200D02*
Y168900D01*
Y168200D02*
X517400D01*
Y168900D01*
X499600Y206100D02*
Y206800D01*
D38*
X519803Y248941D02*
Y266657D01*
X497756Y248941D02*
Y266657D01*
X518524Y101142D02*
Y118858D01*
X496476Y101142D02*
Y118858D01*
M02*
