G04*
G04 #@! TF.GenerationSoftware,Altium Limited,Altium Designer,21.6.4 (81)*
G04*
G04 Layer_Color=32768*
%FSLAX25Y25*%
%MOIN*%
G70*
G04*
G04 #@! TF.SameCoordinates,61F8F35F-0515-4192-AEF4-FA75AFA33D01*
G04*
G04*
G04 #@! TF.FilePolarity,Positive*
G04*
G01*
G75*
%ADD40C,0.00394*%
%ADD41C,0.00197*%
D40*
X491500Y93630D02*
Y97370D01*
X489630Y95500D02*
X493370D01*
X493500Y209282D02*
Y213022D01*
X491630Y211152D02*
X495370D01*
X496500Y235630D02*
Y239370D01*
X494630Y237500D02*
X498370D01*
D41*
X488547Y101602D02*
X494453D01*
X488547Y89398D02*
X494453D01*
X488547D02*
Y101602D01*
X494453Y89398D02*
Y101602D01*
X487398Y208199D02*
X499602D01*
X487398Y214105D02*
X499602D01*
X487398Y208199D02*
Y214105D01*
X499602Y208199D02*
Y214105D01*
X490398Y234547D02*
X502602D01*
X490398Y240453D02*
X502602D01*
X490398Y234547D02*
Y240453D01*
X502602Y234547D02*
Y240453D01*
X497559Y242425D02*
X520000D01*
X497559Y273173D02*
X520000D01*
Y242425D02*
Y273173D01*
X497559Y242425D02*
Y273173D01*
X496279Y94626D02*
X518720D01*
X496279Y125374D02*
X518720D01*
Y94626D02*
Y125374D01*
X496279Y94626D02*
Y125374D01*
M02*
