G04*
G04 #@! TF.GenerationSoftware,Altium Limited,Altium Designer,21.6.4 (81)*
G04*
G04 Layer_Physical_Order=4*
G04 Layer_Color=16711680*
%FSLAX25Y25*%
%MOIN*%
G70*
G04*
G04 #@! TF.SameCoordinates,61F8F35F-0515-4192-AEF4-FA75AFA33D01*
G04*
G04*
G04 #@! TF.FilePolarity,Positive*
G04*
G01*
G75*
%ADD12C,0.01000*%
%ADD22C,0.05512*%
%ADD23R,0.05906X0.05906*%
%ADD24C,0.05906*%
%ADD25R,0.05906X0.05906*%
%ADD26C,0.07874*%
%ADD27C,0.12205*%
%ADD28C,0.01968*%
%ADD29R,0.03740X0.03937*%
%ADD30R,0.03937X0.03740*%
G04:AMPARAMS|DCode=31|XSize=61.81mil|YSize=16.14mil|CornerRadius=2.02mil|HoleSize=0mil|Usage=FLASHONLY|Rotation=270.000|XOffset=0mil|YOffset=0mil|HoleType=Round|Shape=RoundedRectangle|*
%AMROUNDEDRECTD31*
21,1,0.06181,0.01211,0,0,270.0*
21,1,0.05778,0.01614,0,0,270.0*
1,1,0.00404,-0.00605,-0.02889*
1,1,0.00404,-0.00605,0.02889*
1,1,0.00404,0.00605,0.02889*
1,1,0.00404,0.00605,-0.02889*
%
%ADD31ROUNDEDRECTD31*%
%ADD32R,0.05800X0.01400*%
G36*
X548518Y349140D02*
X548946Y347127D01*
X549013Y347030D01*
X549016Y346912D01*
X549853Y345032D01*
X549938Y344951D01*
X549966Y344836D01*
X551175Y343172D01*
X551276Y343110D01*
X551327Y343003D01*
X552856Y341627D01*
X552967Y341587D01*
X553039Y341494D01*
X554821Y340465D01*
X554938Y340449D01*
X555028Y340373D01*
X556985Y339737D01*
X557102Y339746D01*
X557206Y339690D01*
X559253Y339475D01*
X559310Y339492D01*
X559366Y339469D01*
X580000D01*
Y54232D01*
X559366D01*
X559310Y54209D01*
X559253Y54226D01*
X557206Y54011D01*
X557102Y53955D01*
X556985Y53964D01*
X555028Y53328D01*
X554938Y53251D01*
X554821Y53236D01*
X553039Y52207D01*
X552967Y52114D01*
X552856Y52074D01*
X551327Y50697D01*
X551276Y50591D01*
X551175Y50529D01*
X549966Y48864D01*
X549938Y48750D01*
X549853Y48669D01*
X549016Y46789D01*
X549013Y46671D01*
X548946Y46574D01*
X548612Y45000D01*
X375000D01*
Y350000D01*
X547921D01*
X548518Y349140D01*
D02*
G37*
%LPC*%
G36*
X530786Y337953D02*
X529214D01*
X527761Y337351D01*
X526649Y336239D01*
X526047Y334786D01*
Y333214D01*
X526649Y331761D01*
X527761Y330649D01*
X529214Y330047D01*
X530786D01*
X532239Y330649D01*
X533351Y331761D01*
X533953Y333214D01*
Y334786D01*
X533351Y336239D01*
X532239Y337351D01*
X530786Y337953D01*
D02*
G37*
G36*
X513953D02*
X506047D01*
Y330047D01*
X513953D01*
Y337953D01*
D02*
G37*
G36*
X480786D02*
X479214D01*
X477761Y337351D01*
X476649Y336239D01*
X476047Y334786D01*
Y333214D01*
X476649Y331761D01*
X477761Y330649D01*
X479214Y330047D01*
X480786D01*
X482239Y330649D01*
X483351Y331761D01*
X483953Y333214D01*
Y334786D01*
X483351Y336239D01*
X482239Y337351D01*
X480786Y337953D01*
D02*
G37*
G36*
X470786D02*
X469214D01*
X467761Y337351D01*
X466649Y336239D01*
X466047Y334786D01*
Y333214D01*
X466649Y331761D01*
X467761Y330649D01*
X469214Y330047D01*
X470786D01*
X472239Y330649D01*
X473351Y331761D01*
X473953Y333214D01*
Y334786D01*
X473351Y336239D01*
X472239Y337351D01*
X470786Y337953D01*
D02*
G37*
G36*
X463953D02*
X456047D01*
Y330047D01*
X463953D01*
Y337953D01*
D02*
G37*
G36*
X431953Y326453D02*
X424047D01*
Y318547D01*
X431953D01*
Y326453D01*
D02*
G37*
G36*
X418786D02*
X417214D01*
X415761Y325851D01*
X414649Y324739D01*
X414047Y323286D01*
Y321714D01*
X414649Y320261D01*
X415761Y319149D01*
X417214Y318547D01*
X418786D01*
X420239Y319149D01*
X421351Y320261D01*
X421953Y321714D01*
Y323286D01*
X421351Y324739D01*
X420239Y325851D01*
X418786Y326453D01*
D02*
G37*
G36*
X408786D02*
X407214D01*
X405761Y325851D01*
X404649Y324739D01*
X404047Y323286D01*
Y321714D01*
X404649Y320261D01*
X405761Y319149D01*
X407214Y318547D01*
X408786D01*
X410239Y319149D01*
X411351Y320261D01*
X411953Y321714D01*
Y323286D01*
X411351Y324739D01*
X410239Y325851D01*
X408786Y326453D01*
D02*
G37*
G36*
X418786Y314339D02*
X417214D01*
X415761Y313737D01*
X414649Y312625D01*
X414047Y311172D01*
Y309600D01*
X414649Y308147D01*
X415761Y307035D01*
X417214Y306433D01*
X418786D01*
X420239Y307035D01*
X421351Y308147D01*
X421953Y309600D01*
Y311172D01*
X421351Y312625D01*
X420239Y313737D01*
X418786Y314339D01*
D02*
G37*
G36*
X408786D02*
X407214D01*
X405761Y313737D01*
X404649Y312625D01*
X404047Y311172D01*
Y309600D01*
X404649Y308147D01*
X405761Y307035D01*
X407214Y306433D01*
X408786D01*
X410239Y307035D01*
X411351Y308147D01*
X411953Y309600D01*
Y311172D01*
X411351Y312625D01*
X410239Y313737D01*
X408786Y314339D01*
D02*
G37*
G36*
X431953Y302269D02*
X424047D01*
Y294363D01*
X431953D01*
Y302269D01*
D02*
G37*
G36*
X418786D02*
X417214D01*
X415761Y301667D01*
X414649Y300555D01*
X414047Y299102D01*
Y297530D01*
X414649Y296077D01*
X415761Y294965D01*
X417214Y294363D01*
X418786D01*
X420239Y294965D01*
X421351Y296077D01*
X421953Y297530D01*
Y299102D01*
X421351Y300555D01*
X420239Y301667D01*
X418786Y302269D01*
D02*
G37*
G36*
X408786D02*
X407214D01*
X405761Y301667D01*
X404649Y300555D01*
X404047Y299102D01*
Y297530D01*
X404649Y296077D01*
X405761Y294965D01*
X407214Y294363D01*
X408786D01*
X410239Y294965D01*
X411351Y296077D01*
X411953Y297530D01*
Y299102D01*
X411351Y300555D01*
X410239Y301667D01*
X408786Y302269D01*
D02*
G37*
G36*
X431953Y290453D02*
X424047D01*
Y282547D01*
X431953D01*
Y290453D01*
D02*
G37*
G36*
X418786D02*
X417214D01*
X415761Y289851D01*
X414649Y288739D01*
X414047Y287286D01*
Y285714D01*
X414649Y284261D01*
X415761Y283149D01*
X417214Y282547D01*
X418786D01*
X420239Y283149D01*
X421351Y284261D01*
X421953Y285714D01*
Y287286D01*
X421351Y288739D01*
X420239Y289851D01*
X418786Y290453D01*
D02*
G37*
G36*
X408786D02*
X407214D01*
X405761Y289851D01*
X404649Y288739D01*
X404047Y287286D01*
Y285714D01*
X404649Y284261D01*
X405761Y283149D01*
X407214Y282547D01*
X408786D01*
X410239Y283149D01*
X411351Y284261D01*
X411953Y285714D01*
Y287286D01*
X411351Y288739D01*
X410239Y289851D01*
X408786Y290453D01*
D02*
G37*
G36*
X463786Y286953D02*
X462214D01*
X460761Y286351D01*
X459649Y285239D01*
X459047Y283786D01*
Y282214D01*
X459649Y280761D01*
X460761Y279649D01*
X462214Y279047D01*
X463786D01*
X465239Y279649D01*
X466351Y280761D01*
X466953Y282214D01*
Y283786D01*
X466351Y285239D01*
X465239Y286351D01*
X463786Y286953D01*
D02*
G37*
G36*
X569387Y279287D02*
X567423D01*
X565609Y278536D01*
X564220Y277147D01*
X563468Y275332D01*
Y273368D01*
X564220Y271554D01*
X565609Y270165D01*
X567423Y269413D01*
X569387D01*
X571202Y270165D01*
X572591Y271554D01*
X573343Y273368D01*
Y275332D01*
X572591Y277147D01*
X571202Y278536D01*
X569387Y279287D01*
D02*
G37*
G36*
X554464Y270941D02*
X552969D01*
X551589Y270369D01*
X550532Y269313D01*
X549961Y267932D01*
Y266438D01*
X550532Y265057D01*
X551589Y264001D01*
X552969Y263429D01*
X554464D01*
X555844Y264001D01*
X556901Y265057D01*
X557472Y266438D01*
Y267932D01*
X556901Y269313D01*
X555844Y270369D01*
X554464Y270941D01*
D02*
G37*
G36*
X463786Y266953D02*
X462214D01*
X460761Y266351D01*
X459649Y265239D01*
X459047Y263786D01*
Y262214D01*
X459649Y260761D01*
X460761Y259649D01*
X462214Y259047D01*
X463786D01*
X465239Y259649D01*
X466351Y260761D01*
X466953Y262214D01*
Y263786D01*
X466351Y265239D01*
X465239Y266351D01*
X463786Y266953D01*
D02*
G37*
G36*
X520786Y337953D02*
X519214D01*
X517761Y337351D01*
X516649Y336239D01*
X516047Y334786D01*
Y333214D01*
X516649Y331761D01*
X517761Y330649D01*
X519214Y330047D01*
X520786D01*
X521496Y330341D01*
X526971Y324867D01*
Y253992D01*
X525971Y253578D01*
X523492Y256056D01*
X523481Y256171D01*
X523785Y257177D01*
X524124Y257318D01*
X524682Y257876D01*
X524984Y258605D01*
Y259395D01*
X524682Y260124D01*
X524124Y260682D01*
X523395Y260984D01*
X523179D01*
X520736Y263426D01*
X520240Y263758D01*
X519655Y263874D01*
X517451D01*
X517433Y263909D01*
X518032Y264909D01*
X518341D01*
X519261Y265290D01*
X519642Y266210D01*
Y271125D01*
X521533Y273016D01*
X521822D01*
X522551Y273318D01*
X523109Y273876D01*
X523411Y274605D01*
Y275395D01*
X523109Y276124D01*
X522551Y276682D01*
X521822Y276984D01*
X521032D01*
X520303Y276682D01*
X519745Y276124D01*
X519443Y275395D01*
Y275252D01*
X517707Y273515D01*
X516707Y273836D01*
Y279323D01*
X516590Y279908D01*
X516259Y280404D01*
X485195Y311468D01*
X484699Y311799D01*
X484114Y311916D01*
X431953D01*
Y314339D01*
X424047D01*
Y306433D01*
X431953D01*
Y308857D01*
X472599D01*
X472798Y307857D01*
X472376Y307682D01*
X471818Y307124D01*
X471516Y306395D01*
Y305605D01*
X471818Y304876D01*
X472376Y304318D01*
X473105Y304016D01*
X473321D01*
X478471Y298867D01*
Y285777D01*
X478318Y285624D01*
X478016Y284895D01*
Y284105D01*
X478318Y283376D01*
X478876Y282818D01*
X479605Y282516D01*
X480395D01*
X480470Y282547D01*
X481036Y281699D01*
X478866Y279529D01*
X476534D01*
X476119Y280529D01*
X476351Y280761D01*
X476953Y282214D01*
Y283786D01*
X476351Y285239D01*
X475239Y286351D01*
X473786Y286953D01*
X472214D01*
X470761Y286351D01*
X469649Y285239D01*
X469047Y283786D01*
Y282214D01*
X469649Y280761D01*
X469975Y280435D01*
X469994Y280205D01*
X469735Y279261D01*
X469467Y279081D01*
X466774Y276388D01*
X466711Y276294D01*
X465631Y276077D01*
X465478Y276112D01*
X465239Y276351D01*
X463786Y276953D01*
X462214D01*
X460761Y276351D01*
X459649Y275239D01*
X459047Y273786D01*
Y272214D01*
X459649Y270761D01*
X460761Y269649D01*
X462214Y269047D01*
X463786D01*
X465239Y269649D01*
X465402Y269812D01*
X466326Y269429D01*
Y268145D01*
X466442Y267560D01*
X466774Y267064D01*
X469341Y264496D01*
X469047Y263786D01*
Y262214D01*
X469649Y260761D01*
X470761Y259649D01*
X472214Y259047D01*
X473786D01*
X475239Y259649D01*
X476351Y260761D01*
X476953Y262214D01*
Y263786D01*
X476351Y265239D01*
X475239Y266351D01*
X473786Y266953D01*
X472214D01*
X471504Y266659D01*
X469475Y268688D01*
X469572Y269571D01*
X470480Y269930D01*
X470761Y269649D01*
X472214Y269047D01*
X473786D01*
X475239Y269649D01*
X476351Y270761D01*
X476645Y271471D01*
X482500D01*
X483085Y271587D01*
X483581Y271919D01*
X486133Y274471D01*
X497789D01*
X498279Y273895D01*
X498298Y272907D01*
X497917Y271987D01*
Y270029D01*
X493277D01*
X493124Y270182D01*
X492395Y270484D01*
X491605D01*
X490876Y270182D01*
X490318Y269624D01*
X490016Y268895D01*
Y268105D01*
X490318Y267376D01*
X490876Y266818D01*
X491605Y266516D01*
X492395D01*
X493124Y266818D01*
X493277Y266971D01*
X497917D01*
Y266210D01*
X498298Y265290D01*
X499218Y264909D01*
X500428D01*
X501102Y265188D01*
X501777Y264909D01*
X502987D01*
X503780Y264222D01*
X504111Y263726D01*
X510419Y257419D01*
X510915Y257087D01*
X511500Y256971D01*
X518252D01*
X523971Y251252D01*
Y240369D01*
X523395Y239984D01*
X522605D01*
X521876Y239682D01*
X521318Y239124D01*
X521016Y238395D01*
Y238179D01*
X517707Y234869D01*
X516707Y235284D01*
Y242027D01*
X517131Y242310D01*
X518341D01*
X519261Y242691D01*
X519642Y243611D01*
Y249389D01*
X519266Y250298D01*
Y252764D01*
X519149Y253349D01*
X518984Y253596D01*
Y253895D01*
X518682Y254624D01*
X518124Y255182D01*
X517395Y255484D01*
X516605D01*
X515876Y255182D01*
X515318Y254624D01*
X515016Y253895D01*
Y253105D01*
X515318Y252376D01*
X515602Y252091D01*
X515601Y251186D01*
X515097Y250690D01*
X514572D01*
X513779Y250719D01*
X513448Y251215D01*
X503581Y261081D01*
X503085Y261413D01*
X502500Y261529D01*
X480000D01*
X479415Y261413D01*
X478919Y261081D01*
X474496Y256659D01*
X473786Y256953D01*
X472214D01*
X470761Y256351D01*
X469649Y255239D01*
X469047Y253786D01*
Y252214D01*
X469649Y250761D01*
X470761Y249649D01*
X472214Y249047D01*
X473786D01*
X475239Y249649D01*
X476351Y250761D01*
X476953Y252214D01*
Y253786D01*
X476659Y254496D01*
X480633Y258471D01*
X501866D01*
X508825Y251512D01*
X508821Y251408D01*
X508105Y250690D01*
X506895D01*
X506102Y250679D01*
X505770Y251175D01*
X501364Y255581D01*
X500868Y255913D01*
X500283Y256029D01*
X484500D01*
X483915Y255913D01*
X483419Y255581D01*
X474496Y246659D01*
X473786Y246953D01*
X472214D01*
X470761Y246351D01*
X469649Y245239D01*
X469047Y243786D01*
Y242214D01*
X469649Y240761D01*
X470761Y239649D01*
X472214Y239047D01*
X473786D01*
X475239Y239649D01*
X476351Y240761D01*
X476953Y242214D01*
Y243786D01*
X476659Y244496D01*
X485134Y252971D01*
X495589D01*
X496319Y252319D01*
X496319Y251456D01*
Y240370D01*
X490382D01*
Y239029D01*
X486277D01*
X486124Y239182D01*
X485395Y239484D01*
X484605D01*
X483876Y239182D01*
X483318Y238624D01*
X483016Y237895D01*
Y237105D01*
X483318Y236376D01*
X483876Y235818D01*
X484605Y235516D01*
X485395D01*
X486124Y235818D01*
X486277Y235971D01*
X490382D01*
Y234630D01*
X496319D01*
Y234630D01*
X502618D01*
X502971Y233776D01*
Y221777D01*
X502818Y221624D01*
X502516Y220895D01*
Y220105D01*
X502818Y219376D01*
X503376Y218818D01*
X504105Y218516D01*
X504895D01*
X504971Y218547D01*
X505971Y217879D01*
Y205413D01*
X505047Y205030D01*
X504896Y205181D01*
X504399Y205513D01*
X503814Y205629D01*
X500900D01*
Y205800D01*
X498529D01*
Y208282D01*
X499618D01*
Y214022D01*
X498529D01*
Y216723D01*
X498682Y216876D01*
X498984Y217605D01*
Y218395D01*
X498682Y219124D01*
X498124Y219682D01*
X497395Y219984D01*
X496605D01*
X495876Y219682D01*
X495318Y219124D01*
X495016Y218395D01*
Y217605D01*
X495318Y216876D01*
X495471Y216723D01*
Y214729D01*
X494764Y214022D01*
X493681Y214022D01*
X492681Y214022D01*
X487382D01*
Y212795D01*
X486382Y212729D01*
X486276Y212834D01*
X485547Y213136D01*
X484758D01*
X484028Y212834D01*
X483470Y212276D01*
X483168Y211547D01*
Y210757D01*
X483470Y210028D01*
X484028Y209470D01*
X484758Y209168D01*
X485547D01*
X486276Y209470D01*
X486382Y209576D01*
X487382Y209509D01*
Y208282D01*
X492681D01*
X493319Y208282D01*
X494319Y208282D01*
X495471D01*
Y205800D01*
X493100D01*
Y203129D01*
X489600D01*
X489015Y203013D01*
X488519Y202681D01*
X481919Y196081D01*
X481587Y195585D01*
X481471Y195000D01*
Y127336D01*
X477877Y123742D01*
X476822Y124102D01*
X476351Y125239D01*
X475239Y126351D01*
X473786Y126953D01*
X472214D01*
X470761Y126351D01*
X469649Y125239D01*
X469047Y123786D01*
Y122214D01*
X469649Y120761D01*
X469915Y120494D01*
X469918Y120470D01*
X469555Y119441D01*
X469415Y119413D01*
X468919Y119081D01*
X466919Y117081D01*
X466587Y116585D01*
X466559Y116445D01*
X465530Y116082D01*
X465506Y116084D01*
X465239Y116351D01*
X463786Y116953D01*
X462214D01*
X460761Y116351D01*
X459649Y115239D01*
X459047Y113786D01*
Y112214D01*
X459649Y110761D01*
X460761Y109649D01*
X462214Y109047D01*
X463786D01*
X465239Y109649D01*
X465471Y109881D01*
X466471Y109466D01*
Y108000D01*
X466587Y107415D01*
X466919Y106919D01*
X469341Y104496D01*
X469047Y103786D01*
Y102214D01*
X469649Y100761D01*
X470761Y99649D01*
X472214Y99047D01*
X473786D01*
X475239Y99649D01*
X476351Y100761D01*
X476953Y102214D01*
Y103786D01*
X476351Y105239D01*
X475239Y106351D01*
X473786Y106953D01*
X472214D01*
X471504Y106659D01*
X469620Y108543D01*
X469718Y109426D01*
X470625Y109785D01*
X470761Y109649D01*
X472214Y109047D01*
X473786D01*
X475239Y109649D01*
X476351Y110761D01*
X476953Y112214D01*
Y113786D01*
X476659Y114496D01*
X482016Y119853D01*
X482552Y119720D01*
X483065Y119488D01*
X483318Y118876D01*
X483471Y118723D01*
Y116000D01*
X483587Y115415D01*
X483919Y114919D01*
X493419Y105419D01*
X493915Y105087D01*
X494500Y104971D01*
X500867D01*
X502023Y103814D01*
X501752Y103019D01*
X501685Y102890D01*
X500497D01*
X499823Y102611D01*
X499149Y102890D01*
X497938D01*
X497018Y102509D01*
X496649Y101618D01*
X492000D01*
X492000Y101618D01*
Y98650D01*
X491500D01*
Y98150D01*
X488630D01*
Y95681D01*
X488630D01*
Y95319D01*
X488630D01*
Y89382D01*
X489971D01*
Y87777D01*
X489818Y87624D01*
X489516Y86895D01*
Y86105D01*
X489818Y85376D01*
X490376Y84818D01*
X491105Y84516D01*
X491895D01*
X492624Y84818D01*
X493182Y85376D01*
X493484Y86105D01*
Y86895D01*
X493182Y87624D01*
X493029Y87777D01*
Y89382D01*
X494370D01*
Y94500D01*
X498000D01*
Y94511D01*
X499149D01*
X499573Y94228D01*
Y91879D01*
X499369Y91675D01*
X499067Y90946D01*
Y90157D01*
X499369Y89427D01*
X499927Y88869D01*
X500657Y88567D01*
X501446D01*
X502175Y88869D01*
X502733Y89427D01*
X503035Y90157D01*
Y90946D01*
X502733Y91675D01*
X502632Y91777D01*
Y94228D01*
X503056Y94511D01*
X504267D01*
X504691Y94228D01*
Y92279D01*
X504808Y91694D01*
X505139Y91198D01*
X508919Y87419D01*
X509415Y87087D01*
X510000Y86971D01*
X522000D01*
X522585Y87087D01*
X523081Y87419D01*
X530581Y94919D01*
X530913Y95415D01*
X531029Y96000D01*
Y132500D01*
X530913Y133085D01*
X530581Y133581D01*
X515529Y148634D01*
Y168436D01*
X516100Y169200D01*
X518471D01*
Y166777D01*
X518318Y166624D01*
X518016Y165895D01*
Y165105D01*
X518318Y164376D01*
X518876Y163818D01*
X519605Y163516D01*
X520395D01*
X521124Y163818D01*
X521682Y164376D01*
X521984Y165105D01*
Y165895D01*
X521682Y166624D01*
X521529Y166777D01*
Y169200D01*
X523900D01*
Y171700D01*
Y174300D01*
Y176800D01*
Y179400D01*
Y182000D01*
Y184500D01*
Y187100D01*
Y189600D01*
Y192371D01*
X527123D01*
X527276Y192218D01*
X528005Y191916D01*
X528795D01*
X529524Y192218D01*
X530082Y192776D01*
X530384Y193505D01*
Y194295D01*
X530082Y195024D01*
X529524Y195582D01*
X528795Y195884D01*
X528005D01*
X527276Y195582D01*
X527123Y195429D01*
X523900D01*
Y199900D01*
Y202400D01*
Y205800D01*
X521529D01*
Y208723D01*
X521682Y208876D01*
X521984Y209605D01*
Y210395D01*
X521682Y211124D01*
X521124Y211682D01*
X520395Y211984D01*
X519605D01*
X518876Y211682D01*
X518318Y211124D01*
X518016Y210395D01*
Y209605D01*
X518318Y208876D01*
X518471Y208723D01*
Y205800D01*
X516100D01*
X516029Y206771D01*
Y218250D01*
X516422Y218514D01*
X517029Y218754D01*
X517605Y218516D01*
X518395D01*
X519124Y218818D01*
X519682Y219376D01*
X519984Y220105D01*
Y220321D01*
X529581Y229919D01*
X529913Y230415D01*
X530029Y231000D01*
Y325500D01*
X529913Y326085D01*
X529581Y326581D01*
X523659Y332504D01*
X523953Y333214D01*
Y334786D01*
X523351Y336239D01*
X522239Y337351D01*
X520786Y337953D01*
D02*
G37*
G36*
X432585Y253051D02*
X405026D01*
X404967Y253026D01*
X404905Y253044D01*
X402715Y252797D01*
X402605Y252736D01*
X402479Y252743D01*
X400398Y252015D01*
X400304Y251931D01*
X400180Y251910D01*
X398314Y250738D01*
X398241Y250635D01*
X398124Y250587D01*
X396566Y249028D01*
X396518Y248911D01*
X396415Y248838D01*
X395242Y246972D01*
X395221Y246848D01*
X395137Y246754D01*
X394409Y244674D01*
X394416Y244548D01*
X394355Y244437D01*
X394108Y242247D01*
X394126Y242185D01*
X394102Y242126D01*
Y151575D01*
X394126Y151515D01*
X394108Y151454D01*
X394355Y149263D01*
X394416Y149153D01*
X394409Y149027D01*
X395137Y146947D01*
X395221Y146853D01*
X395242Y146728D01*
X396415Y144862D01*
X396518Y144789D01*
X396566Y144673D01*
X398124Y143114D01*
X398241Y143066D01*
X398314Y142963D01*
X400180Y141790D01*
X400304Y141769D01*
X400398Y141685D01*
X402479Y140957D01*
X402605Y140964D01*
X402715Y140903D01*
X404905Y140657D01*
X404967Y140674D01*
X405026Y140650D01*
X432585D01*
X432645Y140674D01*
X432707Y140657D01*
X434897Y140903D01*
X435007Y140964D01*
X435133Y140957D01*
X437213Y141685D01*
X437307Y141769D01*
X437432Y141790D01*
X439298Y142963D01*
X439371Y143066D01*
X439488Y143114D01*
X441046Y144673D01*
X441094Y144789D01*
X441197Y144862D01*
X442370Y146728D01*
X442391Y146853D01*
X442475Y146947D01*
X443203Y149027D01*
X443196Y149153D01*
X443257Y149263D01*
X443504Y151454D01*
X443486Y151515D01*
X443510Y151575D01*
Y242126D01*
X443486Y242185D01*
X443504Y242247D01*
X443257Y244437D01*
X443196Y244548D01*
X443203Y244674D01*
X442475Y246754D01*
X442391Y246848D01*
X442370Y246972D01*
X441197Y248838D01*
X441094Y248911D01*
X441046Y249028D01*
X439488Y250587D01*
X439371Y250635D01*
X439298Y250738D01*
X437432Y251910D01*
X437307Y251931D01*
X437213Y252015D01*
X435133Y252743D01*
X435007Y252736D01*
X434897Y252797D01*
X432707Y253044D01*
X432645Y253026D01*
X432585Y253051D01*
D02*
G37*
G36*
X463786Y256953D02*
X462214D01*
X460761Y256351D01*
X459649Y255239D01*
X459047Y253786D01*
Y252214D01*
X459649Y250761D01*
X460761Y249649D01*
X462214Y249047D01*
X463786D01*
X465239Y249649D01*
X466351Y250761D01*
X466953Y252214D01*
Y253786D01*
X466351Y255239D01*
X465239Y256351D01*
X463786Y256953D01*
D02*
G37*
G36*
Y246953D02*
X462214D01*
X460761Y246351D01*
X459649Y245239D01*
X459047Y243786D01*
Y242214D01*
X459649Y240761D01*
X460761Y239649D01*
X462214Y239047D01*
X463786D01*
X465239Y239649D01*
X466351Y240761D01*
X466953Y242214D01*
Y243786D01*
X466351Y245239D01*
X465239Y246351D01*
X463786Y246953D01*
D02*
G37*
G36*
X473786Y236953D02*
X472214D01*
X470761Y236351D01*
X469649Y235239D01*
X469047Y233786D01*
Y232214D01*
X469649Y230761D01*
X470761Y229649D01*
X472214Y229047D01*
X473786D01*
X475239Y229649D01*
X476351Y230761D01*
X476953Y232214D01*
Y233786D01*
X476351Y235239D01*
X475239Y236351D01*
X473786Y236953D01*
D02*
G37*
G36*
X463786D02*
X462214D01*
X460761Y236351D01*
X459649Y235239D01*
X459047Y233786D01*
Y232214D01*
X459649Y230761D01*
X460761Y229649D01*
X462214Y229047D01*
X463786D01*
X465239Y229649D01*
X466351Y230761D01*
X466953Y232214D01*
Y233786D01*
X466351Y235239D01*
X465239Y236351D01*
X463786Y236953D01*
D02*
G37*
G36*
X473786Y226953D02*
X472214D01*
X470761Y226351D01*
X469649Y225239D01*
X469047Y223786D01*
Y222214D01*
X469649Y220761D01*
X470761Y219649D01*
X472214Y219047D01*
X473786D01*
X475239Y219649D01*
X476351Y220761D01*
X476953Y222214D01*
Y223786D01*
X476351Y225239D01*
X475239Y226351D01*
X473786Y226953D01*
D02*
G37*
G36*
X463786D02*
X462214D01*
X460761Y226351D01*
X459649Y225239D01*
X459047Y223786D01*
Y222214D01*
X459649Y220761D01*
X460761Y219649D01*
X462214Y219047D01*
X463786D01*
X465239Y219649D01*
X466351Y220761D01*
X466953Y222214D01*
Y223786D01*
X466351Y225239D01*
X465239Y226351D01*
X463786Y226953D01*
D02*
G37*
G36*
X473786Y216953D02*
X472214D01*
X470761Y216351D01*
X469649Y215239D01*
X469047Y213786D01*
Y212214D01*
X469649Y210761D01*
X470761Y209649D01*
X472214Y209047D01*
X473786D01*
X475239Y209649D01*
X476351Y210761D01*
X476953Y212214D01*
Y213786D01*
X476351Y215239D01*
X475239Y216351D01*
X473786Y216953D01*
D02*
G37*
G36*
X463786D02*
X462214D01*
X460761Y216351D01*
X459649Y215239D01*
X459047Y213786D01*
Y212214D01*
X459649Y210761D01*
X460761Y209649D01*
X462214Y209047D01*
X463786D01*
X465239Y209649D01*
X466351Y210761D01*
X466953Y212214D01*
Y213786D01*
X466351Y215239D01*
X465239Y216351D01*
X463786Y216953D01*
D02*
G37*
G36*
X473786Y206953D02*
X472214D01*
X470761Y206351D01*
X469649Y205239D01*
X469047Y203786D01*
Y202214D01*
X469649Y200761D01*
X470761Y199649D01*
X472214Y199047D01*
X473786D01*
X475239Y199649D01*
X476351Y200761D01*
X476953Y202214D01*
Y203786D01*
X476351Y205239D01*
X475239Y206351D01*
X473786Y206953D01*
D02*
G37*
G36*
X463786D02*
X462214D01*
X460761Y206351D01*
X459649Y205239D01*
X459047Y203786D01*
Y202214D01*
X459649Y200761D01*
X460761Y199649D01*
X462214Y199047D01*
X463786D01*
X465239Y199649D01*
X466351Y200761D01*
X466953Y202214D01*
Y203786D01*
X466351Y205239D01*
X465239Y206351D01*
X463786Y206953D01*
D02*
G37*
G36*
X473786Y196953D02*
X472214D01*
X470761Y196351D01*
X469649Y195239D01*
X469047Y193786D01*
Y192214D01*
X469649Y190761D01*
X470761Y189649D01*
X472214Y189047D01*
X473786D01*
X475239Y189649D01*
X476351Y190761D01*
X476953Y192214D01*
Y193786D01*
X476351Y195239D01*
X475239Y196351D01*
X473786Y196953D01*
D02*
G37*
G36*
X463786D02*
X462214D01*
X460761Y196351D01*
X459649Y195239D01*
X459047Y193786D01*
Y192214D01*
X459649Y190761D01*
X460761Y189649D01*
X462214Y189047D01*
X463786D01*
X465239Y189649D01*
X466351Y190761D01*
X466953Y192214D01*
Y193786D01*
X466351Y195239D01*
X465239Y196351D01*
X463786Y196953D01*
D02*
G37*
G36*
X572395Y261984D02*
X571605D01*
X570876Y261682D01*
X570318Y261124D01*
X570016Y260395D01*
Y259605D01*
X570318Y258876D01*
X570560Y258634D01*
X570771Y258000D01*
X570560Y257366D01*
X570318Y257124D01*
X570016Y256395D01*
Y255605D01*
X570318Y254876D01*
X570560Y254634D01*
X570771Y254000D01*
X570560Y253366D01*
X570318Y253124D01*
X570016Y252395D01*
Y251605D01*
X570318Y250876D01*
X570560Y250634D01*
X570771Y250000D01*
X570560Y249366D01*
X570318Y249124D01*
X570016Y248395D01*
Y247605D01*
X570318Y246876D01*
X570560Y246634D01*
X570771Y246000D01*
X570560Y245366D01*
X570318Y245124D01*
X570016Y244395D01*
Y243605D01*
X570318Y242876D01*
X570560Y242634D01*
X570771Y242000D01*
X570560Y241366D01*
X570318Y241124D01*
X570016Y240395D01*
Y239605D01*
X570318Y238876D01*
X570560Y238634D01*
X570771Y238000D01*
X570560Y237366D01*
X570318Y237124D01*
X570016Y236395D01*
Y235605D01*
X570318Y234876D01*
X570560Y234634D01*
X570771Y234000D01*
X570560Y233366D01*
X570318Y233124D01*
X570016Y232395D01*
Y231605D01*
X570318Y230876D01*
X570560Y230634D01*
X570771Y230000D01*
X570560Y229366D01*
X570318Y229124D01*
X570016Y228395D01*
Y227605D01*
X570318Y226876D01*
X570560Y226634D01*
X570771Y226000D01*
X570560Y225366D01*
X570318Y225124D01*
X570016Y224395D01*
Y223605D01*
X570318Y222876D01*
X570560Y222634D01*
X570771Y222000D01*
X570560Y221366D01*
X570318Y221124D01*
X570016Y220395D01*
Y219605D01*
X570318Y218876D01*
X570560Y218634D01*
X570771Y218000D01*
X570560Y217366D01*
X570318Y217124D01*
X570016Y216395D01*
Y215605D01*
X570318Y214876D01*
X570560Y214634D01*
X570771Y214000D01*
X570560Y213366D01*
X570318Y213124D01*
X570016Y212395D01*
Y211605D01*
X570318Y210876D01*
X570560Y210634D01*
X570771Y210000D01*
X570560Y209366D01*
X570318Y209124D01*
X570016Y208395D01*
Y207605D01*
X570318Y206876D01*
X570560Y206634D01*
X570771Y206000D01*
X570560Y205366D01*
X570318Y205124D01*
X570016Y204395D01*
Y203605D01*
X570318Y202876D01*
X570560Y202634D01*
X570771Y202000D01*
X570560Y201366D01*
X570318Y201124D01*
X570016Y200395D01*
Y199605D01*
X570318Y198876D01*
X570560Y198634D01*
X570771Y198000D01*
X570560Y197366D01*
X570318Y197124D01*
X570016Y196395D01*
Y195605D01*
X570318Y194876D01*
X570560Y194634D01*
X570771Y194000D01*
X570560Y193366D01*
X570318Y193124D01*
X570016Y192395D01*
Y191605D01*
X570318Y190876D01*
X570560Y190634D01*
X570771Y190000D01*
X570560Y189366D01*
X570318Y189124D01*
X570016Y188395D01*
Y187605D01*
X570318Y186876D01*
X570560Y186634D01*
X570771Y186000D01*
X570560Y185366D01*
X570318Y185124D01*
X570016Y184395D01*
Y183605D01*
X570318Y182876D01*
X570876Y182318D01*
X571605Y182016D01*
X572395D01*
X573124Y182318D01*
X573682Y182876D01*
X573984Y183605D01*
Y184395D01*
X573682Y185124D01*
X573440Y185366D01*
X573230Y186000D01*
X573440Y186634D01*
X573682Y186876D01*
X573984Y187605D01*
Y188395D01*
X573682Y189124D01*
X573440Y189366D01*
X573230Y190000D01*
X573440Y190634D01*
X573682Y190876D01*
X573984Y191605D01*
Y192395D01*
X573682Y193124D01*
X573440Y193366D01*
X573230Y194000D01*
X573440Y194634D01*
X573682Y194876D01*
X573984Y195605D01*
Y196395D01*
X573682Y197124D01*
X573440Y197366D01*
X573230Y198000D01*
X573440Y198634D01*
X573682Y198876D01*
X573984Y199605D01*
Y200395D01*
X573682Y201124D01*
X573440Y201366D01*
X573230Y202000D01*
X573440Y202634D01*
X573682Y202876D01*
X573984Y203605D01*
Y204395D01*
X573682Y205124D01*
X573440Y205366D01*
X573230Y206000D01*
X573440Y206634D01*
X573682Y206876D01*
X573984Y207605D01*
Y208395D01*
X573682Y209124D01*
X573440Y209366D01*
X573230Y210000D01*
X573440Y210634D01*
X573682Y210876D01*
X573984Y211605D01*
Y212395D01*
X573682Y213124D01*
X573440Y213366D01*
X573230Y214000D01*
X573440Y214634D01*
X573682Y214876D01*
X573984Y215605D01*
Y216395D01*
X573682Y217124D01*
X573440Y217366D01*
X573230Y218000D01*
X573440Y218634D01*
X573682Y218876D01*
X573984Y219605D01*
Y220395D01*
X573682Y221124D01*
X573440Y221366D01*
X573230Y222000D01*
X573440Y222634D01*
X573682Y222876D01*
X573984Y223605D01*
Y224395D01*
X573682Y225124D01*
X573440Y225366D01*
X573230Y226000D01*
X573440Y226634D01*
X573682Y226876D01*
X573984Y227605D01*
Y228395D01*
X573682Y229124D01*
X573440Y229366D01*
X573230Y230000D01*
X573440Y230634D01*
X573682Y230876D01*
X573984Y231605D01*
Y232395D01*
X573682Y233124D01*
X573440Y233366D01*
X573230Y234000D01*
X573440Y234634D01*
X573682Y234876D01*
X573984Y235605D01*
Y236395D01*
X573682Y237124D01*
X573440Y237366D01*
X573230Y238000D01*
X573440Y238634D01*
X573682Y238876D01*
X573984Y239605D01*
Y240395D01*
X573682Y241124D01*
X573440Y241366D01*
X573230Y242000D01*
X573440Y242634D01*
X573682Y242876D01*
X573984Y243605D01*
Y244395D01*
X573682Y245124D01*
X573440Y245366D01*
X573230Y246000D01*
X573440Y246634D01*
X573682Y246876D01*
X573984Y247605D01*
Y248395D01*
X573682Y249124D01*
X573440Y249366D01*
X573230Y250000D01*
X573440Y250634D01*
X573682Y250876D01*
X573984Y251605D01*
Y252395D01*
X573682Y253124D01*
X573440Y253366D01*
X573230Y254000D01*
X573440Y254634D01*
X573682Y254876D01*
X573984Y255605D01*
Y256395D01*
X573682Y257124D01*
X573440Y257366D01*
X573230Y258000D01*
X573440Y258634D01*
X573682Y258876D01*
X573984Y259605D01*
Y260395D01*
X573682Y261124D01*
X573124Y261682D01*
X572395Y261984D01*
D02*
G37*
G36*
X473786Y186953D02*
X472214D01*
X470761Y186351D01*
X469649Y185239D01*
X469047Y183786D01*
Y182214D01*
X469649Y180761D01*
X470761Y179649D01*
X472214Y179047D01*
X473786D01*
X475239Y179649D01*
X476351Y180761D01*
X476953Y182214D01*
Y183786D01*
X476351Y185239D01*
X475239Y186351D01*
X473786Y186953D01*
D02*
G37*
G36*
X463786D02*
X462214D01*
X460761Y186351D01*
X459649Y185239D01*
X459047Y183786D01*
Y182214D01*
X459649Y180761D01*
X460761Y179649D01*
X462214Y179047D01*
X463786D01*
X465239Y179649D01*
X466351Y180761D01*
X466953Y182214D01*
Y183786D01*
X466351Y185239D01*
X465239Y186351D01*
X463786Y186953D01*
D02*
G37*
G36*
X473786Y176953D02*
X473500D01*
Y173500D01*
X476953D01*
Y173786D01*
X476351Y175239D01*
X475239Y176351D01*
X473786Y176953D01*
D02*
G37*
G36*
X472500D02*
X472214D01*
X470761Y176351D01*
X469649Y175239D01*
X469047Y173786D01*
Y173500D01*
X472500D01*
Y176953D01*
D02*
G37*
G36*
X476953Y172500D02*
X473500D01*
Y169047D01*
X473786D01*
X475239Y169649D01*
X476351Y170761D01*
X476953Y172214D01*
Y172500D01*
D02*
G37*
G36*
X472500D02*
X469047D01*
Y172214D01*
X469649Y170761D01*
X470761Y169649D01*
X472214Y169047D01*
X472500D01*
Y172500D01*
D02*
G37*
G36*
X463786Y176953D02*
X462214D01*
X460761Y176351D01*
X459649Y175239D01*
X459047Y173786D01*
Y172214D01*
X459649Y170761D01*
X460761Y169649D01*
X462214Y169047D01*
X463786D01*
X465239Y169649D01*
X466351Y170761D01*
X466953Y172214D01*
Y173786D01*
X466351Y175239D01*
X465239Y176351D01*
X463786Y176953D01*
D02*
G37*
G36*
X473786Y166953D02*
X472214D01*
X470761Y166351D01*
X469649Y165239D01*
X469047Y163786D01*
Y162214D01*
X469649Y160761D01*
X470761Y159649D01*
X472214Y159047D01*
X473786D01*
X475239Y159649D01*
X476351Y160761D01*
X476953Y162214D01*
Y163786D01*
X476351Y165239D01*
X475239Y166351D01*
X473786Y166953D01*
D02*
G37*
G36*
X463786D02*
X462214D01*
X460761Y166351D01*
X459649Y165239D01*
X459047Y163786D01*
Y162214D01*
X459649Y160761D01*
X460761Y159649D01*
X462214Y159047D01*
X463786D01*
X465239Y159649D01*
X466351Y160761D01*
X466953Y162214D01*
Y163786D01*
X466351Y165239D01*
X465239Y166351D01*
X463786Y166953D01*
D02*
G37*
G36*
X473786Y156953D02*
X472214D01*
X470761Y156351D01*
X469649Y155239D01*
X469047Y153786D01*
Y152214D01*
X469649Y150761D01*
X470761Y149649D01*
X472214Y149047D01*
X473786D01*
X475239Y149649D01*
X476351Y150761D01*
X476953Y152214D01*
Y153786D01*
X476351Y155239D01*
X475239Y156351D01*
X473786Y156953D01*
D02*
G37*
G36*
X463786D02*
X462214D01*
X460761Y156351D01*
X459649Y155239D01*
X459047Y153786D01*
Y152214D01*
X459649Y150761D01*
X460761Y149649D01*
X462214Y149047D01*
X463786D01*
X465239Y149649D01*
X466351Y150761D01*
X466953Y152214D01*
Y153786D01*
X466351Y155239D01*
X465239Y156351D01*
X463786Y156953D01*
D02*
G37*
G36*
X473786Y146953D02*
X472214D01*
X470761Y146351D01*
X469649Y145239D01*
X469047Y143786D01*
Y142214D01*
X469649Y140761D01*
X470761Y139649D01*
X472214Y139047D01*
X473786D01*
X475239Y139649D01*
X476351Y140761D01*
X476953Y142214D01*
Y143786D01*
X476351Y145239D01*
X475239Y146351D01*
X473786Y146953D01*
D02*
G37*
G36*
X463786D02*
X462214D01*
X460761Y146351D01*
X459649Y145239D01*
X459047Y143786D01*
Y142214D01*
X459649Y140761D01*
X460761Y139649D01*
X462214Y139047D01*
X463786D01*
X465239Y139649D01*
X466351Y140761D01*
X466953Y142214D01*
Y143786D01*
X466351Y145239D01*
X465239Y146351D01*
X463786Y146953D01*
D02*
G37*
G36*
X473786Y136953D02*
X472214D01*
X470761Y136351D01*
X469649Y135239D01*
X469047Y133786D01*
Y132214D01*
X469649Y130761D01*
X470761Y129649D01*
X472214Y129047D01*
X473786D01*
X475239Y129649D01*
X476351Y130761D01*
X476953Y132214D01*
Y133786D01*
X476351Y135239D01*
X475239Y136351D01*
X473786Y136953D01*
D02*
G37*
G36*
X463786D02*
X462214D01*
X460761Y136351D01*
X459649Y135239D01*
X459047Y133786D01*
Y132214D01*
X459649Y130761D01*
X460761Y129649D01*
X462214Y129047D01*
X463786D01*
X465239Y129649D01*
X466351Y130761D01*
X466953Y132214D01*
Y133786D01*
X466351Y135239D01*
X465239Y136351D01*
X463786Y136953D01*
D02*
G37*
G36*
X554464Y135508D02*
X552969D01*
X551589Y134936D01*
X550532Y133879D01*
X549961Y132499D01*
Y131005D01*
X550532Y129624D01*
X551589Y128568D01*
X552969Y127996D01*
X554464D01*
X555844Y128568D01*
X556901Y129624D01*
X557472Y131005D01*
Y132499D01*
X556901Y133879D01*
X555844Y134936D01*
X554464Y135508D01*
D02*
G37*
G36*
X463786Y126953D02*
X462214D01*
X460761Y126351D01*
X459649Y125239D01*
X459047Y123786D01*
Y122214D01*
X459649Y120761D01*
X460761Y119649D01*
X462214Y119047D01*
X463786D01*
X465239Y119649D01*
X466351Y120761D01*
X466953Y122214D01*
Y123786D01*
X466351Y125239D01*
X465239Y126351D01*
X463786Y126953D01*
D02*
G37*
G36*
X569387Y124287D02*
X567423D01*
X565609Y123536D01*
X564220Y122147D01*
X563468Y120332D01*
Y118368D01*
X564220Y116554D01*
X565609Y115165D01*
X567423Y114413D01*
X569387D01*
X571202Y115165D01*
X572591Y116554D01*
X573343Y118368D01*
Y120332D01*
X572591Y122147D01*
X571202Y123536D01*
X569387Y124287D01*
D02*
G37*
G36*
X419286Y111953D02*
X417714D01*
X416261Y111351D01*
X415149Y110239D01*
X414547Y108786D01*
Y107214D01*
X415149Y105761D01*
X416261Y104649D01*
X417714Y104047D01*
X419286D01*
X420739Y104649D01*
X421851Y105761D01*
X422453Y107214D01*
Y108786D01*
X421851Y110239D01*
X420739Y111351D01*
X419286Y111953D01*
D02*
G37*
G36*
X409286D02*
X407714D01*
X406261Y111351D01*
X405149Y110239D01*
X404547Y108786D01*
Y107214D01*
X405149Y105761D01*
X406261Y104649D01*
X407714Y104047D01*
X409286D01*
X410739Y104649D01*
X411851Y105761D01*
X412453Y107214D01*
Y108786D01*
X411851Y110239D01*
X410739Y111351D01*
X409286Y111953D01*
D02*
G37*
G36*
X491000Y101618D02*
X488630D01*
Y99150D01*
X491000D01*
Y101618D01*
D02*
G37*
G36*
X463786Y106953D02*
X462214D01*
X460761Y106351D01*
X459649Y105239D01*
X459047Y103786D01*
Y102214D01*
X459649Y100761D01*
X460761Y99649D01*
X462214Y99047D01*
X463786D01*
X465239Y99649D01*
X466351Y100761D01*
X466953Y102214D01*
Y103786D01*
X466351Y105239D01*
X465239Y106351D01*
X463786Y106953D01*
D02*
G37*
G36*
X552193Y106787D02*
X550229D01*
X548414Y106036D01*
X547025Y104647D01*
X546274Y102832D01*
Y100868D01*
X547025Y99054D01*
X548414Y97665D01*
X550229Y96913D01*
X552193D01*
X554007Y97665D01*
X555396Y99054D01*
X556148Y100868D01*
Y102832D01*
X555396Y104647D01*
X554007Y106036D01*
X552193Y106787D01*
D02*
G37*
G36*
X476953Y96953D02*
X473500D01*
Y93500D01*
X476953D01*
Y96953D01*
D02*
G37*
G36*
X472500D02*
X469047D01*
Y93500D01*
X472500D01*
Y96953D01*
D02*
G37*
G36*
X419286Y99953D02*
X417714D01*
X416261Y99351D01*
X415149Y98239D01*
X414547Y96786D01*
Y95214D01*
X415149Y93761D01*
X416261Y92649D01*
X417714Y92047D01*
X419286D01*
X420739Y92649D01*
X421851Y93761D01*
X422453Y95214D01*
Y96786D01*
X421851Y98239D01*
X420739Y99351D01*
X419286Y99953D01*
D02*
G37*
G36*
X409286D02*
X407714D01*
X406261Y99351D01*
X405149Y98239D01*
X404547Y96786D01*
Y95214D01*
X405149Y93761D01*
X406261Y92649D01*
X407714Y92047D01*
X409286D01*
X410739Y92649D01*
X411851Y93761D01*
X412453Y95214D01*
Y96786D01*
X411851Y98239D01*
X410739Y99351D01*
X409286Y99953D01*
D02*
G37*
G36*
X476953Y92500D02*
X473500D01*
Y89047D01*
X476953D01*
Y92500D01*
D02*
G37*
G36*
X472500D02*
X469047D01*
Y89047D01*
X472500D01*
Y92500D01*
D02*
G37*
G36*
X463786Y96953D02*
X462214D01*
X460761Y96351D01*
X459649Y95239D01*
X459047Y93786D01*
Y92214D01*
X459649Y90761D01*
X460761Y89649D01*
X462214Y89047D01*
X463786D01*
X465239Y89649D01*
X466351Y90761D01*
X466953Y92214D01*
Y93786D01*
X466351Y95239D01*
X465239Y96351D01*
X463786Y96953D01*
D02*
G37*
G36*
X419286Y87964D02*
X417714D01*
X416261Y87363D01*
X415149Y86251D01*
X414547Y84798D01*
Y83225D01*
X415149Y81773D01*
X416261Y80661D01*
X417714Y80059D01*
X419286D01*
X420739Y80661D01*
X421851Y81773D01*
X422453Y83225D01*
Y84798D01*
X421851Y86251D01*
X420739Y87363D01*
X419286Y87964D01*
D02*
G37*
G36*
X409286D02*
X407714D01*
X406261Y87363D01*
X405149Y86251D01*
X404547Y84798D01*
Y83225D01*
X405149Y81773D01*
X406261Y80661D01*
X407714Y80059D01*
X409286D01*
X410739Y80661D01*
X411851Y81773D01*
X412453Y83225D01*
Y84798D01*
X411851Y86251D01*
X410739Y87363D01*
X409286Y87964D01*
D02*
G37*
G36*
X432453Y111953D02*
X424547D01*
Y104047D01*
X430290D01*
X458884Y75453D01*
X458501Y74529D01*
X452134D01*
X432453Y94210D01*
Y99953D01*
X424547D01*
Y92047D01*
X430290D01*
X450419Y71919D01*
X450915Y71587D01*
X451500Y71471D01*
X501279D01*
X501776Y70471D01*
X501442Y70029D01*
X444645D01*
X432453Y82222D01*
Y87964D01*
X424547D01*
Y80059D01*
X430290D01*
X442319Y68029D01*
X441905Y67029D01*
X435755D01*
X432453Y70331D01*
Y76074D01*
X424547D01*
Y68169D01*
X430290D01*
X434040Y64419D01*
X434536Y64087D01*
X435121Y63971D01*
X505000D01*
X505585Y64087D01*
X506081Y64419D01*
X524735Y83073D01*
X525839D01*
X525927Y82984D01*
X526656Y82682D01*
X527446D01*
X528175Y82984D01*
X528733Y83542D01*
X529035Y84272D01*
Y85061D01*
X528733Y85790D01*
X528175Y86348D01*
X527446Y86651D01*
X526656D01*
X525927Y86348D01*
X525710Y86131D01*
X524102D01*
X523517Y86015D01*
X523021Y85684D01*
X522040Y84703D01*
X520956Y84707D01*
X520398Y85265D01*
X519669Y85568D01*
X518880D01*
X518150Y85265D01*
X517997Y85113D01*
X517583D01*
X516998Y84996D01*
X516502Y84665D01*
X515908Y84071D01*
X514789Y84366D01*
X514682Y84624D01*
X514124Y85182D01*
X513395Y85484D01*
X512605D01*
X511876Y85182D01*
X511318Y84624D01*
X511016Y83895D01*
Y83679D01*
X509984Y82647D01*
X508984Y83061D01*
Y83395D01*
X508682Y84124D01*
X508124Y84682D01*
X507395Y84984D01*
X506605D01*
X505876Y84682D01*
X505318Y84124D01*
X505016Y83395D01*
Y83179D01*
X498867Y77029D01*
X461633D01*
X432453Y106210D01*
Y111953D01*
D02*
G37*
G36*
X419286Y76074D02*
X417714D01*
X416261Y75472D01*
X415149Y74360D01*
X414547Y72908D01*
Y71335D01*
X415149Y69882D01*
X416261Y68770D01*
X417714Y68169D01*
X419286D01*
X420739Y68770D01*
X421851Y69882D01*
X422453Y71335D01*
Y72908D01*
X421851Y74360D01*
X420739Y75472D01*
X419286Y76074D01*
D02*
G37*
G36*
X409286D02*
X407714D01*
X406261Y75472D01*
X405149Y74360D01*
X404547Y72908D01*
Y71335D01*
X405149Y69882D01*
X406261Y68770D01*
X407714Y68169D01*
X409286D01*
X410739Y68770D01*
X411851Y69882D01*
X412453Y71335D01*
Y72908D01*
X411851Y74360D01*
X410739Y75472D01*
X409286Y76074D01*
D02*
G37*
%LPD*%
D12*
X486000Y184366D02*
X486439Y183305D01*
X487500Y182866D01*
X489699Y179866D02*
X490581Y180152D01*
X491126Y180902D01*
Y181829D01*
X490581Y182579D01*
X489699Y182866D01*
X486500Y179866D02*
X485618Y179579D01*
X485073Y178829D01*
Y177902D01*
X485618Y177152D01*
X486500Y176866D01*
X491100Y173866D02*
X491982Y174152D01*
X492527Y174902D01*
Y175829D01*
X491982Y176579D01*
X491100Y176866D01*
X487500Y173866D02*
X486439Y173426D01*
X486000Y172366D01*
X528400Y193900D02*
X528500Y194000D01*
X520000Y193900D02*
X528400D01*
X509784Y191217D02*
Y229283D01*
X515177Y234677D01*
X509784Y191217D02*
X514800Y186200D01*
X485000Y237500D02*
X493350D01*
X485152Y211152D02*
X490350D01*
X485000Y211000D02*
X485152Y211152D01*
X489185Y191807D02*
X493679Y196300D01*
X489000Y189500D02*
X489185Y189685D01*
Y191807D01*
X493679Y196300D02*
X496800D01*
X497000Y196500D01*
X486000Y188435D02*
Y193500D01*
X491300Y198800D01*
X486000Y184366D02*
Y188435D01*
X487500Y182866D02*
X489699D01*
X486500Y179866D02*
X489699D01*
X486500Y176866D02*
X491100D01*
X487500Y173866D02*
X491100D01*
X486000Y168866D02*
Y172366D01*
Y126000D02*
Y168866D01*
X491300Y198800D02*
X496800D01*
X497150Y191150D02*
X503850D01*
X504000Y191000D01*
X497000Y191300D02*
X497150Y191150D01*
X520000Y165500D02*
Y170900D01*
Y204100D02*
Y210000D01*
X517736Y271382D02*
X521354Y275000D01*
X521500D01*
X517736Y269098D02*
Y271382D01*
X461000Y75500D02*
X499500D01*
X507000Y83000D01*
X435121Y65500D02*
X505000D01*
X524102Y84602D02*
X526987D01*
X505000Y65500D02*
X524102Y84602D01*
X502500Y68500D02*
X517583Y83583D01*
X444012Y68500D02*
X502500D01*
X517583Y83583D02*
X519274D01*
X526987Y84602D02*
X527051Y84666D01*
X428500Y72121D02*
X435121Y65500D01*
X428500Y84012D02*
X444012Y68500D01*
X428500Y108000D02*
X461000Y75500D01*
X428000Y310386D02*
X484114D01*
X515177Y279323D01*
X480000Y284500D02*
Y299500D01*
X473500Y306000D02*
X480000Y299500D01*
X499823Y268807D02*
Y269098D01*
X499516Y268500D02*
X499823Y268807D01*
X492000Y268500D02*
X499516D01*
X520000Y334000D02*
X528500Y325500D01*
Y231000D02*
Y325500D01*
X518000Y220500D02*
X528500Y231000D01*
X504500Y220500D02*
Y238610D01*
X502382Y240728D02*
X504500Y238610D01*
X502382Y240728D02*
Y246500D01*
X507500Y189500D02*
Y246500D01*
Y189500D02*
X513100Y183900D01*
X512000Y227000D02*
X523000Y238000D01*
X512000Y193350D02*
Y227000D01*
Y193350D02*
X516350Y189000D01*
X485500Y276000D02*
X499000D01*
X473000Y273000D02*
X482500D01*
X485500Y276000D01*
X479500Y278000D02*
X484500Y283000D01*
X470548Y278000D02*
X479500D01*
X484500Y283000D02*
X505500D01*
X501051Y90551D02*
X501102Y90602D01*
X501000Y90500D02*
X501051Y90551D01*
X490000Y117000D02*
X497000Y110000D01*
X506500D01*
X474297Y118000D02*
X483000Y126703D01*
Y195000D01*
X470000Y118000D02*
X474297D01*
X506500Y110000D02*
X511087Y105413D01*
X473000Y113000D02*
X486000Y126000D01*
X495500Y117500D02*
X498000Y115000D01*
X506500D01*
X508779Y117280D01*
X516457Y121299D02*
Y128957D01*
X516500Y129000D01*
X491500Y86500D02*
Y92350D01*
X490551Y98701D02*
X498543D01*
X490000Y98150D02*
X490551Y98701D01*
X491000Y149500D02*
X495500Y145000D01*
X479469Y215969D02*
X498345Y234845D01*
X479469Y179469D02*
Y215969D01*
X498345Y234845D02*
Y236195D01*
X498650Y236500D01*
X499823Y237673D02*
Y246500D01*
X499650Y237500D02*
X499823Y237673D01*
X473000Y173000D02*
X479469Y179469D01*
X483000Y195000D02*
X489600Y201600D01*
X497000Y204100D02*
Y218000D01*
X513000Y110762D02*
X513949Y111711D01*
X513000Y110500D02*
Y110762D01*
X513949Y111711D02*
Y121248D01*
X516657Y98500D02*
X520500D01*
X451500Y73000D02*
X502500D01*
X513000Y83500D01*
X428500Y96000D02*
X451500Y73000D01*
X505500Y283000D02*
X510059Y278441D01*
X499000Y276000D02*
X502191Y272809D01*
X489500Y163000D02*
X492500D01*
X501102Y154398D01*
X492000Y156500D02*
X498543Y149957D01*
Y121299D02*
Y149957D01*
X501102Y121299D02*
Y154398D01*
Y90602D02*
Y98701D01*
X503814Y204100D02*
X505000Y202914D01*
Y195500D02*
Y202914D01*
X497000Y204100D02*
X503814D01*
X503400Y193900D02*
X505000Y195500D01*
X497000Y193900D02*
X503400D01*
X497000D02*
X497200Y194100D01*
X495500Y117500D02*
Y145000D01*
X490000Y117000D02*
Y132500D01*
X485000Y116000D02*
X494500Y106500D01*
X485000Y116000D02*
Y120000D01*
X480000Y93000D02*
X485150Y98150D01*
X490000D01*
X473000Y93000D02*
X480000D01*
X522000Y88500D02*
X529500Y96000D01*
Y132500D01*
X514000Y148000D02*
X529500Y132500D01*
X515177Y269098D02*
Y279323D01*
X504500Y279000D02*
X507500Y276000D01*
Y269098D02*
Y276000D01*
X511500Y258500D02*
X518886D01*
X516030Y262345D02*
X519655D01*
X505193Y264807D02*
X511500Y258500D01*
X512870Y265505D02*
X516030Y262345D01*
X517736Y246500D02*
Y252764D01*
X517000Y253500D02*
X517736Y252764D01*
X512870Y265505D02*
Y266508D01*
X518886Y258500D02*
X525500Y251886D01*
X519655Y262345D02*
X523000Y259000D01*
X502191Y269289D02*
X502382Y269098D01*
X502191Y269289D02*
Y272809D01*
X510059Y269098D02*
Y278441D01*
X512618Y266760D02*
Y269098D01*
Y266760D02*
X512870Y266508D01*
X510059Y238941D02*
X511500Y237500D01*
X510059Y238941D02*
Y246500D01*
X515177Y234677D02*
Y246500D01*
X473000Y243000D02*
X484500Y254500D01*
X500283D02*
X504689Y250094D01*
X484500Y254500D02*
X500283D01*
X504689Y246752D02*
Y250094D01*
Y246752D02*
X504941Y246500D01*
X473000Y253000D02*
X480000Y260000D01*
X502500D01*
X467855Y275307D02*
X470548Y278000D01*
X467855Y268145D02*
Y275307D01*
Y268145D02*
X473000Y263000D01*
X505193Y264807D02*
Y268847D01*
X494500Y106500D02*
X501500D01*
X503661Y104339D01*
Y98701D02*
Y104339D01*
X502500Y260000D02*
X512366Y250134D01*
Y246752D02*
Y250134D01*
Y246752D02*
X512618Y246500D01*
X468000Y108000D02*
Y116000D01*
Y108000D02*
X473000Y103000D01*
X516457Y98701D02*
X516657Y98500D01*
X520000Y92000D02*
X525500Y97500D01*
X512139Y92000D02*
X520000D01*
X513898Y121299D02*
X513949Y121248D01*
X506360Y128860D02*
X506500Y129000D01*
X506220Y121299D02*
X506360Y121439D01*
Y128860D01*
X509031Y95107D02*
X512139Y92000D01*
X509031Y95107D02*
Y98449D01*
X508779Y98701D02*
X509031Y98449D01*
X506220Y92279D02*
X510000Y88500D01*
X506220Y92279D02*
Y98701D01*
X510000Y88500D02*
X522000D01*
X513898Y103398D02*
X524000Y113500D01*
X513898Y98701D02*
Y103398D01*
X524000Y113500D02*
Y133000D01*
X511000Y146000D02*
X524000Y133000D01*
X511087Y98953D02*
Y105413D01*
X508779Y117280D02*
Y121299D01*
X511087Y98953D02*
X511339Y98701D01*
X511000Y146000D02*
Y172000D01*
X514800Y175800D01*
X525500Y234500D02*
Y251886D01*
X514500Y223500D02*
X525500Y234500D01*
X514500Y193679D02*
Y223500D01*
X520000Y199000D02*
Y201600D01*
Y196500D02*
Y199000D01*
Y193900D02*
Y196500D01*
X504941Y269098D02*
X505193Y268847D01*
X516679Y191500D02*
X519800D01*
X520000Y191300D01*
X516350Y189000D02*
X519800D01*
X514500Y193679D02*
X516679Y191500D01*
X513100Y183900D02*
X519800D01*
X514000Y178500D02*
X520000D01*
X519800Y189000D02*
X520000Y188800D01*
X503661Y172161D02*
X512600Y181100D01*
X507500Y172000D02*
X514000Y178500D01*
X512600Y181100D02*
X520000D01*
X519800Y183900D02*
X520000Y183700D01*
X514800Y186200D02*
X520000D01*
X514000Y148000D02*
Y171000D01*
X516200Y173200D01*
X519800D02*
X520000Y173400D01*
X516200Y173200D02*
X519800D01*
X514800Y175800D02*
X519800D01*
X520000Y176000D01*
X511339Y121299D02*
Y131161D01*
X507500Y135000D02*
Y172000D01*
Y135000D02*
X511339Y131161D01*
X503661Y121299D02*
Y172161D01*
X489600Y201600D02*
X497000D01*
X468000Y116000D02*
X470000Y118000D01*
X496800Y198800D02*
X497000Y199000D01*
D22*
X553717Y267185D02*
D03*
Y131752D02*
D03*
D23*
X473000Y93000D02*
D03*
D24*
X463000D02*
D03*
X473000Y103000D02*
D03*
X463000D02*
D03*
X473000Y113000D02*
D03*
X463000D02*
D03*
X473000Y123000D02*
D03*
X463000D02*
D03*
X473000Y133000D02*
D03*
X463000D02*
D03*
X473000Y143000D02*
D03*
X463000D02*
D03*
X473000Y153000D02*
D03*
X463000D02*
D03*
X473000Y163000D02*
D03*
X463000D02*
D03*
X473000Y173000D02*
D03*
X463000D02*
D03*
X473000Y183000D02*
D03*
X463000D02*
D03*
X473000Y193000D02*
D03*
X463000D02*
D03*
X473000Y203000D02*
D03*
X463000D02*
D03*
X473000Y213000D02*
D03*
X463000D02*
D03*
X473000Y223000D02*
D03*
X463000D02*
D03*
X473000Y233000D02*
D03*
X463000D02*
D03*
X473000Y243000D02*
D03*
X463000D02*
D03*
X473000Y253000D02*
D03*
X463000D02*
D03*
X473000Y263000D02*
D03*
X463000D02*
D03*
X473000Y273000D02*
D03*
X463000D02*
D03*
X473000Y283000D02*
D03*
X463000D02*
D03*
X418500Y96000D02*
D03*
X408500D02*
D03*
X418500Y108000D02*
D03*
X408500D02*
D03*
X418500Y72121D02*
D03*
X408500D02*
D03*
X418500Y84012D02*
D03*
X408500D02*
D03*
X520000Y334000D02*
D03*
X530000D02*
D03*
X470000D02*
D03*
X480000D02*
D03*
X418000Y286500D02*
D03*
X408000D02*
D03*
X418000Y298316D02*
D03*
X408000D02*
D03*
X418000Y310386D02*
D03*
X408000D02*
D03*
X418000Y322500D02*
D03*
X408000D02*
D03*
D25*
X428500Y96000D02*
D03*
X428500Y108000D02*
D03*
Y72121D02*
D03*
X428500Y84012D02*
D03*
X510000Y334000D02*
D03*
X460000D02*
D03*
X428000Y286500D02*
D03*
X428000Y298316D02*
D03*
X428000Y310386D02*
D03*
Y322500D02*
D03*
D26*
X793405Y274350D02*
D03*
X568405D02*
D03*
Y119350D02*
D03*
X793405D02*
D03*
X811211Y279350D02*
D03*
Y114350D02*
D03*
X551211Y101850D02*
D03*
X586230Y100394D02*
D03*
X814577D02*
D03*
Y293307D02*
D03*
X586230D02*
D03*
D27*
X216939Y260118D02*
D03*
Y133858D02*
D03*
X177569Y260118D02*
D03*
Y133858D02*
D03*
X83081Y365610D02*
D03*
X51821D02*
D03*
X83081Y28091D02*
D03*
X51821D02*
D03*
D28*
X528400Y193900D02*
D03*
X485000Y237500D02*
D03*
X485152Y211152D02*
D03*
X489000Y189500D02*
D03*
X520000Y165500D02*
D03*
Y210000D02*
D03*
X521427Y275000D02*
D03*
X507000Y83000D02*
D03*
X473500Y306000D02*
D03*
X492000Y268500D02*
D03*
X480000Y284500D02*
D03*
X518000Y220500D02*
D03*
X504500D02*
D03*
X504000Y191000D02*
D03*
X516457Y128957D02*
D03*
X491500Y86500D02*
D03*
X491000Y149500D02*
D03*
X572000Y260000D02*
D03*
Y256000D02*
D03*
Y252000D02*
D03*
Y248000D02*
D03*
Y240000D02*
D03*
Y244000D02*
D03*
Y236000D02*
D03*
Y232000D02*
D03*
Y224000D02*
D03*
Y228000D02*
D03*
Y220000D02*
D03*
Y216000D02*
D03*
Y212000D02*
D03*
Y208000D02*
D03*
Y204000D02*
D03*
Y200000D02*
D03*
Y196000D02*
D03*
Y192000D02*
D03*
Y188000D02*
D03*
Y184000D02*
D03*
X527051Y84666D02*
D03*
X519274Y83583D02*
D03*
X513000Y110500D02*
D03*
X520500Y98500D02*
D03*
X513000Y83500D02*
D03*
X489500Y163000D02*
D03*
X492000Y156500D02*
D03*
X501051Y90551D02*
D03*
X497000Y218000D02*
D03*
X490000Y132500D02*
D03*
X485000Y120000D02*
D03*
X504500Y279000D02*
D03*
X517000Y253500D02*
D03*
X523000Y259000D02*
D03*
Y238000D02*
D03*
X511500Y237500D02*
D03*
X525500Y97500D02*
D03*
X506500Y129000D02*
D03*
D29*
X491500Y98650D02*
D03*
Y92350D02*
D03*
D30*
X490350Y211152D02*
D03*
X496650D02*
D03*
X493350Y237500D02*
D03*
X499650D02*
D03*
D31*
X499823Y246500D02*
D03*
X502382D02*
D03*
X504941D02*
D03*
X507500D02*
D03*
X510059D02*
D03*
X512618D02*
D03*
X515177D02*
D03*
X517736D02*
D03*
Y269098D02*
D03*
X515177D02*
D03*
X512618D02*
D03*
X510059D02*
D03*
X507500D02*
D03*
X504941D02*
D03*
X502382D02*
D03*
X499823D02*
D03*
X498543Y98701D02*
D03*
X501102D02*
D03*
X503661D02*
D03*
X506220D02*
D03*
X508779D02*
D03*
X511339D02*
D03*
X513898D02*
D03*
X516457D02*
D03*
Y121299D02*
D03*
X513898D02*
D03*
X511339D02*
D03*
X508779D02*
D03*
X506220D02*
D03*
X503661D02*
D03*
X501102D02*
D03*
X498543D02*
D03*
D32*
X497000Y204100D02*
D03*
Y201600D02*
D03*
Y199000D02*
D03*
Y196500D02*
D03*
Y193900D02*
D03*
Y191300D02*
D03*
Y188800D02*
D03*
Y186200D02*
D03*
Y183700D02*
D03*
Y181100D02*
D03*
Y178500D02*
D03*
Y176000D02*
D03*
Y173400D02*
D03*
Y170900D02*
D03*
X520000D02*
D03*
Y173400D02*
D03*
Y176000D02*
D03*
Y178500D02*
D03*
Y181100D02*
D03*
Y183700D02*
D03*
Y186200D02*
D03*
Y188800D02*
D03*
Y191300D02*
D03*
Y193900D02*
D03*
Y196500D02*
D03*
Y199000D02*
D03*
Y201600D02*
D03*
Y204100D02*
D03*
M02*
